%FSLAX24Y24*%
%MOIN*%
G70*
G01*
G75*
G04 Layer_Physical_Order=2*
G04 Layer_Color=16711680*
%ADD10R,0.0630X0.0709*%
%ADD11R,0.1378X0.0640*%
%ADD12R,0.0709X0.0630*%
%ADD13R,0.0472X0.0551*%
%ADD14R,0.0551X0.0591*%
%ADD15R,0.0591X0.0551*%
%ADD16R,0.0551X0.0472*%
%ADD17R,0.1339X0.0394*%
%ADD18R,0.3386X0.4213*%
%ADD19R,0.0512X0.1024*%
%ADD20R,0.0591X0.0472*%
%ADD21R,0.0360X0.0360*%
%ADD22R,0.0360X0.0500*%
%ADD23R,0.0360X0.0360*%
%ADD24R,0.0500X0.0360*%
%ADD25C,0.0240*%
%ADD26C,0.1400*%
%ADD27C,0.1000*%
%ADD28C,0.0600*%
%ADD29C,0.0400*%
%ADD30C,0.0160*%
%ADD31C,0.0500*%
%ADD32C,0.0800*%
%ADD33C,0.0197*%
%ADD34C,0.1575*%
G04:AMPARAMS|DCode=35|XSize=78.7mil|YSize=118.1mil|CornerRadius=0mil|HoleSize=0mil|Usage=FLASHONLY|Rotation=90.000|XOffset=0mil|YOffset=0mil|HoleType=Round|Shape=Octagon|*
%AMOCTAGOND35*
4,1,8,-0.0591,-0.0197,-0.0591,0.0197,-0.0394,0.0394,0.0394,0.0394,0.0591,0.0197,0.0591,-0.0197,0.0394,-0.0394,-0.0394,-0.0394,-0.0591,-0.0197,0.0*
%
%ADD35OCTAGOND35*%

%ADD36O,0.0591X0.0984*%
%ADD37C,0.0984*%
%ADD38C,0.0551*%
%ADD39R,0.0591X0.0591*%
%ADD40C,0.0591*%
%ADD41C,0.1378*%
%ADD42C,0.0591*%
%ADD43R,0.0591X0.0591*%
%ADD44O,0.0620X0.1181*%
%ADD45C,0.0787*%
%ADD46C,0.0630*%
%ADD47O,0.0787X0.1181*%
%ADD48R,0.0433X0.0433*%
%ADD49C,0.0433*%
%ADD50O,0.0866X0.1260*%
%ADD51P,0.0682X8X202.5*%
%ADD52C,0.0500*%
%ADD53C,0.1969*%
G36*
X24605Y32925D02*
X25595D01*
Y32951D01*
X25747Y33067D01*
X25850Y32988D01*
X25950Y32947D01*
Y33420D01*
X26250D01*
Y32947D01*
X26350Y32988D01*
X26453Y33067D01*
X26520Y33154D01*
X26680D01*
X26747Y33067D01*
X26850Y32988D01*
X26971Y32938D01*
X27100Y32921D01*
X27229Y32938D01*
X27350Y32988D01*
X27389Y33018D01*
X29700Y30707D01*
X59269D01*
Y12112D01*
X59112Y12081D01*
X59054Y12222D01*
X58956Y12381D01*
X58835Y12522D01*
X58694Y12643D01*
X58535Y12741D01*
X58362Y12812D01*
X58181Y12856D01*
X57995Y12870D01*
X57809Y12856D01*
X57628Y12812D01*
X57456Y12741D01*
X57297Y12643D01*
X57155Y12522D01*
X57034Y12381D01*
X56937Y12222D01*
X56866Y12049D01*
X56822Y11868D01*
X56807Y11682D01*
X56822Y11496D01*
X56866Y11315D01*
X56937Y11143D01*
X57034Y10984D01*
X57155Y10842D01*
X57297Y10721D01*
X57456Y10624D01*
X57597Y10565D01*
X57566Y10408D01*
X22204D01*
X22173Y10565D01*
X22314Y10624D01*
X22473Y10721D01*
X22615Y10842D01*
X22736Y10984D01*
X22833Y11143D01*
X22905Y11315D01*
X22948Y11496D01*
X22963Y11682D01*
X22948Y11868D01*
X22905Y12049D01*
X22833Y12222D01*
X22736Y12381D01*
X22615Y12522D01*
X22473Y12643D01*
X22314Y12741D01*
X22142Y12812D01*
X21961Y12856D01*
X21775Y12870D01*
X21589Y12856D01*
X21408Y12812D01*
X21235Y12741D01*
X21077Y12643D01*
X20935Y12522D01*
X20814Y12381D01*
X20716Y12222D01*
X20658Y12081D01*
X20501Y12112D01*
Y21610D01*
X20521Y21612D01*
Y21785D01*
X20501Y21786D01*
Y23762D01*
X20655D01*
Y23762D01*
X21000D01*
Y24257D01*
Y24753D01*
X20655D01*
Y24753D01*
X20614D01*
X20501Y24866D01*
Y33907D01*
X21786D01*
X21850Y33753D01*
X21747Y33674D01*
X21667Y33570D01*
X21626Y33470D01*
X22100D01*
Y33320D01*
X22250D01*
Y32847D01*
X22350Y32888D01*
X22453Y32967D01*
X22520Y33054D01*
X22680D01*
X22747Y32967D01*
X22777Y32944D01*
Y32641D01*
X21922Y31786D01*
X21870Y31719D01*
X21838Y31641D01*
X21827Y31557D01*
Y28157D01*
X21838Y28074D01*
X21838Y28074D01*
X21838Y28074D01*
X21870Y27996D01*
X21922Y27929D01*
X22056Y27795D01*
X22079Y27626D01*
X22072Y27591D01*
X21973Y27551D01*
X21879Y27478D01*
X21807Y27384D01*
X21762Y27275D01*
X21746Y27157D01*
X21762Y27040D01*
X21807Y26931D01*
X21879Y26837D01*
X21973Y26764D01*
X22083Y26719D01*
X22197Y26704D01*
X23772Y25129D01*
X23839Y25078D01*
X23916Y25046D01*
X24000Y25035D01*
X34416D01*
X35272Y24179D01*
X35339Y24128D01*
D01*
D01*
Y24128D01*
X35339Y24128D01*
D01*
D01*
X35339D01*
Y24128D01*
D01*
X35339D01*
Y24128D01*
X35416Y24096D01*
X35500Y24085D01*
X38156D01*
X38619Y23622D01*
X38558Y23474D01*
X38470D01*
X38403Y23561D01*
X38300Y23640D01*
X38179Y23690D01*
X38050Y23707D01*
X37921Y23690D01*
X37800Y23640D01*
X37697Y23561D01*
X37630Y23474D01*
X37470D01*
X37403Y23561D01*
X37300Y23640D01*
X37179Y23690D01*
X37050Y23707D01*
X36921Y23690D01*
X36800Y23640D01*
X36697Y23561D01*
X36630Y23474D01*
X36470D01*
X36403Y23561D01*
X36300Y23640D01*
X36200Y23681D01*
Y23207D01*
Y22734D01*
X36300Y22775D01*
X36403Y22854D01*
X36470Y22941D01*
X36630D01*
X36697Y22854D01*
X36800Y22775D01*
X36921Y22725D01*
X37050Y22708D01*
X37179Y22725D01*
X37300Y22775D01*
X37403Y22854D01*
X37470Y22941D01*
X37630D01*
X37697Y22854D01*
X37800Y22775D01*
X37921Y22725D01*
X38050Y22708D01*
X38179Y22725D01*
X38300Y22775D01*
X38403Y22854D01*
X38470Y22941D01*
X38630D01*
X38697Y22854D01*
X38800Y22775D01*
X38921Y22725D01*
X39050Y22708D01*
X39147Y22721D01*
X39268Y22615D01*
Y19284D01*
X38863Y18880D01*
X31430D01*
X31357Y18870D01*
X31337Y18862D01*
X31289Y18842D01*
X31230Y18797D01*
X31000Y18567D01*
X30955Y18509D01*
X30935Y18461D01*
X30927Y18441D01*
X30918Y18367D01*
Y18315D01*
X30847Y18261D01*
X30780Y18174D01*
X30620D01*
X30553Y18261D01*
X30450Y18340D01*
X30329Y18390D01*
X30200Y18407D01*
X30071Y18390D01*
X29950Y18340D01*
X29847Y18261D01*
X29780Y18174D01*
X29620D01*
X29553Y18261D01*
X29450Y18340D01*
X29329Y18390D01*
X29200Y18407D01*
X29071Y18390D01*
X28950Y18340D01*
X28847Y18261D01*
X28695Y18377D01*
Y18403D01*
X27705D01*
Y17412D01*
X28695D01*
Y17438D01*
X28847Y17554D01*
X28950Y17475D01*
X29071Y17425D01*
X29200Y17408D01*
X29329Y17425D01*
X29450Y17475D01*
X29553Y17554D01*
X29620Y17641D01*
X29780D01*
X29847Y17554D01*
X29950Y17475D01*
X30071Y17425D01*
X30200Y17408D01*
X30329Y17425D01*
X30450Y17475D01*
X30553Y17554D01*
X30620Y17641D01*
X30780D01*
X30847Y17554D01*
X30950Y17475D01*
X31071Y17425D01*
X31200Y17408D01*
X31329Y17425D01*
X31450Y17475D01*
X31553Y17554D01*
X31620Y17641D01*
X31780D01*
X31847Y17554D01*
X31950Y17475D01*
X32071Y17425D01*
X32200Y17408D01*
X32329Y17425D01*
X32450Y17475D01*
X32553Y17554D01*
X32577Y17585D01*
X32823D01*
X32847Y17554D01*
X32877Y17531D01*
Y16447D01*
X32888Y16364D01*
X32888Y16364D01*
X32888Y16364D01*
X32920Y16286D01*
X32972Y16219D01*
X34197Y14994D01*
Y14822D01*
X34053Y14754D01*
X33996Y14800D01*
X33842Y14883D01*
X33674Y14934D01*
X33500Y14951D01*
X33326Y14934D01*
X33158Y14883D01*
X33004Y14800D01*
X32868Y14689D01*
X32757Y14554D01*
X32675Y14399D01*
X32624Y14232D01*
X32607Y14057D01*
X32624Y13883D01*
X32675Y13716D01*
X32757Y13561D01*
X32868Y13426D01*
X33004Y13315D01*
X33158Y13232D01*
X33326Y13181D01*
X33500Y13164D01*
X33674Y13181D01*
X33842Y13232D01*
X33996Y13315D01*
X34053Y13361D01*
X34197Y13293D01*
Y12817D01*
X34208Y12734D01*
X34208Y12734D01*
X34208Y12734D01*
X34240Y12656D01*
X34292Y12589D01*
X34952Y11929D01*
X35019Y11878D01*
D01*
D01*
Y11878D01*
X35019Y11878D01*
D01*
D01*
X35019D01*
Y11878D01*
D01*
X35019D01*
Y11878D01*
X35096Y11846D01*
X35180Y11835D01*
X42830D01*
X42914Y11846D01*
X42991Y11878D01*
X43058Y11929D01*
X43058Y11929D01*
X43058Y11929D01*
X43728Y12599D01*
X43780Y12666D01*
X43780Y12666D01*
X43780Y12666D01*
X43812Y12744D01*
X43823Y12827D01*
Y13226D01*
X43842Y13232D01*
X43996Y13315D01*
X44132Y13426D01*
X44243Y13561D01*
X44325Y13716D01*
X44376Y13883D01*
X44393Y14057D01*
X44376Y14232D01*
X44325Y14399D01*
X44243Y14554D01*
X44132Y14689D01*
X43996Y14800D01*
X43842Y14883D01*
X43674Y14934D01*
X43500Y14951D01*
X43326Y14934D01*
X43158Y14883D01*
X43004Y14800D01*
X42868Y14689D01*
X42757Y14554D01*
X42675Y14399D01*
X42624Y14232D01*
X42607Y14057D01*
X42624Y13883D01*
X42675Y13716D01*
X42757Y13561D01*
X42868Y13426D01*
X43004Y13315D01*
X43158Y13232D01*
X43177Y13226D01*
Y12961D01*
X42696Y12480D01*
X35314D01*
X34843Y12951D01*
Y13260D01*
X34987Y13328D01*
X35004Y13315D01*
X35158Y13232D01*
X35326Y13181D01*
X35500Y13164D01*
X35674Y13181D01*
X35842Y13232D01*
X35996Y13315D01*
X36132Y13426D01*
X36243Y13561D01*
X36325Y13716D01*
X36376Y13883D01*
X36393Y14057D01*
X36376Y14232D01*
X36325Y14399D01*
X36243Y14554D01*
X36132Y14689D01*
X35996Y14800D01*
X35842Y14883D01*
X35674Y14934D01*
X35500Y14951D01*
X35326Y14934D01*
X35158Y14883D01*
X35004Y14800D01*
X34987Y14787D01*
X34843Y14855D01*
Y15127D01*
X34832Y15211D01*
X34800Y15289D01*
X34748Y15356D01*
X33523Y16581D01*
Y17531D01*
X33553Y17554D01*
X33620Y17641D01*
X33780D01*
X33847Y17554D01*
X33950Y17475D01*
X34050Y17434D01*
Y17907D01*
X34200D01*
Y18057D01*
X34674D01*
X34633Y18157D01*
X34622Y18172D01*
X34692Y18315D01*
X38980D01*
X39053Y18325D01*
X39073Y18333D01*
X39121Y18353D01*
X39180Y18398D01*
X39620Y18838D01*
X39768Y18777D01*
Y15507D01*
X39777Y15434D01*
X39785Y15414D01*
X39805Y15366D01*
X39850Y15308D01*
X40704Y14454D01*
X40675Y14399D01*
X40624Y14232D01*
X40607Y14057D01*
X40624Y13883D01*
X40675Y13716D01*
X40757Y13561D01*
X40868Y13426D01*
X41004Y13315D01*
X41158Y13232D01*
X41326Y13181D01*
X41500Y13164D01*
X41674Y13181D01*
X41842Y13232D01*
X41996Y13315D01*
X42132Y13426D01*
X42243Y13561D01*
X42325Y13716D01*
X42376Y13883D01*
X42393Y14057D01*
X42376Y14232D01*
X42325Y14399D01*
X42243Y14554D01*
X42132Y14689D01*
X41996Y14800D01*
X41842Y14883D01*
X41674Y14934D01*
X41500Y14951D01*
X41326Y14934D01*
X41158Y14883D01*
X41103Y14853D01*
X40332Y15624D01*
Y22800D01*
X40403Y22854D01*
X40470Y22941D01*
X40630D01*
X40697Y22854D01*
X40800Y22775D01*
X40921Y22725D01*
X41050Y22708D01*
X41179Y22725D01*
X41300Y22775D01*
X41403Y22854D01*
X41470Y22941D01*
X41630D01*
X41697Y22854D01*
X41800Y22775D01*
X41921Y22725D01*
X42050Y22708D01*
X42179Y22725D01*
X42300Y22775D01*
X42403Y22854D01*
X42483Y22958D01*
X42533Y23078D01*
X42550Y23207D01*
X42533Y23337D01*
X42483Y23457D01*
X42403Y23561D01*
X42300Y23640D01*
X42179Y23690D01*
X42050Y23707D01*
X41921Y23690D01*
X41800Y23640D01*
X41697Y23561D01*
X41630Y23474D01*
X41470D01*
X41403Y23561D01*
X41300Y23640D01*
X41179Y23690D01*
X41050Y23707D01*
X40921Y23690D01*
X40800Y23640D01*
X40697Y23561D01*
X40630Y23474D01*
X40470D01*
X40403Y23561D01*
X40300Y23640D01*
X40179Y23690D01*
X40105Y23700D01*
X40090Y23744D01*
X40174Y23880D01*
X40284Y23894D01*
X40400Y23942D01*
X40499Y24018D01*
X40575Y24118D01*
X40623Y24233D01*
X40640Y24357D01*
X40623Y24482D01*
X40575Y24597D01*
X40499Y24697D01*
X40400Y24773D01*
X40284Y24821D01*
X40160Y24837D01*
X40036Y24821D01*
X39920Y24773D01*
X39821Y24697D01*
X39745Y24597D01*
X39697Y24482D01*
X39680Y24357D01*
X39690Y24287D01*
X39550Y24147D01*
X38740Y24957D01*
X38681Y25002D01*
X38633Y25022D01*
X38613Y25030D01*
X38540Y25040D01*
X35817D01*
X35332Y25524D01*
Y25800D01*
X35403Y25854D01*
X35470Y25941D01*
X35630D01*
X35697Y25854D01*
X35800Y25775D01*
X35921Y25725D01*
X36050Y25708D01*
X36179Y25725D01*
X36300Y25775D01*
X36403Y25854D01*
X36470Y25941D01*
X36630D01*
X36697Y25854D01*
X36800Y25775D01*
X36921Y25725D01*
X37050Y25708D01*
X37179Y25725D01*
X37300Y25775D01*
X37403Y25854D01*
X37470Y25941D01*
X37630D01*
X37697Y25854D01*
X37800Y25775D01*
X37900Y25734D01*
Y26207D01*
Y26681D01*
X37800Y26640D01*
X37697Y26561D01*
X37630Y26474D01*
X37470D01*
X37403Y26561D01*
X37300Y26640D01*
X37179Y26690D01*
X37050Y26707D01*
X36921Y26690D01*
X36800Y26640D01*
X36697Y26561D01*
X36630Y26474D01*
X36470D01*
X36403Y26561D01*
X36373Y26584D01*
Y26907D01*
X36362Y26991D01*
X36330Y27069D01*
X36278Y27136D01*
X35878Y27536D01*
X35811Y27587D01*
X35734Y27619D01*
X35650Y27630D01*
X23134D01*
X22473Y28291D01*
Y30666D01*
X22630Y30697D01*
X22650Y30648D01*
X22733Y30540D01*
X22840Y30458D01*
X22966Y30406D01*
X23100Y30388D01*
X23234Y30406D01*
X23360Y30458D01*
X23467Y30540D01*
X23501Y30585D01*
X24766D01*
X24977Y30374D01*
X24977Y30374D01*
D01*
X24947Y30258D01*
X24880Y30171D01*
X24720D01*
X24653Y30258D01*
X24550Y30337D01*
X24450Y30378D01*
Y29707D01*
Y29037D01*
X24550Y29078D01*
X24653Y29157D01*
X24720Y29244D01*
X24880D01*
X24947Y29157D01*
X25050Y29078D01*
X25171Y29028D01*
X25300Y29011D01*
X25429Y29028D01*
X25550Y29078D01*
X25653Y29157D01*
X25720Y29244D01*
X25880D01*
X25947Y29157D01*
X26050Y29078D01*
X26171Y29028D01*
X26300Y29011D01*
X26429Y29028D01*
X26550Y29078D01*
X26653Y29157D01*
X26720Y29244D01*
X26880D01*
X26947Y29157D01*
X27050Y29078D01*
X27171Y29028D01*
X27300Y29011D01*
X27429Y29028D01*
X27550Y29078D01*
X27653Y29157D01*
X27720Y29244D01*
X27880D01*
X27947Y29157D01*
X28050Y29078D01*
X28150Y29037D01*
Y29707D01*
Y30378D01*
X28050Y30337D01*
X27947Y30258D01*
X27880Y30171D01*
X27720D01*
X27653Y30258D01*
X27550Y30337D01*
X27429Y30387D01*
X27300Y30404D01*
X27171Y30387D01*
X27050Y30337D01*
X26947Y30258D01*
X26880Y30171D01*
X26720D01*
X26653Y30258D01*
X26550Y30337D01*
X26429Y30387D01*
X26300Y30404D01*
X26171Y30387D01*
X26050Y30337D01*
X25947Y30258D01*
X25880Y30171D01*
X25720D01*
X25653Y30258D01*
X25623Y30281D01*
Y30507D01*
X25612Y30591D01*
X25580Y30669D01*
X25528Y30736D01*
X25128Y31136D01*
X25061Y31187D01*
X24984Y31219D01*
X24900Y31230D01*
X23501D01*
X23467Y31275D01*
X23360Y31357D01*
X23234Y31409D01*
X23100Y31427D01*
X22966Y31409D01*
X22840Y31357D01*
X22733Y31275D01*
X22650Y31167D01*
X22630Y31118D01*
X22473Y31149D01*
Y31424D01*
X23328Y32279D01*
X23380Y32346D01*
X23412Y32424D01*
X23423Y32507D01*
Y32944D01*
X23453Y32967D01*
X23533Y33071D01*
X23583Y33191D01*
X23600Y33320D01*
X23583Y33450D01*
X23533Y33570D01*
X23453Y33674D01*
X23350Y33753D01*
X23414Y33907D01*
X24605D01*
Y32925D01*
D02*
G37*
%LPC*%
G36*
X44250Y19403D02*
Y19057D01*
X44595D01*
X44550Y19167D01*
X44467Y19275D01*
X44360Y19357D01*
X44250Y19403D01*
D02*
G37*
G36*
X41850D02*
Y19057D01*
X42195D01*
X42150Y19167D01*
X42067Y19275D01*
X41960Y19357D01*
X41850Y19403D01*
D02*
G37*
G36*
X43950D02*
X43840Y19357D01*
X43733Y19275D01*
X43650Y19167D01*
X43605Y19057D01*
X43950D01*
Y19403D01*
D02*
G37*
G36*
X42750Y20157D02*
X42405D01*
X42450Y20048D01*
X42533Y19940D01*
X42640Y19858D01*
X42750Y19812D01*
Y20157D01*
D02*
G37*
G36*
X49495Y20257D02*
X49150D01*
Y19912D01*
X49260Y19958D01*
X49367Y20040D01*
X49450Y20148D01*
X49495Y20257D01*
D02*
G37*
G36*
X48850D02*
X48505D01*
X48550Y20148D01*
X48633Y20040D01*
X48740Y19958D01*
X48850Y19912D01*
Y20257D01*
D02*
G37*
G36*
X43395Y20157D02*
X43050D01*
Y19812D01*
X43160Y19858D01*
X43267Y19940D01*
X43350Y20048D01*
X43395Y20157D01*
D02*
G37*
G36*
X41550Y18757D02*
X41205D01*
X41250Y18648D01*
X41333Y18540D01*
X41440Y18458D01*
X41550Y18412D01*
Y18757D01*
D02*
G37*
G36*
X34674Y17757D02*
X34350D01*
Y17434D01*
X34450Y17475D01*
X34553Y17554D01*
X34633Y17658D01*
X34674Y17757D01*
D02*
G37*
G36*
X57300Y18801D02*
X57126Y18784D01*
X56958Y18733D01*
X56804Y18650D01*
X56668Y18539D01*
X56557Y18404D01*
X56475Y18249D01*
X56424Y18082D01*
X56407Y17907D01*
X56424Y17733D01*
X56475Y17566D01*
X56557Y17411D01*
X56668Y17276D01*
X56804Y17165D01*
X56958Y17082D01*
X57126Y17031D01*
X57300Y17014D01*
X57474Y17031D01*
X57642Y17082D01*
X57796Y17165D01*
X57932Y17276D01*
X58043Y17411D01*
X58125Y17566D01*
X58176Y17733D01*
X58193Y17907D01*
X58176Y18082D01*
X58125Y18249D01*
X58043Y18404D01*
X57932Y18539D01*
X57796Y18650D01*
X57642Y18733D01*
X57474Y18784D01*
X57300Y18801D01*
D02*
G37*
G36*
X42195Y18757D02*
X41850D01*
Y18412D01*
X41960Y18458D01*
X42067Y18540D01*
X42150Y18648D01*
X42195Y18757D01*
D02*
G37*
G36*
X41550Y19403D02*
X41440Y19357D01*
X41333Y19275D01*
X41250Y19167D01*
X41205Y19057D01*
X41550D01*
Y19403D01*
D02*
G37*
G36*
X44595Y18757D02*
X44250D01*
Y18412D01*
X44360Y18458D01*
X44467Y18540D01*
X44550Y18648D01*
X44595Y18757D01*
D02*
G37*
G36*
X43950D02*
X43605D01*
X43650Y18648D01*
X43733Y18540D01*
X43840Y18458D01*
X43950Y18412D01*
Y18757D01*
D02*
G37*
G36*
X36550Y22302D02*
X36417Y22285D01*
X36293Y22234D01*
X36186Y22152D01*
X36105Y22045D01*
X36053Y21921D01*
X36036Y21788D01*
Y21227D01*
X36053Y21094D01*
X36105Y20970D01*
X36186Y20863D01*
X36293Y20781D01*
X36417Y20730D01*
X36550Y20713D01*
X36683Y20730D01*
X36807Y20781D01*
X36914Y20863D01*
X36995Y20970D01*
X37047Y21094D01*
X37064Y21227D01*
Y21788D01*
X37047Y21921D01*
X36995Y22045D01*
X36914Y22152D01*
X36807Y22234D01*
X36683Y22285D01*
X36550Y22302D01*
D02*
G37*
G36*
X50550Y20903D02*
Y20557D01*
X50895D01*
X50850Y20667D01*
X50767Y20775D01*
X50660Y20857D01*
X50550Y20903D01*
D02*
G37*
G36*
X50250D02*
X50140Y20857D01*
X50033Y20775D01*
X49950Y20667D01*
X49905Y20557D01*
X50250D01*
Y20903D01*
D02*
G37*
G36*
X38550Y22302D02*
X38417Y22285D01*
X38293Y22234D01*
X38186Y22152D01*
X38105Y22045D01*
X38053Y21921D01*
X38036Y21788D01*
Y21227D01*
X38053Y21094D01*
X38105Y20970D01*
X38186Y20863D01*
X38293Y20781D01*
X38417Y20730D01*
X38550Y20713D01*
X38683Y20730D01*
X38807Y20781D01*
X38914Y20863D01*
X38995Y20970D01*
X39047Y21094D01*
X39064Y21227D01*
Y21788D01*
X39047Y21921D01*
X38995Y22045D01*
X38914Y22152D01*
X38807Y22234D01*
X38683Y22285D01*
X38550Y22302D01*
D02*
G37*
G36*
X57300Y22801D02*
X57126Y22784D01*
X56958Y22733D01*
X56804Y22650D01*
X56668Y22539D01*
X56557Y22404D01*
X56475Y22249D01*
X56424Y22082D01*
X56407Y21907D01*
X56424Y21733D01*
X56475Y21566D01*
X56557Y21411D01*
X56668Y21276D01*
X56804Y21165D01*
X56958Y21082D01*
X57126Y21031D01*
X57300Y21014D01*
X57474Y21031D01*
X57642Y21082D01*
X57796Y21165D01*
X57932Y21276D01*
X58043Y21411D01*
X58125Y21566D01*
X58176Y21733D01*
X58193Y21907D01*
X58176Y22082D01*
X58125Y22249D01*
X58043Y22404D01*
X57932Y22539D01*
X57796Y22650D01*
X57642Y22733D01*
X57474Y22784D01*
X57300Y22801D01*
D02*
G37*
G36*
X24995Y21157D02*
X24650D01*
Y20812D01*
X24760Y20858D01*
X24867Y20940D01*
X24950Y21048D01*
X24995Y21157D01*
D02*
G37*
G36*
X24350D02*
X24005D01*
X24050Y21048D01*
X24133Y20940D01*
X24240Y20858D01*
X24350Y20812D01*
Y21157D01*
D02*
G37*
G36*
X34674Y20757D02*
X34350D01*
Y20434D01*
X34450Y20475D01*
X34553Y20554D01*
X34633Y20658D01*
X34674Y20757D01*
D02*
G37*
G36*
X50895Y20257D02*
X50550D01*
Y19912D01*
X50660Y19958D01*
X50767Y20040D01*
X50850Y20148D01*
X50895Y20257D01*
D02*
G37*
G36*
X50250D02*
X49905D01*
X49950Y20148D01*
X50033Y20040D01*
X50140Y19958D01*
X50250Y19912D01*
Y20257D01*
D02*
G37*
G36*
X42750Y20803D02*
X42640Y20757D01*
X42533Y20675D01*
X42450Y20567D01*
X42405Y20457D01*
X42750D01*
Y20803D01*
D02*
G37*
G36*
X49150Y20903D02*
Y20557D01*
X49495D01*
X49450Y20667D01*
X49367Y20775D01*
X49260Y20857D01*
X49150Y20903D01*
D02*
G37*
G36*
X48850D02*
X48740Y20857D01*
X48633Y20775D01*
X48550Y20667D01*
X48505Y20557D01*
X48850D01*
Y20903D01*
D02*
G37*
G36*
X43050Y20803D02*
Y20457D01*
X43395D01*
X43350Y20567D01*
X43267Y20675D01*
X43160Y20757D01*
X43050Y20803D01*
D02*
G37*
G36*
X22180Y18490D02*
X21986Y18471D01*
X21800Y18414D01*
X21629Y18322D01*
X21478Y18199D01*
X21355Y18049D01*
X21263Y17877D01*
X21207Y17691D01*
X21188Y17497D01*
X21207Y17304D01*
X21263Y17118D01*
X21355Y16946D01*
X21478Y16796D01*
X21629Y16673D01*
X21800Y16581D01*
X21986Y16524D01*
X22180Y16505D01*
X22374Y16524D01*
X22560Y16581D01*
X22731Y16673D01*
X22882Y16796D01*
X23005Y16946D01*
X23097Y17118D01*
X23153Y17304D01*
X23172Y17497D01*
X23153Y17691D01*
X23097Y17877D01*
X23005Y18049D01*
X22882Y18199D01*
X22731Y18322D01*
X22560Y18414D01*
X22374Y18471D01*
X22180Y18490D01*
D02*
G37*
G36*
X45350Y13907D02*
X44622D01*
X44624Y13883D01*
X44675Y13716D01*
X44757Y13561D01*
X44868Y13426D01*
X45004Y13315D01*
X45158Y13232D01*
X45326Y13181D01*
X45350Y13179D01*
Y13907D01*
D02*
G37*
G36*
X38379D02*
X37650D01*
Y13179D01*
X37674Y13181D01*
X37842Y13232D01*
X37996Y13315D01*
X38132Y13426D01*
X38243Y13561D01*
X38325Y13716D01*
X38376Y13883D01*
X38379Y13907D01*
D02*
G37*
G36*
X37350D02*
X36621D01*
X36624Y13883D01*
X36675Y13716D01*
X36757Y13561D01*
X36868Y13426D01*
X37004Y13315D01*
X37158Y13232D01*
X37326Y13181D01*
X37350Y13179D01*
Y13907D01*
D02*
G37*
G36*
X46378D02*
X45650D01*
Y13179D01*
X45674Y13181D01*
X45842Y13232D01*
X45996Y13315D01*
X46132Y13426D01*
X46243Y13561D01*
X46325Y13716D01*
X46376Y13883D01*
X46378Y13907D01*
D02*
G37*
G36*
X54217Y14418D02*
X53383D01*
Y13585D01*
X53383D01*
X53410Y13568D01*
X53436Y13424D01*
X53411Y13364D01*
X54189D01*
X54164Y13424D01*
X54190Y13568D01*
X54217Y13585D01*
X54217D01*
Y14418D01*
D02*
G37*
G36*
X50828Y13907D02*
X50100D01*
Y13179D01*
X50124Y13181D01*
X50292Y13232D01*
X50446Y13315D01*
X50582Y13426D01*
X50693Y13561D01*
X50775Y13716D01*
X50826Y13883D01*
X50828Y13907D01*
D02*
G37*
G36*
X49800D02*
X49071D01*
X49074Y13883D01*
X49125Y13716D01*
X49207Y13561D01*
X49318Y13426D01*
X49454Y13315D01*
X49608Y13232D01*
X49776Y13181D01*
X49800Y13179D01*
Y13907D01*
D02*
G37*
G36*
X23566Y13439D02*
X23141D01*
X23165Y13361D01*
X23220Y13258D01*
X23294Y13167D01*
X23384Y13093D01*
X23487Y13038D01*
X23566Y13014D01*
Y13439D01*
D02*
G37*
G36*
X54189Y13064D02*
X53950D01*
Y12825D01*
X54010Y12850D01*
X54097Y12917D01*
X54164Y13004D01*
X54189Y13064D01*
D02*
G37*
G36*
X53650D02*
X53411D01*
X53436Y13004D01*
X53503Y12917D01*
X53590Y12850D01*
X53650Y12825D01*
Y13064D01*
D02*
G37*
G36*
X24291Y13439D02*
X23866D01*
Y13014D01*
X23944Y13038D01*
X24047Y13093D01*
X24138Y13167D01*
X24212Y13258D01*
X24267Y13361D01*
X24291Y13439D01*
D02*
G37*
G36*
X45350Y17227D02*
X45216Y17209D01*
X45090Y17157D01*
X44983Y17075D01*
X44900Y16967D01*
X44848Y16842D01*
X44831Y16707D01*
X44848Y16573D01*
X44900Y16448D01*
X44983Y16340D01*
X45090Y16258D01*
X45216Y16206D01*
X45350Y16188D01*
X45406Y16195D01*
X47152Y14449D01*
X47125Y14399D01*
X47074Y14232D01*
X47057Y14057D01*
X47074Y13883D01*
X47125Y13716D01*
X47207Y13561D01*
X47318Y13426D01*
X47454Y13315D01*
X47608Y13232D01*
X47776Y13181D01*
X47950Y13164D01*
X48124Y13181D01*
X48292Y13232D01*
X48446Y13315D01*
X48582Y13426D01*
X48693Y13561D01*
X48775Y13716D01*
X48826Y13883D01*
X48843Y14057D01*
X48826Y14232D01*
X48775Y14399D01*
X48693Y14554D01*
X48582Y14689D01*
X48446Y14800D01*
X48292Y14883D01*
X48124Y14934D01*
X47950Y14951D01*
X47776Y14934D01*
X47626Y14888D01*
X45862Y16652D01*
X45869Y16707D01*
X45852Y16842D01*
X45800Y16967D01*
X45717Y17075D01*
X45610Y17157D01*
X45484Y17209D01*
X45350Y17227D01*
D02*
G37*
G36*
X39500Y14951D02*
X39326Y14934D01*
X39158Y14883D01*
X39004Y14800D01*
X38868Y14689D01*
X38757Y14554D01*
X38675Y14399D01*
X38624Y14232D01*
X38607Y14057D01*
X38624Y13883D01*
X38675Y13716D01*
X38757Y13561D01*
X38868Y13426D01*
X39004Y13315D01*
X39158Y13232D01*
X39326Y13181D01*
X39500Y13164D01*
X39674Y13181D01*
X39842Y13232D01*
X39996Y13315D01*
X40132Y13426D01*
X40243Y13561D01*
X40325Y13716D01*
X40376Y13883D01*
X40393Y14057D01*
X40376Y14232D01*
X40325Y14399D01*
X40243Y14554D01*
X40132Y14689D01*
X39996Y14800D01*
X39842Y14883D01*
X39674Y14934D01*
X39500Y14951D01*
D02*
G37*
G36*
X31500D02*
X31326Y14934D01*
X31158Y14883D01*
X31004Y14800D01*
X30868Y14689D01*
X30757Y14554D01*
X30675Y14399D01*
X30624Y14232D01*
X30607Y14057D01*
X30624Y13883D01*
X30675Y13716D01*
X30757Y13561D01*
X30868Y13426D01*
X31004Y13315D01*
X31158Y13232D01*
X31326Y13181D01*
X31500Y13164D01*
X31674Y13181D01*
X31842Y13232D01*
X31996Y13315D01*
X32132Y13426D01*
X32243Y13561D01*
X32325Y13716D01*
X32376Y13883D01*
X32393Y14057D01*
X32376Y14232D01*
X32325Y14399D01*
X32243Y14554D01*
X32132Y14689D01*
X31996Y14800D01*
X31842Y14883D01*
X31674Y14934D01*
X31500Y14951D01*
D02*
G37*
G36*
X57150Y15757D02*
X56421D01*
X56424Y15733D01*
X56475Y15566D01*
X56557Y15411D01*
X56668Y15276D01*
X56804Y15165D01*
X56958Y15082D01*
X57126Y15031D01*
X57150Y15029D01*
Y15757D01*
D02*
G37*
G36*
X28150Y15227D02*
X28016Y15209D01*
X27890Y15157D01*
X27783Y15075D01*
X27730Y15006D01*
X27570D01*
X27517Y15075D01*
X27410Y15157D01*
X27284Y15209D01*
X27150Y15227D01*
X27016Y15209D01*
X26890Y15157D01*
X26783Y15075D01*
X26700Y14967D01*
X26648Y14842D01*
X26631Y14707D01*
X26648Y14573D01*
X26700Y14448D01*
X26783Y14340D01*
X26890Y14258D01*
X27016Y14206D01*
X27150Y14188D01*
X27284Y14206D01*
X27410Y14258D01*
X27517Y14340D01*
X27570Y14409D01*
X27730D01*
X27783Y14340D01*
X27890Y14258D01*
X28016Y14206D01*
X28150Y14188D01*
X28284Y14206D01*
X28410Y14258D01*
X28517Y14340D01*
X28542Y14373D01*
X28702Y14383D01*
X28893Y14193D01*
X29407D01*
X29665Y14450D01*
Y14965D01*
X29407Y15222D01*
X28893D01*
X28702Y15032D01*
X28542Y15042D01*
X28517Y15075D01*
X28410Y15157D01*
X28284Y15209D01*
X28150Y15227D01*
D02*
G37*
G36*
X50100Y14936D02*
Y14207D01*
X50828D01*
X50826Y14232D01*
X50775Y14399D01*
X50693Y14554D01*
X50582Y14689D01*
X50446Y14800D01*
X50292Y14883D01*
X50124Y14934D01*
X50100Y14936D01*
D02*
G37*
G36*
X58179Y15757D02*
X57450D01*
Y15029D01*
X57474Y15031D01*
X57642Y15082D01*
X57796Y15165D01*
X57932Y15276D01*
X58043Y15411D01*
X58125Y15566D01*
X58176Y15733D01*
X58179Y15757D01*
D02*
G37*
G36*
X51710Y18485D02*
X51516Y18466D01*
X51330Y18409D01*
X51159Y18317D01*
X51008Y18194D01*
X50885Y18044D01*
X50793Y17872D01*
X50737Y17686D01*
X50718Y17492D01*
X50737Y17299D01*
X50793Y17113D01*
X50885Y16941D01*
X51008Y16791D01*
X51159Y16668D01*
X51330Y16576D01*
X51516Y16519D01*
X51710Y16500D01*
X51904Y16519D01*
X52090Y16576D01*
X52261Y16668D01*
X52412Y16791D01*
X52535Y16941D01*
X52627Y17113D01*
X52683Y17299D01*
X52702Y17492D01*
X52683Y17686D01*
X52627Y17872D01*
X52535Y18044D01*
X52412Y18194D01*
X52261Y18317D01*
X52090Y18409D01*
X51904Y18466D01*
X51710Y18485D01*
D02*
G37*
G36*
X57450Y16786D02*
Y16057D01*
X58179D01*
X58176Y16082D01*
X58125Y16249D01*
X58043Y16404D01*
X57932Y16539D01*
X57796Y16650D01*
X57642Y16733D01*
X57474Y16784D01*
X57450Y16786D01*
D02*
G37*
G36*
X57150D02*
X57126Y16784D01*
X56958Y16733D01*
X56804Y16650D01*
X56668Y16539D01*
X56557Y16404D01*
X56475Y16249D01*
X56424Y16082D01*
X56421Y16057D01*
X57150D01*
Y16786D01*
D02*
G37*
G36*
X37350Y14936D02*
X37326Y14934D01*
X37158Y14883D01*
X37004Y14800D01*
X36868Y14689D01*
X36757Y14554D01*
X36675Y14399D01*
X36624Y14232D01*
X36621Y14207D01*
X37350D01*
Y14936D01*
D02*
G37*
G36*
X23866Y14164D02*
Y13739D01*
X24291D01*
X24267Y13817D01*
X24212Y13920D01*
X24138Y14011D01*
X24047Y14085D01*
X23944Y14140D01*
X23866Y14164D01*
D02*
G37*
G36*
X23566D02*
X23487Y14140D01*
X23384Y14085D01*
X23294Y14011D01*
X23220Y13920D01*
X23165Y13817D01*
X23141Y13739D01*
X23566D01*
Y14164D01*
D02*
G37*
G36*
X37650Y14936D02*
Y14207D01*
X38379D01*
X38376Y14232D01*
X38325Y14399D01*
X38243Y14554D01*
X38132Y14689D01*
X37996Y14800D01*
X37842Y14883D01*
X37674Y14934D01*
X37650Y14936D01*
D02*
G37*
G36*
X49800D02*
X49776Y14934D01*
X49608Y14883D01*
X49454Y14800D01*
X49318Y14689D01*
X49207Y14554D01*
X49125Y14399D01*
X49074Y14232D01*
X49071Y14207D01*
X49800D01*
Y14936D01*
D02*
G37*
G36*
X45650D02*
Y14207D01*
X46378D01*
X46376Y14232D01*
X46325Y14399D01*
X46243Y14554D01*
X46132Y14689D01*
X45996Y14800D01*
X45842Y14883D01*
X45674Y14934D01*
X45650Y14936D01*
D02*
G37*
G36*
X45350D02*
X45326Y14934D01*
X45158Y14883D01*
X45004Y14800D01*
X44868Y14689D01*
X44757Y14554D01*
X44675Y14399D01*
X44624Y14232D01*
X44622Y14207D01*
X45350D01*
Y14936D01*
D02*
G37*
G36*
X21645Y24753D02*
X21300D01*
Y24407D01*
X21645D01*
Y24753D01*
D02*
G37*
G36*
X47895Y24257D02*
X47550D01*
Y23912D01*
X47660Y23958D01*
X47767Y24040D01*
X47850Y24148D01*
X47895Y24257D01*
D02*
G37*
G36*
X47250D02*
X46905D01*
X46950Y24148D01*
X47033Y24040D01*
X47140Y23958D01*
X47250Y23912D01*
Y24257D01*
D02*
G37*
G36*
X25250Y24803D02*
X25140Y24757D01*
X25033Y24675D01*
X24950Y24567D01*
X24905Y24457D01*
X25250D01*
Y24803D01*
D02*
G37*
G36*
X47550Y24903D02*
Y24557D01*
X47895D01*
X47850Y24667D01*
X47767Y24775D01*
X47660Y24857D01*
X47550Y24903D01*
D02*
G37*
G36*
X47250D02*
X47140Y24857D01*
X47033Y24775D01*
X46950Y24667D01*
X46905Y24557D01*
X47250D01*
Y24903D01*
D02*
G37*
G36*
X25550Y24803D02*
Y24457D01*
X25895D01*
X25850Y24567D01*
X25767Y24675D01*
X25660Y24757D01*
X25550Y24803D01*
D02*
G37*
G36*
X35050Y23707D02*
X34921Y23690D01*
X34800Y23640D01*
X34697Y23561D01*
X34630Y23474D01*
X34470D01*
X34403Y23561D01*
X34300Y23640D01*
X34179Y23690D01*
X34050Y23707D01*
X33921Y23690D01*
X33800Y23640D01*
X33697Y23561D01*
X33630Y23474D01*
X33470D01*
X33403Y23561D01*
X33300Y23640D01*
X33179Y23690D01*
X33050Y23707D01*
X32921Y23690D01*
X32800Y23640D01*
X32697Y23561D01*
X32630Y23474D01*
X32470D01*
X32403Y23561D01*
X32300Y23640D01*
X32179Y23690D01*
X32050Y23707D01*
X31921Y23690D01*
X31800Y23640D01*
X31697Y23561D01*
X31630Y23474D01*
X31470D01*
X31403Y23561D01*
X31300Y23640D01*
X31179Y23690D01*
X31050Y23707D01*
X30921Y23690D01*
X30800Y23640D01*
X30697Y23561D01*
X30630Y23474D01*
X30470D01*
X30403Y23561D01*
X30300Y23640D01*
X30179Y23690D01*
X30050Y23707D01*
X29921Y23690D01*
X29800Y23640D01*
X29697Y23561D01*
X29545Y23677D01*
Y23703D01*
X28555D01*
Y22712D01*
X29545D01*
Y22738D01*
X29697Y22854D01*
X29800Y22775D01*
X29921Y22725D01*
X30050Y22708D01*
X30179Y22725D01*
X30300Y22775D01*
X30403Y22854D01*
X30470Y22941D01*
X30630D01*
X30697Y22854D01*
X30800Y22775D01*
X30921Y22725D01*
X31050Y22708D01*
X31179Y22725D01*
X31300Y22775D01*
X31403Y22854D01*
X31470Y22941D01*
X31630D01*
X31697Y22854D01*
X31800Y22775D01*
X31921Y22725D01*
X32050Y22708D01*
X32179Y22725D01*
X32300Y22775D01*
X32403Y22854D01*
X32470Y22941D01*
X32630D01*
X32697Y22854D01*
X32800Y22775D01*
X32921Y22725D01*
X33050Y22708D01*
X33179Y22725D01*
X33300Y22775D01*
X33403Y22854D01*
X33470Y22941D01*
X33630D01*
X33697Y22854D01*
X33800Y22775D01*
X33921Y22725D01*
X34050Y22708D01*
X34179Y22725D01*
X34300Y22775D01*
X34403Y22854D01*
X34470Y22941D01*
X34630D01*
X34697Y22854D01*
X34800Y22775D01*
X34921Y22725D01*
X35050Y22708D01*
X35179Y22725D01*
X35300Y22775D01*
X35403Y22854D01*
X35470Y22941D01*
X35630D01*
X35697Y22854D01*
X35800Y22775D01*
X35900Y22734D01*
Y23207D01*
Y23681D01*
X35800Y23640D01*
X35697Y23561D01*
X35630Y23474D01*
X35470D01*
X35403Y23561D01*
X35300Y23640D01*
X35179Y23690D01*
X35050Y23707D01*
D02*
G37*
G36*
X57250Y25201D02*
X57076Y25184D01*
X56908Y25133D01*
X56754Y25050D01*
X56618Y24939D01*
X56507Y24804D01*
X56425Y24649D01*
X56374Y24482D01*
X56357Y24307D01*
X56374Y24133D01*
X56425Y23966D01*
X56507Y23811D01*
X56618Y23676D01*
X56754Y23565D01*
X56908Y23482D01*
X57076Y23431D01*
X57250Y23414D01*
X57424Y23431D01*
X57592Y23482D01*
X57746Y23565D01*
X57882Y23676D01*
X57993Y23811D01*
X58075Y23966D01*
X58126Y24133D01*
X58143Y24307D01*
X58126Y24482D01*
X58075Y24649D01*
X57993Y24804D01*
X57882Y24939D01*
X57746Y25050D01*
X57592Y25133D01*
X57424Y25184D01*
X57250Y25201D01*
D02*
G37*
G36*
X47550Y23603D02*
Y23257D01*
X47895D01*
X47850Y23367D01*
X47767Y23475D01*
X47660Y23557D01*
X47550Y23603D01*
D02*
G37*
G36*
X22922Y24757D02*
X22792Y24740D01*
X22672Y24690D01*
X22568Y24611D01*
X22489Y24507D01*
X22439Y24387D01*
X22422Y24257D01*
X22439Y24128D01*
X22489Y24008D01*
X22568Y23904D01*
X22672Y23825D01*
X22792Y23775D01*
X22922Y23758D01*
X23051Y23775D01*
X23171Y23825D01*
X23275Y23904D01*
X23354Y24008D01*
X23404Y24128D01*
X23421Y24257D01*
X23404Y24387D01*
X23354Y24507D01*
X23275Y24611D01*
X23171Y24690D01*
X23051Y24740D01*
X22922Y24757D01*
D02*
G37*
G36*
X25895Y24157D02*
X25550D01*
Y23812D01*
X25660Y23858D01*
X25767Y23940D01*
X25850Y24048D01*
X25895Y24157D01*
D02*
G37*
G36*
X25250D02*
X24905D01*
X24950Y24048D01*
X25033Y23940D01*
X25140Y23858D01*
X25250Y23812D01*
Y24157D01*
D02*
G37*
G36*
X21645Y24107D02*
X21300D01*
Y23762D01*
X21645D01*
Y24107D01*
D02*
G37*
G36*
X39800Y29557D02*
X39450D01*
Y29037D01*
X39550Y29078D01*
X39653Y29157D01*
X39733Y29261D01*
X39783Y29381D01*
X39800Y29511D01*
Y29557D01*
D02*
G37*
G36*
X24150D02*
X23800D01*
Y29511D01*
X23817Y29381D01*
X23867Y29261D01*
X23947Y29157D01*
X24050Y29078D01*
X24150Y29037D01*
Y29557D01*
D02*
G37*
G36*
X57400Y29186D02*
Y28457D01*
X58128D01*
X58126Y28482D01*
X58075Y28649D01*
X57993Y28804D01*
X57882Y28939D01*
X57746Y29050D01*
X57592Y29133D01*
X57424Y29184D01*
X57400Y29186D01*
D02*
G37*
G36*
X24150Y30378D02*
X24050Y30337D01*
X23947Y30258D01*
X23867Y30154D01*
X23817Y30034D01*
X23800Y29904D01*
Y29857D01*
X24150D01*
Y30378D01*
D02*
G37*
G36*
X21950Y33170D02*
X21626D01*
X21667Y33071D01*
X21747Y32967D01*
X21850Y32888D01*
X21950Y32847D01*
Y33170D01*
D02*
G37*
G36*
X38300Y30404D02*
X38171Y30387D01*
X38050Y30337D01*
X37947Y30258D01*
X37880Y30171D01*
X37720D01*
X37653Y30258D01*
X37550Y30337D01*
X37429Y30387D01*
X37300Y30404D01*
X37171Y30387D01*
X37050Y30337D01*
X36947Y30258D01*
X36880Y30171D01*
X36720D01*
X36653Y30258D01*
X36550Y30337D01*
X36429Y30387D01*
X36300Y30404D01*
X36171Y30387D01*
X36050Y30337D01*
X35947Y30258D01*
X35880Y30171D01*
X35720D01*
X35653Y30258D01*
X35550Y30337D01*
X35429Y30387D01*
X35300Y30404D01*
X35171Y30387D01*
X35050Y30337D01*
X34947Y30258D01*
X34880Y30171D01*
X34720D01*
X34653Y30258D01*
X34550Y30337D01*
X34429Y30387D01*
X34300Y30404D01*
X34171Y30387D01*
X34050Y30337D01*
X33947Y30258D01*
X33880Y30171D01*
X33720D01*
X33653Y30258D01*
X33550Y30337D01*
X33429Y30387D01*
X33300Y30404D01*
X33171Y30387D01*
X33050Y30337D01*
X32947Y30258D01*
X32880Y30171D01*
X32720D01*
X32653Y30258D01*
X32550Y30337D01*
X32429Y30387D01*
X32300Y30404D01*
X32171Y30387D01*
X32050Y30337D01*
X31947Y30258D01*
X31880Y30171D01*
X31720D01*
X31653Y30258D01*
X31550Y30337D01*
X31429Y30387D01*
X31300Y30404D01*
X31171Y30387D01*
X31050Y30337D01*
X30947Y30258D01*
X30880Y30171D01*
X30720D01*
X30653Y30258D01*
X30550Y30337D01*
X30429Y30387D01*
X30300Y30404D01*
X30171Y30387D01*
X30050Y30337D01*
X29947Y30258D01*
X29880Y30171D01*
X29720D01*
X29653Y30258D01*
X29550Y30337D01*
X29429Y30387D01*
X29300Y30404D01*
X29171Y30387D01*
X29050Y30337D01*
X28947Y30258D01*
X28880Y30171D01*
X28720D01*
X28653Y30258D01*
X28550Y30337D01*
X28450Y30378D01*
Y29707D01*
Y29037D01*
X28550Y29078D01*
X28653Y29157D01*
X28720Y29244D01*
X28880D01*
X28947Y29157D01*
X29050Y29078D01*
X29171Y29028D01*
X29300Y29011D01*
X29429Y29028D01*
X29550Y29078D01*
X29653Y29157D01*
X29720Y29244D01*
X29880D01*
X29947Y29157D01*
X30050Y29078D01*
X30171Y29028D01*
X30300Y29011D01*
X30429Y29028D01*
X30550Y29078D01*
X30653Y29157D01*
X30720Y29244D01*
X30880D01*
X30947Y29157D01*
X31050Y29078D01*
X31171Y29028D01*
X31300Y29011D01*
X31429Y29028D01*
X31550Y29078D01*
X31653Y29157D01*
X31720Y29244D01*
X31880D01*
X31947Y29157D01*
X32050Y29078D01*
X32171Y29028D01*
X32300Y29011D01*
X32429Y29028D01*
X32550Y29078D01*
X32653Y29157D01*
X32720Y29244D01*
X32880D01*
X32947Y29157D01*
X33050Y29078D01*
X33171Y29028D01*
X33300Y29011D01*
X33429Y29028D01*
X33550Y29078D01*
X33653Y29157D01*
X33720Y29244D01*
X33880D01*
X33947Y29157D01*
X34050Y29078D01*
X34171Y29028D01*
X34300Y29011D01*
X34429Y29028D01*
X34550Y29078D01*
X34653Y29157D01*
X34720Y29244D01*
X34880D01*
X34947Y29157D01*
X35050Y29078D01*
X35171Y29028D01*
X35300Y29011D01*
X35429Y29028D01*
X35550Y29078D01*
X35653Y29157D01*
X35720Y29244D01*
X35880D01*
X35947Y29157D01*
X36050Y29078D01*
X36171Y29028D01*
X36300Y29011D01*
X36429Y29028D01*
X36550Y29078D01*
X36653Y29157D01*
X36720Y29244D01*
X36880D01*
X36947Y29157D01*
X37050Y29078D01*
X37171Y29028D01*
X37300Y29011D01*
X37429Y29028D01*
X37550Y29078D01*
X37653Y29157D01*
X37720Y29244D01*
X37880D01*
X37947Y29157D01*
X38050Y29078D01*
X38171Y29028D01*
X38300Y29011D01*
X38429Y29028D01*
X38550Y29078D01*
X38653Y29157D01*
X38720Y29244D01*
X38880D01*
X38947Y29157D01*
X39050Y29078D01*
X39150Y29037D01*
Y29707D01*
Y30378D01*
X39050Y30337D01*
X38947Y30258D01*
X38880Y30171D01*
X38720D01*
X38653Y30258D01*
X38550Y30337D01*
X38429Y30387D01*
X38300Y30404D01*
D02*
G37*
G36*
X39450Y30378D02*
Y29857D01*
X39800D01*
Y29904D01*
X39783Y30034D01*
X39733Y30154D01*
X39653Y30258D01*
X39550Y30337D01*
X39450Y30378D01*
D02*
G37*
G36*
X52290Y26937D02*
X52166Y26921D01*
X52050Y26873D01*
X51951Y26797D01*
X51875Y26697D01*
X51827Y26582D01*
X51810Y26457D01*
X51827Y26333D01*
X51875Y26218D01*
X51951Y26118D01*
X52050Y26042D01*
X52166Y25994D01*
X52290Y25978D01*
X52414Y25994D01*
X52530Y26042D01*
X52629Y26118D01*
X52705Y26218D01*
X52753Y26333D01*
X52770Y26457D01*
X52753Y26582D01*
X52705Y26697D01*
X52629Y26797D01*
X52530Y26873D01*
X52414Y26921D01*
X52290Y26937D01*
D02*
G37*
G36*
X49300D02*
X49176Y26921D01*
X49060Y26873D01*
X48961Y26797D01*
X48885Y26697D01*
X48837Y26582D01*
X48820Y26457D01*
X48837Y26333D01*
X48885Y26218D01*
X48961Y26118D01*
X49060Y26042D01*
X49176Y25994D01*
X49300Y25978D01*
X49424Y25994D01*
X49540Y26042D01*
X49639Y26118D01*
X49715Y26218D01*
X49763Y26333D01*
X49780Y26457D01*
X49763Y26582D01*
X49715Y26697D01*
X49639Y26797D01*
X49540Y26873D01*
X49424Y26921D01*
X49300Y26937D01*
D02*
G37*
G36*
X57250Y27201D02*
X57076Y27184D01*
X56908Y27133D01*
X56754Y27050D01*
X56618Y26939D01*
X56507Y26804D01*
X56425Y26649D01*
X56374Y26482D01*
X56357Y26307D01*
X56374Y26133D01*
X56425Y25966D01*
X56507Y25811D01*
X56618Y25676D01*
X56754Y25565D01*
X56908Y25482D01*
X57076Y25431D01*
X57250Y25414D01*
X57424Y25431D01*
X57592Y25482D01*
X57746Y25565D01*
X57882Y25676D01*
X57993Y25811D01*
X58075Y25966D01*
X58126Y26133D01*
X58143Y26307D01*
X58126Y26482D01*
X58075Y26649D01*
X57993Y26804D01*
X57882Y26939D01*
X57746Y27050D01*
X57592Y27133D01*
X57424Y27184D01*
X57250Y27201D01*
D02*
G37*
G36*
X42050Y26707D02*
X41921Y26690D01*
X41800Y26640D01*
X41697Y26561D01*
X41630Y26474D01*
X41470D01*
X41403Y26561D01*
X41300Y26640D01*
X41179Y26690D01*
X41050Y26707D01*
X40921Y26690D01*
X40800Y26640D01*
X40697Y26561D01*
X40630Y26474D01*
X40470D01*
X40403Y26561D01*
X40300Y26640D01*
X40179Y26690D01*
X40050Y26707D01*
X39921Y26690D01*
X39800Y26640D01*
X39697Y26561D01*
X39630Y26474D01*
X39470D01*
X39403Y26561D01*
X39300Y26640D01*
X39179Y26690D01*
X39050Y26707D01*
X38921Y26690D01*
X38800Y26640D01*
X38697Y26561D01*
X38630Y26474D01*
X38470D01*
X38403Y26561D01*
X38300Y26640D01*
X38200Y26681D01*
Y26207D01*
Y25734D01*
X38300Y25775D01*
X38403Y25854D01*
X38470Y25941D01*
X38630D01*
X38697Y25854D01*
X38800Y25775D01*
X38921Y25725D01*
X39050Y25708D01*
X39179Y25725D01*
X39300Y25775D01*
X39403Y25854D01*
X39470Y25941D01*
X39630D01*
X39697Y25854D01*
X39800Y25775D01*
X39921Y25725D01*
X40050Y25708D01*
X40179Y25725D01*
X40300Y25775D01*
X40403Y25854D01*
X40470Y25941D01*
X40630D01*
X40697Y25854D01*
X40800Y25775D01*
X40921Y25725D01*
X41050Y25708D01*
X41179Y25725D01*
X41300Y25775D01*
X41403Y25854D01*
X41470Y25941D01*
X41630D01*
X41697Y25854D01*
X41800Y25775D01*
X41921Y25725D01*
X42050Y25708D01*
X42139Y25720D01*
X42650Y25208D01*
X42709Y25163D01*
X42757Y25143D01*
X42777Y25135D01*
X42850Y25125D01*
X53283D01*
X55018Y23391D01*
Y21907D01*
X55027Y21834D01*
X55035Y21814D01*
X55055Y21766D01*
X55100Y21708D01*
X56504Y20304D01*
X56475Y20249D01*
X56424Y20082D01*
X56407Y19907D01*
X56424Y19733D01*
X56475Y19566D01*
X56557Y19411D01*
X56668Y19276D01*
X56804Y19165D01*
X56958Y19082D01*
X57126Y19031D01*
X57300Y19014D01*
X57474Y19031D01*
X57642Y19082D01*
X57796Y19165D01*
X57932Y19276D01*
X58043Y19411D01*
X58125Y19566D01*
X58176Y19733D01*
X58193Y19907D01*
X58176Y20082D01*
X58125Y20249D01*
X58043Y20404D01*
X57932Y20539D01*
X57796Y20650D01*
X57642Y20733D01*
X57474Y20784D01*
X57300Y20801D01*
X57126Y20784D01*
X56958Y20733D01*
X56903Y20703D01*
X55582Y22024D01*
Y23507D01*
X55573Y23581D01*
X55565Y23601D01*
X55545Y23649D01*
X55500Y23707D01*
X53600Y25607D01*
X53541Y25652D01*
X53493Y25672D01*
X53473Y25680D01*
X53400Y25690D01*
X42967D01*
X42538Y26119D01*
X42550Y26207D01*
X42533Y26337D01*
X42483Y26457D01*
X42403Y26561D01*
X42300Y26640D01*
X42179Y26690D01*
X42050Y26707D01*
D02*
G37*
G36*
X57100Y29186D02*
X57076Y29184D01*
X56908Y29133D01*
X56754Y29050D01*
X56618Y28939D01*
X56507Y28804D01*
X56425Y28649D01*
X56374Y28482D01*
X56371Y28457D01*
X57100D01*
Y29186D01*
D02*
G37*
G36*
X58128Y28157D02*
X57400D01*
Y27429D01*
X57424Y27431D01*
X57592Y27482D01*
X57746Y27565D01*
X57882Y27676D01*
X57993Y27811D01*
X58075Y27966D01*
X58126Y28133D01*
X58128Y28157D01*
D02*
G37*
G36*
X57100D02*
X56371D01*
X56374Y28133D01*
X56425Y27966D01*
X56507Y27811D01*
X56618Y27676D01*
X56754Y27565D01*
X56908Y27482D01*
X57076Y27431D01*
X57100Y27429D01*
Y28157D01*
D02*
G37*
G36*
X47250Y23603D02*
X47140Y23557D01*
X47033Y23475D01*
X46950Y23367D01*
X46905Y23257D01*
X47250D01*
Y23603D01*
D02*
G37*
G36*
X28200Y21407D02*
X28071Y21390D01*
X27950Y21340D01*
X27912Y21311D01*
X27300D01*
X27300Y21311D01*
X27196Y21297D01*
X27098Y21257D01*
X27015Y21193D01*
X27015Y21193D01*
X25399Y19577D01*
X25335Y19493D01*
X25295Y19396D01*
X25281Y19292D01*
X25281Y19292D01*
Y16023D01*
X25130Y15969D01*
X25122Y15979D01*
X25031Y16054D01*
X24928Y16109D01*
X24816Y16143D01*
X24700Y16154D01*
X24584Y16143D01*
X24472Y16109D01*
X24369Y16054D01*
X24278Y15979D01*
X24204Y15889D01*
X24149Y15786D01*
X24115Y15674D01*
X24103Y15557D01*
X24115Y15441D01*
X24149Y15329D01*
X24204Y15226D01*
X24278Y15136D01*
X24369Y15061D01*
X24472Y15006D01*
X24584Y14972D01*
X24700Y14961D01*
X24816Y14972D01*
X24928Y15006D01*
X25031Y15061D01*
X25122Y15136D01*
X25130Y15146D01*
X25281Y15092D01*
Y14026D01*
X25262Y14011D01*
X25188Y13920D01*
X25133Y13817D01*
X25099Y13705D01*
X25088Y13589D01*
X25099Y13473D01*
X25133Y13361D01*
X25188Y13258D01*
X25262Y13167D01*
X25353Y13093D01*
X25456Y13038D01*
X25568Y13004D01*
X25684Y12992D01*
X25801Y13004D01*
X25913Y13038D01*
X26016Y13093D01*
X26106Y13167D01*
X26180Y13258D01*
X26235Y13361D01*
X26269Y13473D01*
X26281Y13589D01*
X26269Y13705D01*
X26235Y13817D01*
X26180Y13920D01*
X26106Y14011D01*
X26088Y14026D01*
Y19125D01*
X27467Y20504D01*
X27912D01*
X27950Y20475D01*
X28071Y20425D01*
X28200Y20408D01*
X28329Y20425D01*
X28450Y20475D01*
X28553Y20554D01*
X28620Y20641D01*
X28780D01*
X28847Y20554D01*
X28950Y20475D01*
X29050Y20434D01*
Y20907D01*
Y21381D01*
X28950Y21340D01*
X28847Y21261D01*
X28780Y21174D01*
X28620D01*
X28553Y21261D01*
X28450Y21340D01*
X28329Y21390D01*
X28200Y21407D01*
D02*
G37*
G36*
X21624Y21548D02*
X21300D01*
Y21224D01*
X21400Y21266D01*
X21503Y21345D01*
X21583Y21449D01*
X21624Y21548D01*
D02*
G37*
G36*
X21000D02*
X20676D01*
X20717Y21449D01*
X20797Y21345D01*
X20900Y21266D01*
X21000Y21224D01*
Y21548D01*
D02*
G37*
G36*
X41550Y21757D02*
X41205D01*
X41250Y21648D01*
X41333Y21540D01*
X41440Y21458D01*
X41550Y21412D01*
Y21757D01*
D02*
G37*
G36*
X44595D02*
X44250D01*
Y21412D01*
X44360Y21458D01*
X44467Y21540D01*
X44550Y21648D01*
X44595Y21757D01*
D02*
G37*
G36*
X43950D02*
X43605D01*
X43650Y21648D01*
X43733Y21540D01*
X43840Y21458D01*
X43950Y21412D01*
Y21757D01*
D02*
G37*
G36*
X42195D02*
X41850D01*
Y21412D01*
X41960Y21458D01*
X42067Y21540D01*
X42150Y21648D01*
X42195Y21757D01*
D02*
G37*
G36*
X31050Y21381D02*
X30950Y21340D01*
X30847Y21261D01*
X30780Y21174D01*
X30620D01*
X30553Y21261D01*
X30450Y21340D01*
X30350Y21381D01*
Y20907D01*
Y20434D01*
X30450Y20475D01*
X30553Y20554D01*
X30620Y20641D01*
X30780D01*
X30847Y20554D01*
X30950Y20475D01*
X31050Y20434D01*
Y20907D01*
Y21381D01*
D02*
G37*
G36*
X30050D02*
X29950Y21340D01*
X29847Y21261D01*
X29780Y21174D01*
X29620D01*
X29553Y21261D01*
X29450Y21340D01*
X29350Y21381D01*
Y20907D01*
Y20434D01*
X29450Y20475D01*
X29553Y20554D01*
X29620Y20641D01*
X29780D01*
X29847Y20554D01*
X29950Y20475D01*
X30050Y20434D01*
Y20907D01*
Y21381D01*
D02*
G37*
G36*
X34350D02*
Y21057D01*
X34674D01*
X34633Y21157D01*
X34553Y21261D01*
X34450Y21340D01*
X34350Y21381D01*
D02*
G37*
G36*
X32050D02*
X31950Y21340D01*
X31847Y21261D01*
X31780Y21174D01*
X31620D01*
X31553Y21261D01*
X31450Y21340D01*
X31350Y21381D01*
Y20907D01*
Y20434D01*
X31450Y20475D01*
X31553Y20554D01*
X31620Y20641D01*
X31780D01*
X31847Y20554D01*
X31950Y20475D01*
X32050Y20434D01*
Y20907D01*
Y21381D01*
D02*
G37*
G36*
X22922Y22198D02*
X22792Y22181D01*
X22672Y22131D01*
X22568Y22052D01*
X22489Y21948D01*
X22439Y21828D01*
X22422Y21698D01*
X22439Y21569D01*
X22489Y21449D01*
X22568Y21345D01*
X22672Y21266D01*
X22792Y21216D01*
X22922Y21199D01*
X23051Y21216D01*
X23171Y21266D01*
X23275Y21345D01*
X23354Y21449D01*
X23404Y21569D01*
X23421Y21698D01*
X23404Y21828D01*
X23354Y21948D01*
X23275Y22052D01*
X23171Y22131D01*
X23051Y22181D01*
X22922Y22198D01*
D02*
G37*
G36*
X34050Y21381D02*
X33950Y21340D01*
X33847Y21261D01*
X33780Y21174D01*
X33620D01*
X33553Y21261D01*
X33450Y21340D01*
X33350Y21381D01*
Y20907D01*
Y20434D01*
X33450Y20475D01*
X33553Y20554D01*
X33620Y20641D01*
X33780D01*
X33847Y20554D01*
X33950Y20475D01*
X34050Y20434D01*
Y20907D01*
Y21381D01*
D02*
G37*
G36*
X33050D02*
X32950Y21340D01*
X32847Y21261D01*
X32780Y21174D01*
X32620D01*
X32553Y21261D01*
X32450Y21340D01*
X32350Y21381D01*
Y20907D01*
Y20434D01*
X32450Y20475D01*
X32553Y20554D01*
X32620Y20641D01*
X32780D01*
X32847Y20554D01*
X32950Y20475D01*
X33050Y20434D01*
Y20907D01*
Y21381D01*
D02*
G37*
G36*
X24995Y22557D02*
X24650D01*
Y22212D01*
X24760Y22258D01*
X24867Y22340D01*
X24950Y22448D01*
X24995Y22557D01*
D02*
G37*
G36*
X24350D02*
X24005D01*
X24050Y22448D01*
X24133Y22340D01*
X24240Y22258D01*
X24350Y22212D01*
Y22557D01*
D02*
G37*
G36*
X44250Y22403D02*
Y22057D01*
X44595D01*
X44550Y22167D01*
X44467Y22275D01*
X44360Y22357D01*
X44250Y22403D01*
D02*
G37*
G36*
X47250Y22957D02*
X46905D01*
X46950Y22848D01*
X47033Y22740D01*
X47140Y22658D01*
X47250Y22612D01*
Y22957D01*
D02*
G37*
G36*
X24650Y23203D02*
Y22857D01*
X24995D01*
X24950Y22967D01*
X24867Y23075D01*
X24760Y23157D01*
X24650Y23203D01*
D02*
G37*
G36*
X24350D02*
X24240Y23157D01*
X24133Y23075D01*
X24050Y22967D01*
X24005Y22857D01*
X24350D01*
Y23203D01*
D02*
G37*
G36*
X47895Y22957D02*
X47550D01*
Y22612D01*
X47660Y22658D01*
X47767Y22740D01*
X47850Y22848D01*
X47895Y22957D01*
D02*
G37*
G36*
X21000Y22172D02*
X20900Y22131D01*
X20797Y22052D01*
X20717Y21948D01*
X20676Y21848D01*
X21000D01*
Y22172D01*
D02*
G37*
G36*
X24650Y21803D02*
Y21457D01*
X24995D01*
X24950Y21567D01*
X24867Y21675D01*
X24760Y21757D01*
X24650Y21803D01*
D02*
G37*
G36*
X24350D02*
X24240Y21757D01*
X24133Y21675D01*
X24050Y21567D01*
X24005Y21457D01*
X24350D01*
Y21803D01*
D02*
G37*
G36*
X21300Y22172D02*
Y21848D01*
X21624D01*
X21583Y21948D01*
X21503Y22052D01*
X21400Y22131D01*
X21300Y22172D01*
D02*
G37*
G36*
X43950Y22403D02*
X43840Y22357D01*
X43733Y22275D01*
X43650Y22167D01*
X43605Y22057D01*
X43950D01*
Y22403D01*
D02*
G37*
G36*
X41850D02*
Y22057D01*
X42195D01*
X42150Y22167D01*
X42067Y22275D01*
X41960Y22357D01*
X41850Y22403D01*
D02*
G37*
G36*
X41550D02*
X41440Y22357D01*
X41333Y22275D01*
X41250Y22167D01*
X41205Y22057D01*
X41550D01*
Y22403D01*
D02*
G37*
%LPD*%
D25*
X43500Y12827D02*
Y14057D01*
X42830Y12157D02*
X43500Y12827D01*
X35180Y12157D02*
X42830D01*
X34520Y12817D02*
X35180Y12157D01*
X34520Y12817D02*
Y15127D01*
X33200Y16447D02*
X34520Y15127D01*
X33200Y16447D02*
Y17907D01*
X32200D02*
X33200D01*
X39050Y23207D02*
Y23647D01*
X38290Y24407D02*
X39050Y23647D01*
X35500Y24407D02*
X38290D01*
X36050Y26207D02*
Y26907D01*
X35650Y27307D02*
X36050Y26907D01*
X23000Y27307D02*
X35650D01*
X22200Y27157D02*
X24000Y25357D01*
X34550D01*
X35500Y24407D01*
X23100Y32507D02*
Y33320D01*
X22150Y31557D02*
X23100Y32507D01*
X22150Y28157D02*
Y31557D01*
Y28157D02*
X23000Y27307D01*
X47950Y14057D02*
Y14107D01*
X45350Y16707D02*
X47950Y14107D01*
X29100Y32907D02*
X41150D01*
X27250Y34757D02*
X29100Y32907D01*
X23700Y34757D02*
X27250D01*
X23100Y30907D02*
X24900D01*
X25300Y30507D01*
Y29707D02*
Y30507D01*
X23100Y35357D02*
X23700Y34757D01*
X23100Y35357D02*
Y36320D01*
D26*
X43803Y39705D02*
Y43157D01*
Y39705D02*
X44706Y38801D01*
X46031D01*
X51847Y43157D02*
X53853D01*
X41797D02*
X43803D01*
X55845Y41166D02*
X57250D01*
X53853Y43157D02*
X55845Y41166D01*
X57250Y35260D02*
Y38213D01*
X57051Y38014D02*
X57250Y38213D01*
D27*
X41797Y40705D02*
Y43157D01*
X41035Y39942D02*
X41797Y40705D01*
X40068Y39942D02*
X41035D01*
X40068Y36926D02*
Y39942D01*
X39750Y36607D02*
X40068Y36926D01*
X38900Y42107D02*
X40068D01*
X37903Y41110D02*
X38900Y42107D01*
X37903Y34257D02*
Y41110D01*
X55600Y32307D02*
X56900D01*
X53300Y34607D02*
X55600Y32307D01*
X35750Y35107D02*
Y36607D01*
X34900Y34257D02*
X35750Y35107D01*
X31997Y34257D02*
X34900D01*
X41050Y34607D02*
X53300D01*
X40700Y34257D02*
X41050Y34607D01*
X37903Y34257D02*
X40700D01*
X49969Y38014D02*
X57051D01*
D29*
X25684Y13589D02*
Y19292D01*
X27300Y20907D01*
X28200D01*
D30*
X39550Y19167D02*
Y23747D01*
X38980Y18597D02*
X39550Y19167D01*
X31430Y18597D02*
X38980D01*
X31200Y17907D02*
Y18367D01*
X31430Y18597D01*
X38540Y24757D02*
X39550Y23747D01*
X35050Y25407D02*
Y26207D01*
Y25407D02*
X35700Y24757D01*
X38540D01*
X40050Y15507D02*
X41500Y14057D01*
X40050Y15507D02*
Y23207D01*
X39550Y23747D02*
X40160Y24357D01*
X42050Y26207D02*
X42850Y25407D01*
X53400D01*
X55300Y23507D01*
Y21907D02*
Y23507D01*
Y21907D02*
X57300Y19907D01*
D33*
X20200Y10107D02*
Y45541D01*
X59570D01*
Y10107D02*
Y45541D01*
X20200Y10107D02*
X59570D01*
D34*
X31702Y42107D02*
D03*
X25797D02*
D03*
X22180Y17497D02*
D03*
X51710Y17492D02*
D03*
D35*
X40068Y42107D02*
D03*
Y39942D02*
D03*
Y44273D02*
D03*
D36*
X32300Y29707D02*
D03*
X33300D02*
D03*
X31300D02*
D03*
X30300D02*
D03*
X24300D02*
D03*
X25300D02*
D03*
X26300D02*
D03*
X27300D02*
D03*
X28300D02*
D03*
X29300D02*
D03*
X34300D02*
D03*
X35300D02*
D03*
X36300D02*
D03*
X37300D02*
D03*
X38300D02*
D03*
X39300D02*
D03*
D37*
X37903Y34257D02*
D03*
X31997D02*
D03*
D38*
X49300Y26457D02*
D03*
X52290D02*
D03*
X40160Y24357D02*
D03*
D39*
X28200Y17907D02*
D03*
D40*
X29200D02*
D03*
X30200D02*
D03*
X31200D02*
D03*
X32200D02*
D03*
X33200D02*
D03*
X34200D02*
D03*
X28200Y20907D02*
D03*
X29200D02*
D03*
X30200D02*
D03*
X31200D02*
D03*
X32200D02*
D03*
X33200D02*
D03*
X34200D02*
D03*
X21150Y21698D02*
D03*
X22922Y24257D02*
D03*
D41*
X47950Y14057D02*
D03*
X49950D02*
D03*
X33500D02*
D03*
X31500D02*
D03*
X35500D02*
D03*
X41500D02*
D03*
X37500D02*
D03*
X39500D02*
D03*
X43500D02*
D03*
X45500D02*
D03*
X57250Y26307D02*
D03*
Y24307D02*
D03*
Y28307D02*
D03*
Y41166D02*
D03*
Y38213D02*
D03*
Y32307D02*
D03*
Y35260D02*
D03*
X57300Y21907D02*
D03*
Y19907D02*
D03*
Y15907D02*
D03*
Y17907D02*
D03*
D42*
X22100Y33320D02*
D03*
X23100D02*
D03*
X22100Y36320D02*
D03*
X26100Y33420D02*
D03*
X27100D02*
D03*
X25100Y36420D02*
D03*
X26100D02*
D03*
X27100D02*
D03*
X42050Y26207D02*
D03*
X41050D02*
D03*
X40050D02*
D03*
X39050D02*
D03*
X38050D02*
D03*
X37050D02*
D03*
X36050D02*
D03*
X35050D02*
D03*
X34050D02*
D03*
X33050D02*
D03*
X32050D02*
D03*
X31050D02*
D03*
X30050D02*
D03*
X29050D02*
D03*
X42050Y23207D02*
D03*
X41050D02*
D03*
X40050D02*
D03*
X39050D02*
D03*
X38050D02*
D03*
X37050D02*
D03*
X36050D02*
D03*
X35050D02*
D03*
X34050D02*
D03*
X33050D02*
D03*
X32050D02*
D03*
X31050D02*
D03*
X30050D02*
D03*
X22922Y21698D02*
D03*
D43*
X23100Y36320D02*
D03*
X25100Y33420D02*
D03*
X29050Y23207D02*
D03*
X21150Y24257D02*
D03*
D44*
X36550Y21507D02*
D03*
X38550D02*
D03*
D45*
X25684Y13589D02*
D03*
X23716D02*
D03*
X24700Y15557D02*
D03*
X41150Y32907D02*
D03*
X45150D02*
D03*
D46*
X35750Y36607D02*
D03*
X39750D02*
D03*
X28150Y14707D02*
D03*
X27150D02*
D03*
X44100Y18907D02*
D03*
Y21907D02*
D03*
X41700Y18907D02*
D03*
Y21907D02*
D03*
X42900Y20307D02*
D03*
X25400Y24307D02*
D03*
X24500Y21307D02*
D03*
Y22707D02*
D03*
X45350Y16707D02*
D03*
X23100Y30907D02*
D03*
X49000Y20407D02*
D03*
X50400D02*
D03*
X47400Y23107D02*
D03*
Y24407D02*
D03*
D47*
X46031Y38801D02*
D03*
X49969Y38014D02*
D03*
D48*
X53800Y14001D02*
D03*
D49*
Y13214D02*
D03*
D50*
X41847Y43157D02*
D03*
X43853D02*
D03*
X51847D02*
D03*
X53853D02*
D03*
D51*
X29150Y14707D02*
D03*
D52*
X22200Y27157D02*
D03*
D53*
X21775Y11682D02*
D03*
X57995D02*
D03*
Y43966D02*
D03*
X21775D02*
D03*
M02*
