%FSLAX24Y24*%
%MOIN*%
G70*
G01*
G75*
G04 Layer_Color=16711935*
%ADD10R,0.0630X0.0709*%
%ADD11R,0.1378X0.0640*%
%ADD12R,0.0709X0.0630*%
%ADD13R,0.0472X0.0551*%
%ADD14R,0.0551X0.0591*%
%ADD15R,0.0591X0.0551*%
%ADD16R,0.0551X0.0472*%
%ADD17R,0.1339X0.0394*%
%ADD18R,0.3386X0.4213*%
%ADD19R,0.0512X0.1024*%
%ADD20R,0.0591X0.0472*%
%ADD21R,0.0360X0.0360*%
%ADD22R,0.0360X0.0500*%
%ADD23R,0.0360X0.0360*%
%ADD24R,0.0500X0.0360*%
%ADD25C,0.0240*%
%ADD26C,0.1400*%
%ADD27C,0.1000*%
%ADD28C,0.0600*%
%ADD29C,0.0400*%
%ADD30C,0.0160*%
%ADD31C,0.0500*%
%ADD32C,0.0800*%
%ADD33C,0.0197*%
%ADD34C,0.1575*%
G04:AMPARAMS|DCode=35|XSize=78.7mil|YSize=118.1mil|CornerRadius=0mil|HoleSize=0mil|Usage=FLASHONLY|Rotation=90.000|XOffset=0mil|YOffset=0mil|HoleType=Round|Shape=Octagon|*
%AMOCTAGOND35*
4,1,8,-0.0591,-0.0197,-0.0591,0.0197,-0.0394,0.0394,0.0394,0.0394,0.0591,0.0197,0.0591,-0.0197,0.0394,-0.0394,-0.0394,-0.0394,-0.0591,-0.0197,0.0*
%
%ADD35OCTAGOND35*%

%ADD36O,0.0591X0.0984*%
%ADD37C,0.0984*%
%ADD38C,0.0551*%
%ADD39R,0.0591X0.0591*%
%ADD40C,0.0591*%
%ADD41C,0.1378*%
%ADD42C,0.0591*%
%ADD43R,0.0591X0.0591*%
%ADD44O,0.0620X0.1181*%
%ADD45C,0.0787*%
%ADD46C,0.0630*%
%ADD47O,0.0787X0.1181*%
%ADD48R,0.0433X0.0433*%
%ADD49C,0.0433*%
%ADD50O,0.0866X0.1260*%
%ADD51P,0.0682X8X202.5*%
%ADD52C,0.0500*%
%ADD53C,0.1969*%
%ADD54C,0.0100*%
%ADD55C,0.0079*%
%ADD56C,0.0236*%
%ADD57C,0.0098*%
%ADD58C,0.0080*%
%ADD59C,0.0120*%
%ADD60C,0.0070*%
%ADD61C,0.0050*%
%ADD62R,0.0710X0.0789*%
%ADD63R,0.1458X0.0720*%
%ADD64R,0.0789X0.0710*%
%ADD65R,0.0552X0.0631*%
%ADD66R,0.0631X0.0671*%
%ADD67R,0.0671X0.0631*%
%ADD68R,0.0631X0.0552*%
%ADD69R,0.1419X0.0474*%
%ADD70R,0.3466X0.4293*%
%ADD71R,0.0592X0.1104*%
%ADD72R,0.0671X0.0552*%
%ADD73R,0.0440X0.0440*%
%ADD74R,0.0440X0.0580*%
%ADD75R,0.0440X0.0440*%
%ADD76R,0.0580X0.0440*%
%ADD77C,0.1655*%
G04:AMPARAMS|DCode=78|XSize=86.7mil|YSize=126.1mil|CornerRadius=0mil|HoleSize=0mil|Usage=FLASHONLY|Rotation=90.000|XOffset=0mil|YOffset=0mil|HoleType=Round|Shape=Octagon|*
%AMOCTAGOND78*
4,1,8,-0.0631,-0.0217,-0.0631,0.0217,-0.0414,0.0434,0.0414,0.0434,0.0631,0.0217,0.0631,-0.0217,0.0414,-0.0434,-0.0414,-0.0434,-0.0631,-0.0217,0.0*
%
%ADD78OCTAGOND78*%

%ADD79O,0.0671X0.1064*%
%ADD80C,0.1064*%
%ADD81C,0.0631*%
%ADD82R,0.0671X0.0671*%
%ADD83C,0.0671*%
%ADD84C,0.1458*%
%ADD85C,0.0671*%
%ADD86R,0.0671X0.0671*%
%ADD87O,0.0700X0.1261*%
%ADD88C,0.0867*%
%ADD89C,0.0710*%
%ADD90O,0.0867X0.1261*%
%ADD91R,0.0513X0.0513*%
%ADD92C,0.0513*%
%ADD93O,0.0946X0.1340*%
%ADD94P,0.0768X8X202.5*%
%ADD95C,0.0580*%
%ADD96C,0.2049*%
D33*
X20200Y10107D02*
Y45541D01*
X59570D01*
Y10107D02*
Y45541D01*
X20200Y10107D02*
X59570D01*
D77*
X31702Y42107D02*
D03*
X25797D02*
D03*
X22180Y17497D02*
D03*
X51710Y17492D02*
D03*
D78*
X40068Y42107D02*
D03*
Y39942D02*
D03*
Y44273D02*
D03*
D79*
X32300Y29707D02*
D03*
X33300D02*
D03*
X31300D02*
D03*
X30300D02*
D03*
X24300D02*
D03*
X25300D02*
D03*
X26300D02*
D03*
X27300D02*
D03*
X28300D02*
D03*
X29300D02*
D03*
X34300D02*
D03*
X35300D02*
D03*
X36300D02*
D03*
X37300D02*
D03*
X38300D02*
D03*
X39300D02*
D03*
D80*
X37903Y34257D02*
D03*
X31997D02*
D03*
D81*
X49300Y26457D02*
D03*
X52290D02*
D03*
X40160Y24357D02*
D03*
D82*
X28200Y17907D02*
D03*
D83*
X29200D02*
D03*
X30200D02*
D03*
X31200D02*
D03*
X32200D02*
D03*
X33200D02*
D03*
X34200D02*
D03*
X28200Y20907D02*
D03*
X29200D02*
D03*
X30200D02*
D03*
X31200D02*
D03*
X32200D02*
D03*
X33200D02*
D03*
X34200D02*
D03*
X21150Y21698D02*
D03*
X22922Y24257D02*
D03*
D84*
X47950Y14057D02*
D03*
X49950D02*
D03*
X33500D02*
D03*
X31500D02*
D03*
X35500D02*
D03*
X41500D02*
D03*
X37500D02*
D03*
X39500D02*
D03*
X43500D02*
D03*
X45500D02*
D03*
X57250Y26307D02*
D03*
Y24307D02*
D03*
Y28307D02*
D03*
Y41166D02*
D03*
Y38213D02*
D03*
Y32307D02*
D03*
Y35260D02*
D03*
X57300Y21907D02*
D03*
Y19907D02*
D03*
Y15907D02*
D03*
Y17907D02*
D03*
D85*
X22100Y33320D02*
D03*
X23100D02*
D03*
X22100Y36320D02*
D03*
X26100Y33420D02*
D03*
X27100D02*
D03*
X25100Y36420D02*
D03*
X26100D02*
D03*
X27100D02*
D03*
X42050Y26207D02*
D03*
X41050D02*
D03*
X40050D02*
D03*
X39050D02*
D03*
X38050D02*
D03*
X37050D02*
D03*
X36050D02*
D03*
X35050D02*
D03*
X34050D02*
D03*
X33050D02*
D03*
X32050D02*
D03*
X31050D02*
D03*
X30050D02*
D03*
X29050D02*
D03*
X42050Y23207D02*
D03*
X41050D02*
D03*
X40050D02*
D03*
X39050D02*
D03*
X38050D02*
D03*
X37050D02*
D03*
X36050D02*
D03*
X35050D02*
D03*
X34050D02*
D03*
X33050D02*
D03*
X32050D02*
D03*
X31050D02*
D03*
X30050D02*
D03*
X22922Y21698D02*
D03*
D86*
X23100Y36320D02*
D03*
X25100Y33420D02*
D03*
X29050Y23207D02*
D03*
X21150Y24257D02*
D03*
D87*
X36550Y21507D02*
D03*
X38550D02*
D03*
D88*
X25684Y13589D02*
D03*
X23716D02*
D03*
X24700Y15557D02*
D03*
X41150Y32907D02*
D03*
X45150D02*
D03*
D89*
X35750Y36607D02*
D03*
X39750D02*
D03*
X28150Y14707D02*
D03*
X27150D02*
D03*
X44100Y18907D02*
D03*
Y21907D02*
D03*
X41700Y18907D02*
D03*
Y21907D02*
D03*
X42900Y20307D02*
D03*
X25400Y24307D02*
D03*
X24500Y21307D02*
D03*
Y22707D02*
D03*
X45350Y16707D02*
D03*
X23100Y30907D02*
D03*
X49000Y20407D02*
D03*
X50400D02*
D03*
X47400Y23107D02*
D03*
Y24407D02*
D03*
D90*
X46031Y38801D02*
D03*
X49969Y38014D02*
D03*
D91*
X53800Y14001D02*
D03*
D92*
Y13214D02*
D03*
D93*
X41847Y43157D02*
D03*
X43853D02*
D03*
X51847D02*
D03*
X53853D02*
D03*
D94*
X29150Y14707D02*
D03*
D95*
X22200Y27157D02*
D03*
D96*
X21775Y11682D02*
D03*
X57995D02*
D03*
Y43966D02*
D03*
X21775D02*
D03*
M02*
