M48
;Layer_Color=9474304
;FILE_FORMAT=2:4
INCH,TZ
;TYPE=PLATED
T1F00S00C0.0236
T2F00S00C0.0315
T3F00S00C0.0335
T4F00S00C0.0350
T5F00S00C0.0354
T6F00S00C0.0394
T7F00S00C0.0433
T8F00S00C0.0472
T9F00S00C0.0512
T10F00S00C0.0591
T11F00S00C0.1181
T12F00S00C0.1378
T13F00S00C0.1575
%
T01
X53800Y13214
Y14001
T02
X49000Y20407
X50400
X47400Y23107
Y24407
X44100Y21907
X41700
X42900Y20307
X44100Y18907
X41700
X45350Y16707
X40160Y24357
X25400Y24307
X24500Y22707
Y21307
X22200Y27157
X23100Y30907
X35750Y36607
X39750
T03
X49300Y26457
X52290
T04
X36550Y21507
X38550
T05
X32200Y17907
X33200
X34200
Y20907
X33200
X32200
X32050Y23207
X33050
X34050
X35050
X36050
X37050
X38050
X39050
X40050
X41050
X42050
Y26207
X41050
X40050
X39050
X38050
X37050
X36050
X35050
X34050
X33050
X32050
X32300Y29707
X33300
X34300
X35300
X36300
X37300
X38300
X39300
X31300
X30300
X29300
X28300
X27300
X26300
X25300
X24300
X29050Y26207
X30050
X31050
Y23207
X30050
X29050
X29200Y20907
X28200
X30200
X31200
Y17907
X30200
X29200
X28200
X27100Y33420
X26100
X25100
X23100Y33320
X22100
Y36320
X23100
X25100Y36420
X26100
X27100
T06
X27150Y14707
X28150
X29150
X22922Y21698
X21150Y21698
Y24257
X22922
X41150Y32907
X45150
T07
X23716Y13589
X25684
X24700Y15557
T08
X31997Y34257
X37903
X46031Y38801
X49969Y38014
T09
X40068Y39942
Y42107
Y44273
T10
X31500Y14057
X33500
X35500
X37500
X39500
X41500
X43500
X45500
X47950
X49950
X57300Y15907
Y17907
Y19907
Y21907
X57250Y24307
Y26307
Y28307
X43853Y43157
X41847
X51847
X53853
X57250Y41166
Y38213
Y35260
Y32307
T11
X51710Y17492
X22180Y17497
T12
X21775Y11682
X57995
X21775Y43966
X57995
T13
X25797Y42107
X31702
M30
