%FSLAX24Y24*%
%MOIN*%
G70*
G01*
G75*
G04 Layer_Physical_Order=1*
G04 Layer_Color=255*
%ADD10R,0.0630X0.0709*%
%ADD11R,0.1378X0.0640*%
%ADD12R,0.0709X0.0630*%
%ADD13R,0.0472X0.0551*%
%ADD14R,0.0551X0.0591*%
%ADD15R,0.0591X0.0551*%
%ADD16R,0.0551X0.0472*%
%ADD17R,0.1339X0.0394*%
%ADD18R,0.3386X0.4213*%
%ADD19R,0.0512X0.1024*%
%ADD20R,0.0591X0.0472*%
%ADD21R,0.0360X0.0360*%
%ADD22R,0.0360X0.0500*%
%ADD23R,0.0360X0.0360*%
%ADD24R,0.0500X0.0360*%
%ADD25C,0.0240*%
%ADD26C,0.1400*%
%ADD27C,0.1000*%
%ADD28C,0.0600*%
%ADD29C,0.0400*%
%ADD30C,0.0160*%
%ADD31C,0.0500*%
%ADD32C,0.0800*%
%ADD33C,0.0197*%
%ADD34C,0.1575*%
G04:AMPARAMS|DCode=35|XSize=78.7mil|YSize=118.1mil|CornerRadius=0mil|HoleSize=0mil|Usage=FLASHONLY|Rotation=90.000|XOffset=0mil|YOffset=0mil|HoleType=Round|Shape=Octagon|*
%AMOCTAGOND35*
4,1,8,-0.0591,-0.0197,-0.0591,0.0197,-0.0394,0.0394,0.0394,0.0394,0.0591,0.0197,0.0591,-0.0197,0.0394,-0.0394,-0.0394,-0.0394,-0.0591,-0.0197,0.0*
%
%ADD35OCTAGOND35*%

%ADD36O,0.0591X0.0984*%
%ADD37C,0.0984*%
%ADD38C,0.0551*%
%ADD39R,0.0591X0.0591*%
%ADD40C,0.0591*%
%ADD41C,0.1378*%
%ADD42C,0.0591*%
%ADD43R,0.0591X0.0591*%
%ADD44O,0.0620X0.1181*%
%ADD45C,0.0787*%
%ADD46C,0.0630*%
%ADD47O,0.0787X0.1181*%
%ADD48R,0.0433X0.0433*%
%ADD49C,0.0433*%
%ADD50O,0.0866X0.1260*%
%ADD51P,0.0682X8X202.5*%
%ADD52C,0.0500*%
%ADD53C,0.1969*%
G36*
X26431Y25706D02*
X26431Y25603D01*
X26431D01*
Y24612D01*
X26559D01*
Y24407D01*
X26996D01*
Y24257D01*
X27146D01*
Y23782D01*
X28141D01*
Y23854D01*
X28473D01*
X28562Y23721D01*
X28555Y23703D01*
X28555D01*
X28555Y23703D01*
Y23702D01*
X28517Y23611D01*
X25598D01*
X25505Y23741D01*
X25526Y23805D01*
X25534Y23806D01*
X25660Y23858D01*
X25767Y23940D01*
X25850Y24048D01*
X25895Y24157D01*
X25400D01*
Y24307D01*
X25250D01*
Y24803D01*
X25140Y24757D01*
X25033Y24675D01*
X24950Y24567D01*
X24898Y24442D01*
X24897Y24434D01*
X24746Y24382D01*
X24585Y24543D01*
X24502Y24607D01*
X24404Y24647D01*
X24300Y24661D01*
X24300Y24661D01*
X23209D01*
X23171Y24690D01*
X23051Y24740D01*
X22922Y24757D01*
X22792Y24740D01*
X22786Y24738D01*
X22653Y24826D01*
Y25340D01*
X23317Y26004D01*
X24450D01*
X24450Y26004D01*
X24554Y26018D01*
X24652Y26058D01*
X24735Y26122D01*
X25295Y26682D01*
X25455D01*
X26431Y25706D01*
D02*
G37*
G36*
X39123Y27637D02*
X38822Y27336D01*
X38770Y27269D01*
X38738Y27191D01*
X38727Y27107D01*
Y26584D01*
X38697Y26561D01*
X38630Y26474D01*
X38470D01*
X38403Y26561D01*
X38300Y26640D01*
X38191Y26685D01*
Y26857D01*
X37754D01*
Y27007D01*
X37604D01*
Y27572D01*
X37580Y27631D01*
X37734Y27785D01*
X39062D01*
X39123Y27637D01*
D02*
G37*
G36*
X36922Y17229D02*
X36989Y17178D01*
D01*
D01*
Y17178D01*
X36989Y17178D01*
D01*
D01*
X36989D01*
Y17178D01*
D01*
X36989D01*
Y17178D01*
X37066Y17146D01*
X37150Y17135D01*
X39748D01*
X39809Y16987D01*
X39215Y16393D01*
X39151Y16309D01*
X39110Y16212D01*
X39097Y16107D01*
X39097Y16107D01*
Y14850D01*
X39004Y14800D01*
X38868Y14689D01*
X38757Y14554D01*
X38675Y14399D01*
X38624Y14232D01*
X38607Y14057D01*
X38624Y13883D01*
X38675Y13716D01*
X38757Y13561D01*
X38868Y13426D01*
X39004Y13315D01*
X39097Y13265D01*
Y13025D01*
X38533Y12461D01*
X32367D01*
X31903Y12925D01*
Y13265D01*
X31996Y13315D01*
X32132Y13426D01*
X32243Y13561D01*
X32325Y13716D01*
X32376Y13883D01*
X32393Y14057D01*
X32376Y14232D01*
X32325Y14399D01*
X32243Y14554D01*
X32132Y14689D01*
X31996Y14800D01*
X31905Y14849D01*
X31944Y15004D01*
X32383D01*
X32791Y14595D01*
X32757Y14554D01*
X32675Y14399D01*
X32624Y14232D01*
X32607Y14057D01*
X32624Y13883D01*
X32675Y13716D01*
X32757Y13561D01*
X32868Y13426D01*
X33004Y13315D01*
X33158Y13232D01*
X33326Y13181D01*
X33500Y13164D01*
X33674Y13181D01*
X33842Y13232D01*
X33996Y13315D01*
X34132Y13426D01*
X34243Y13561D01*
X34325Y13716D01*
X34376Y13883D01*
X34393Y14057D01*
X34376Y14232D01*
X34325Y14399D01*
X34243Y14554D01*
X34132Y14689D01*
X33996Y14800D01*
X33842Y14883D01*
X33674Y14934D01*
X33586Y14942D01*
X32835Y15693D01*
X32752Y15757D01*
X32654Y15797D01*
X32550Y15811D01*
X32550Y15811D01*
X29850D01*
X29746Y15797D01*
X29705Y15780D01*
X29648Y15757D01*
X29565Y15693D01*
X29565Y15693D01*
X29094Y15222D01*
X28893D01*
X28702Y15032D01*
X28542Y15042D01*
X28517Y15075D01*
X28410Y15157D01*
X28284Y15209D01*
X28150Y15227D01*
X28016Y15209D01*
X27890Y15157D01*
X27783Y15075D01*
X27730Y15006D01*
X27570D01*
X27553Y15028D01*
Y15367D01*
X27626D01*
Y16076D01*
Y16108D01*
X29554D01*
X29554Y16108D01*
X29659Y16122D01*
X29756Y16162D01*
X29840Y16227D01*
X30485Y16872D01*
X30485Y16872D01*
X30549Y16956D01*
X30590Y17053D01*
X30603Y17157D01*
Y17620D01*
X30620Y17641D01*
X30780D01*
X30847Y17554D01*
X30950Y17475D01*
X31071Y17425D01*
X31200Y17408D01*
X31329Y17425D01*
X31450Y17475D01*
X31553Y17554D01*
X31620Y17641D01*
X31780D01*
X31847Y17554D01*
X31950Y17475D01*
X32071Y17425D01*
X32200Y17408D01*
X32329Y17425D01*
X32450Y17475D01*
X32553Y17554D01*
X32620Y17641D01*
X32780D01*
X32847Y17554D01*
X32950Y17475D01*
X33071Y17425D01*
X33200Y17408D01*
X33329Y17425D01*
X33450Y17475D01*
X33553Y17554D01*
X33620Y17641D01*
X33780D01*
X33847Y17554D01*
X33950Y17475D01*
X34050Y17434D01*
Y17907D01*
X34200D01*
Y18057D01*
X34733D01*
X34836Y18101D01*
X35097Y17840D01*
Y14850D01*
X35004Y14800D01*
X34868Y14689D01*
X34757Y14554D01*
X34675Y14399D01*
X34624Y14232D01*
X34607Y14057D01*
X34624Y13883D01*
X34675Y13716D01*
X34757Y13561D01*
X34868Y13426D01*
X35004Y13315D01*
X35158Y13232D01*
X35326Y13181D01*
X35500Y13164D01*
X35674Y13181D01*
X35842Y13232D01*
X35996Y13315D01*
X36132Y13426D01*
X36243Y13561D01*
X36325Y13716D01*
X36376Y13883D01*
X36393Y14057D01*
X36376Y14232D01*
X36325Y14399D01*
X36243Y14554D01*
X36132Y14689D01*
X35996Y14800D01*
X35903Y14850D01*
Y18007D01*
X35903Y18007D01*
X35900Y18037D01*
X36043Y18108D01*
X36922Y17229D01*
D02*
G37*
G36*
X30697Y22854D02*
X30727Y22831D01*
Y22457D01*
X30738Y22374D01*
X30738Y22374D01*
X30738Y22374D01*
X30770Y22296D01*
X30822Y22229D01*
X31272Y21779D01*
X31339Y21728D01*
D01*
D01*
Y21728D01*
X31339Y21728D01*
D01*
D01*
X31339D01*
Y21728D01*
D01*
X31339D01*
Y21728D01*
X31416Y21696D01*
X31500Y21685D01*
X34266D01*
X34435Y21516D01*
X34350Y21389D01*
Y20907D01*
Y20434D01*
X34450Y20475D01*
X34553Y20554D01*
X34633Y20658D01*
X34683Y20778D01*
X34700Y20907D01*
X34683Y21037D01*
X34676Y21054D01*
X34736Y21094D01*
X34877Y21019D01*
Y19407D01*
X34886Y19343D01*
X34759Y19245D01*
X34754Y19247D01*
X34650Y19261D01*
X34650Y19261D01*
X29600D01*
X29496Y19247D01*
X29398Y19207D01*
X29362Y19179D01*
X29315Y19143D01*
X29315Y19143D01*
X28915Y18743D01*
X28851Y18659D01*
X28810Y18562D01*
X28797Y18457D01*
Y18457D01*
Y18403D01*
X28695D01*
Y18403D01*
X27705D01*
Y17412D01*
X28695D01*
Y17504D01*
X28912D01*
X28950Y17475D01*
X29071Y17425D01*
X29200Y17408D01*
X29329Y17425D01*
X29450Y17475D01*
X29553Y17554D01*
X29620Y17641D01*
X29780D01*
X29797Y17620D01*
Y17325D01*
X29387Y16915D01*
X27626D01*
Y16948D01*
X26803D01*
Y20690D01*
X27666Y21553D01*
X27966D01*
Y21704D01*
X29700D01*
X29700Y21704D01*
X29804Y21718D01*
X29902Y21758D01*
X29985Y21822D01*
X30335Y22172D01*
X30335Y22172D01*
X30399Y22256D01*
X30440Y22353D01*
X30440Y22353D01*
X30440Y22353D01*
Y22353D01*
X30453Y22457D01*
X30453Y22457D01*
Y22920D01*
X30470Y22941D01*
X30630D01*
X30697Y22854D01*
D02*
G37*
G36*
X24623Y23363D02*
X24553Y23220D01*
X24500Y23227D01*
X24366Y23209D01*
X24240Y23157D01*
X24133Y23075D01*
X24050Y22967D01*
X24005Y22857D01*
X25143D01*
X25148Y22858D01*
X25246Y22818D01*
X25350Y22804D01*
X25834D01*
Y22662D01*
X25834D01*
Y22257D01*
X26349D01*
Y21957D01*
X25834D01*
Y21553D01*
X26316D01*
X26377Y21405D01*
X26115Y21143D01*
X26051Y21059D01*
X26010Y20962D01*
X25997Y20857D01*
X25997Y20857D01*
Y18091D01*
X25849Y18029D01*
X22818Y21060D01*
X22889Y21203D01*
X22922Y21199D01*
X23051Y21216D01*
X23171Y21266D01*
X23275Y21345D01*
X23354Y21449D01*
X23404Y21569D01*
X23421Y21698D01*
X23404Y21828D01*
X23354Y21948D01*
X23325Y21986D01*
Y23854D01*
X24133D01*
X24623Y23363D01*
D02*
G37*
G36*
X38200Y25734D02*
X38300Y25775D01*
X38403Y25854D01*
X38470Y25941D01*
X38630D01*
X38697Y25854D01*
X38800Y25775D01*
X38921Y25725D01*
X39050Y25708D01*
X39179Y25725D01*
X39300Y25775D01*
X39403Y25854D01*
X39470Y25941D01*
X39630D01*
X39697Y25854D01*
X39727Y25831D01*
Y25607D01*
X39738Y25524D01*
X39738Y25524D01*
X39738Y25524D01*
X39770Y25446D01*
X39822Y25379D01*
X40184Y25017D01*
X40160Y24837D01*
X40036Y24821D01*
X39920Y24773D01*
X39821Y24697D01*
X39745Y24597D01*
X39697Y24482D01*
X39680Y24357D01*
X39697Y24233D01*
X39745Y24118D01*
X39821Y24018D01*
X39920Y23942D01*
X40036Y23894D01*
X40160Y23878D01*
X40284Y23894D01*
X40400Y23942D01*
X40499Y24018D01*
X40543Y24075D01*
X42283D01*
X43350Y23008D01*
X43409Y22963D01*
X43457Y22943D01*
X43477Y22935D01*
X43550Y22925D01*
X46083D01*
X46750Y22258D01*
X46809Y22213D01*
X46837Y22201D01*
X46877Y22185D01*
X46950Y22175D01*
X47936D01*
X47987Y22024D01*
X47953Y21997D01*
X47766Y21811D01*
X47000D01*
X46896Y21797D01*
X46798Y21757D01*
X46715Y21693D01*
X46415Y21393D01*
X46351Y21309D01*
X46310Y21212D01*
X46297Y21107D01*
X46297Y21107D01*
Y18207D01*
X46297Y18207D01*
X46310Y18103D01*
X46351Y18006D01*
X46415Y17922D01*
X46449Y17887D01*
Y17727D01*
X46415Y17693D01*
X46351Y17609D01*
X46310Y17512D01*
X46297Y17407D01*
X46297Y17407D01*
Y14726D01*
X46146Y14672D01*
X46132Y14689D01*
X45996Y14800D01*
X45842Y14883D01*
X45674Y14934D01*
X45650Y14936D01*
Y14057D01*
Y13179D01*
X45674Y13181D01*
X45842Y13232D01*
X45996Y13315D01*
X46132Y13426D01*
X46146Y13443D01*
X46203Y13423D01*
X46238Y13267D01*
X45433Y12461D01*
X40467D01*
X39903Y13025D01*
Y13265D01*
X39996Y13315D01*
X40132Y13426D01*
X40243Y13561D01*
X40325Y13716D01*
X40376Y13883D01*
X40393Y14057D01*
X40376Y14232D01*
X40325Y14399D01*
X40243Y14554D01*
X40132Y14689D01*
X39996Y14800D01*
X39903Y14850D01*
Y15940D01*
X40417Y16454D01*
X41884D01*
Y16303D01*
X42914D01*
Y16303D01*
X42914D01*
X42914Y16303D01*
X42986D01*
Y16303D01*
X43177D01*
Y14889D01*
X43158Y14883D01*
X43004Y14800D01*
X42868Y14689D01*
X42757Y14554D01*
X42675Y14399D01*
X42624Y14232D01*
X42607Y14057D01*
X42624Y13883D01*
X42675Y13716D01*
X42757Y13561D01*
X42868Y13426D01*
X43004Y13315D01*
X43158Y13232D01*
X43326Y13181D01*
X43500Y13164D01*
X43674Y13181D01*
X43842Y13232D01*
X43996Y13315D01*
X44132Y13426D01*
X44243Y13561D01*
X44325Y13716D01*
X44376Y13883D01*
X44393Y14057D01*
X44376Y14232D01*
X44325Y14399D01*
X44243Y14554D01*
X44132Y14689D01*
X43996Y14800D01*
X43842Y14883D01*
X43823Y14889D01*
Y16303D01*
X44016D01*
Y17135D01*
X44466D01*
X44838Y16763D01*
X44831Y16707D01*
X44848Y16573D01*
X44900Y16448D01*
X44983Y16340D01*
X45090Y16258D01*
X45216Y16206D01*
X45350Y16188D01*
X45484Y16206D01*
X45610Y16258D01*
X45717Y16340D01*
X45800Y16448D01*
X45852Y16573D01*
X45869Y16707D01*
X45852Y16842D01*
X45800Y16967D01*
X45717Y17075D01*
X45610Y17157D01*
X45484Y17209D01*
X45350Y17227D01*
X45294Y17220D01*
X44828Y17686D01*
X44761Y17737D01*
X44684Y17769D01*
X44600Y17780D01*
X37284D01*
X35523Y19541D01*
Y21207D01*
X35512Y21291D01*
X35480Y21369D01*
X35428Y21436D01*
X34628Y22236D01*
X34561Y22287D01*
X34484Y22319D01*
X34400Y22330D01*
X31634D01*
X31373Y22591D01*
Y22831D01*
X31403Y22854D01*
X31470Y22941D01*
X31630D01*
X31697Y22854D01*
X31800Y22775D01*
X31921Y22725D01*
X32050Y22708D01*
X32179Y22725D01*
X32300Y22775D01*
X32403Y22854D01*
X32470Y22941D01*
X32630D01*
X32697Y22854D01*
X32800Y22775D01*
X32921Y22725D01*
X33050Y22708D01*
X33179Y22725D01*
X33300Y22775D01*
X33403Y22854D01*
X33470Y22941D01*
X33630D01*
X33697Y22854D01*
X33800Y22775D01*
X33921Y22725D01*
X34050Y22708D01*
X34179Y22725D01*
X34300Y22775D01*
X34403Y22854D01*
X34470Y22941D01*
X34630D01*
X34697Y22854D01*
X34800Y22775D01*
X34921Y22725D01*
X35050Y22708D01*
X35179Y22725D01*
X35300Y22775D01*
X35403Y22854D01*
X35470Y22941D01*
X35630D01*
X35697Y22854D01*
X35800Y22775D01*
X35900Y22734D01*
Y23207D01*
Y23681D01*
X35800Y23640D01*
X35697Y23561D01*
X35630Y23474D01*
X35470D01*
X35403Y23561D01*
X35300Y23640D01*
X35179Y23690D01*
X35050Y23707D01*
X34921Y23690D01*
X34800Y23640D01*
X34697Y23561D01*
X34630Y23474D01*
X34470D01*
X34403Y23561D01*
X34300Y23640D01*
X34179Y23690D01*
X34050Y23707D01*
X33921Y23690D01*
X33800Y23640D01*
X33697Y23561D01*
X33630Y23474D01*
X33470D01*
X33403Y23561D01*
X33300Y23640D01*
X33179Y23690D01*
X33050Y23707D01*
X32921Y23690D01*
X32800Y23640D01*
X32697Y23561D01*
X32630Y23474D01*
X32470D01*
X32403Y23561D01*
X32300Y23640D01*
X32179Y23690D01*
X32050Y23707D01*
X31921Y23690D01*
X31800Y23640D01*
X31697Y23561D01*
X31630Y23474D01*
X31470D01*
X31403Y23561D01*
X31300Y23640D01*
X31179Y23690D01*
X31050Y23707D01*
X30921Y23690D01*
X30800Y23640D01*
X30697Y23561D01*
X30630Y23474D01*
X30470D01*
X30403Y23561D01*
X30300Y23640D01*
X30179Y23690D01*
X30050Y23707D01*
X29921Y23690D01*
X29800Y23640D01*
X29697Y23561D01*
X29545Y23677D01*
Y23703D01*
X29453D01*
Y23857D01*
X29440Y23962D01*
X29399Y24059D01*
X29372Y24095D01*
X29335Y24143D01*
X29335Y24143D01*
X28935Y24543D01*
X28852Y24607D01*
X28754Y24647D01*
X28650Y24661D01*
X28650Y24661D01*
X28169D01*
Y25354D01*
X28333D01*
X28765Y24922D01*
X28765Y24922D01*
X28812Y24886D01*
X28848Y24858D01*
X28946Y24818D01*
X29050Y24804D01*
X36650D01*
X36650Y24804D01*
X36754Y24818D01*
X36852Y24858D01*
X36935Y24922D01*
X37335Y25322D01*
X37335Y25322D01*
X37372Y25369D01*
X37399Y25406D01*
X37440Y25503D01*
X37453Y25607D01*
X37453Y25607D01*
X37453Y25607D01*
Y25607D01*
Y25920D01*
X37470Y25941D01*
X37630D01*
X37697Y25854D01*
X37800Y25775D01*
X37900Y25734D01*
Y26207D01*
X38200D01*
Y25734D01*
D02*
G37*
G36*
X21850Y33753D02*
X21747Y33674D01*
X21667Y33570D01*
X21626Y33470D01*
X22100D01*
Y33320D01*
X22250D01*
Y32847D01*
X22350Y32888D01*
X22453Y32967D01*
X22520Y33054D01*
X22668D01*
X22761Y32924D01*
X22718Y32798D01*
X22624D01*
Y31926D01*
Y31217D01*
X22626D01*
X22650Y31167D01*
X22598Y31042D01*
X22581Y30907D01*
X22598Y30773D01*
X22650Y30648D01*
X22733Y30540D01*
X22829Y30466D01*
X22850Y30308D01*
X22820Y30269D01*
X22788Y30191D01*
X22777Y30107D01*
Y28191D01*
X22197Y27611D01*
X22083Y27596D01*
X21973Y27551D01*
X21879Y27478D01*
X21807Y27384D01*
X21762Y27275D01*
X21746Y27157D01*
X21762Y27040D01*
X21807Y26931D01*
X21879Y26837D01*
X21973Y26764D01*
X22036Y26738D01*
X22067Y26581D01*
X21522Y26036D01*
X21470Y25969D01*
X21438Y25891D01*
X21427Y25807D01*
Y24753D01*
X21300D01*
Y24257D01*
Y23762D01*
X21427D01*
Y22264D01*
X21300Y22179D01*
Y21698D01*
Y21218D01*
X21427Y21133D01*
Y20707D01*
X21438Y20624D01*
X21470Y20546D01*
X21522Y20479D01*
X24377Y17624D01*
Y16058D01*
X24369Y16054D01*
X24278Y15979D01*
X24204Y15889D01*
X24149Y15786D01*
X24115Y15674D01*
X24103Y15557D01*
X24115Y15441D01*
X24149Y15329D01*
X24204Y15226D01*
X24278Y15136D01*
X24369Y15061D01*
X24472Y15006D01*
X24584Y14972D01*
X24700Y14961D01*
X24816Y14972D01*
X24928Y15006D01*
X25031Y15061D01*
X25122Y15136D01*
X25130Y15146D01*
X25281Y15092D01*
Y14026D01*
X25262Y14011D01*
X25188Y13920D01*
X25133Y13817D01*
X25099Y13705D01*
X25088Y13589D01*
X25099Y13473D01*
X25133Y13361D01*
X25188Y13258D01*
X25262Y13167D01*
X25353Y13093D01*
X25456Y13038D01*
X25568Y13004D01*
X25684Y12992D01*
X25708Y12995D01*
X26080Y12622D01*
X26164Y12558D01*
X26261Y12518D01*
X26366Y12504D01*
X26366Y12504D01*
X28800D01*
X28800Y12504D01*
X28904Y12518D01*
X29002Y12558D01*
X29085Y12622D01*
X30117Y13654D01*
X30708D01*
X30757Y13561D01*
X30868Y13426D01*
X31004Y13315D01*
X31097Y13265D01*
Y12757D01*
X31097Y12757D01*
X31110Y12653D01*
X31151Y12556D01*
X31215Y12472D01*
X31915Y11772D01*
X31915Y11772D01*
X31998Y11708D01*
X32055Y11684D01*
X32096Y11668D01*
X32200Y11654D01*
X38700D01*
X38700Y11654D01*
X38804Y11668D01*
X38902Y11708D01*
X38985Y11772D01*
X39500Y12287D01*
X40015Y11772D01*
X40098Y11708D01*
X40196Y11668D01*
X40300Y11654D01*
X40300Y11654D01*
X45600D01*
X45600Y11654D01*
X45704Y11668D01*
X45802Y11708D01*
X45885Y11772D01*
X46985Y12872D01*
X47049Y12956D01*
X47090Y13053D01*
X47103Y13157D01*
X47103Y13157D01*
Y13450D01*
X47254Y13504D01*
X47318Y13426D01*
X47454Y13315D01*
X47608Y13232D01*
X47776Y13181D01*
X47950Y13164D01*
X48124Y13181D01*
X48292Y13232D01*
X48446Y13315D01*
X48582Y13426D01*
X48693Y13561D01*
X48775Y13716D01*
X48826Y13883D01*
X48843Y14057D01*
X48826Y14232D01*
X48775Y14399D01*
X48693Y14554D01*
X48582Y14689D01*
X48446Y14800D01*
X48292Y14883D01*
X48273Y14889D01*
Y16303D01*
X48464D01*
Y16303D01*
X48464D01*
X48464Y16303D01*
X48536D01*
Y16303D01*
X49566D01*
Y17412D01*
X49499D01*
X49455Y17456D01*
Y17456D01*
X49455D01*
D01*
X49441Y17561D01*
X49401Y17658D01*
X49336Y17742D01*
X48985Y18093D01*
X48902Y18157D01*
X48804Y18197D01*
X48700Y18211D01*
X48700Y18211D01*
X47267D01*
X47103Y18375D01*
Y19011D01*
X47760D01*
X48053Y18718D01*
X48136Y18654D01*
X48233Y18613D01*
X48338Y18600D01*
X48338Y18600D01*
X49024D01*
Y18567D01*
X49976D01*
Y18600D01*
X51413D01*
X51437Y18441D01*
X51330Y18409D01*
X51159Y18317D01*
X51008Y18194D01*
X50885Y18044D01*
X50793Y17872D01*
X50737Y17686D01*
X50718Y17492D01*
X50737Y17299D01*
X50793Y17113D01*
X50885Y16941D01*
X51008Y16791D01*
X51159Y16668D01*
X51330Y16576D01*
X51516Y16519D01*
X51710Y16500D01*
X51904Y16519D01*
X52090Y16576D01*
X52261Y16668D01*
X52412Y16791D01*
X52535Y16941D01*
X52627Y17113D01*
X52683Y17299D01*
X52702Y17492D01*
X52683Y17686D01*
X52627Y17872D01*
X52535Y18044D01*
X52412Y18194D01*
X52261Y18317D01*
X52090Y18409D01*
X51983Y18441D01*
X52007Y18600D01*
X53397D01*
Y15411D01*
X52645D01*
Y15444D01*
X51655D01*
Y14571D01*
Y13771D01*
Y12826D01*
Y12664D01*
X52645D01*
Y12826D01*
Y13771D01*
Y14571D01*
Y14604D01*
X53397D01*
Y14418D01*
X53383D01*
Y13585D01*
X53383D01*
X53410Y13568D01*
X53436Y13424D01*
X53411Y13364D01*
X54189D01*
X54164Y13424D01*
X54190Y13568D01*
X54217Y13585D01*
X54217D01*
Y14418D01*
X54203D01*
Y15007D01*
Y18600D01*
X56037D01*
X56454Y18182D01*
X56424Y18082D01*
X56407Y17907D01*
X56424Y17733D01*
X56475Y17566D01*
X56557Y17411D01*
X56668Y17276D01*
X56804Y17165D01*
X56958Y17082D01*
X57126Y17031D01*
X57300Y17014D01*
X57474Y17031D01*
X57642Y17082D01*
X57796Y17165D01*
X57932Y17276D01*
X58043Y17411D01*
X58125Y17566D01*
X58176Y17733D01*
X58193Y17907D01*
X58176Y18082D01*
X58125Y18249D01*
X58043Y18404D01*
X57932Y18539D01*
X57796Y18650D01*
X57642Y18733D01*
X57474Y18784D01*
X57300Y18801D01*
X57126Y18784D01*
X57025Y18753D01*
X56780Y18998D01*
X56875Y19126D01*
X56958Y19082D01*
X57126Y19031D01*
X57300Y19014D01*
X57474Y19031D01*
X57642Y19082D01*
X57796Y19165D01*
X57932Y19276D01*
X58043Y19411D01*
X58125Y19566D01*
X58176Y19733D01*
X58193Y19907D01*
X58176Y20082D01*
X58125Y20249D01*
X58043Y20404D01*
X57932Y20539D01*
X57796Y20650D01*
X57642Y20733D01*
X57474Y20784D01*
X57300Y20801D01*
X57126Y20784D01*
X56958Y20733D01*
X56804Y20650D01*
X56668Y20539D01*
X56557Y20404D01*
X56475Y20249D01*
X56457Y20190D01*
X52966D01*
Y20512D01*
X51936D01*
D01*
D01*
X51936Y20512D01*
X51864D01*
D01*
X51752Y20512D01*
Y21259D01*
X51752Y21259D01*
X51739Y21363D01*
X51698Y21460D01*
X51634Y21544D01*
X51181Y21997D01*
X51146Y22024D01*
X51198Y22175D01*
X56314D01*
X56421Y22057D01*
X56407Y21907D01*
X56424Y21733D01*
X56475Y21566D01*
X56557Y21411D01*
X56668Y21276D01*
X56804Y21165D01*
X56958Y21082D01*
X57126Y21031D01*
X57300Y21014D01*
X57474Y21031D01*
X57642Y21082D01*
X57796Y21165D01*
X57932Y21276D01*
X58043Y21411D01*
X58125Y21566D01*
X58176Y21733D01*
X58193Y21907D01*
X58176Y22082D01*
X58125Y22249D01*
X58043Y22404D01*
X57932Y22539D01*
X57796Y22650D01*
X57642Y22733D01*
X57474Y22784D01*
X57300Y22801D01*
X57126Y22784D01*
X56958Y22733D01*
X56895Y22699D01*
X56891Y22702D01*
X56843Y22722D01*
X56823Y22730D01*
X56750Y22740D01*
X53098D01*
X53037Y22888D01*
X53179Y23030D01*
X53205Y23064D01*
X53231Y23097D01*
X53263Y23175D01*
X53273Y23253D01*
X53466D01*
Y23485D01*
X55300D01*
X55384Y23496D01*
X55461Y23528D01*
X55528Y23579D01*
X55528Y23579D01*
X55528Y23579D01*
X55934Y23985D01*
X56419D01*
X56425Y23966D01*
X56507Y23811D01*
X56618Y23676D01*
X56754Y23565D01*
X56908Y23482D01*
X57076Y23431D01*
X57250Y23414D01*
X57424Y23431D01*
X57592Y23482D01*
X57746Y23565D01*
X57882Y23676D01*
X57993Y23811D01*
X58075Y23966D01*
X58126Y24133D01*
X58143Y24307D01*
X58126Y24482D01*
X58075Y24649D01*
X57993Y24804D01*
X57882Y24939D01*
X57746Y25050D01*
X57592Y25133D01*
X57424Y25184D01*
X57250Y25201D01*
X57076Y25184D01*
X56908Y25133D01*
X56754Y25050D01*
X56618Y24939D01*
X56507Y24804D01*
X56425Y24649D01*
X56419Y24630D01*
X55800D01*
X55755Y24624D01*
X55716Y24619D01*
X55639Y24587D01*
X55572Y24536D01*
X55166Y24130D01*
X53466D01*
Y24362D01*
D01*
Y24362D01*
X53466Y24362D01*
Y24453D01*
X53466D01*
Y25475D01*
X55540D01*
X55624Y25486D01*
X55701Y25518D01*
X55768Y25569D01*
X55768Y25569D01*
X55768Y25569D01*
X56184Y25985D01*
X56419D01*
X56425Y25966D01*
X56507Y25811D01*
X56618Y25676D01*
X56754Y25565D01*
X56908Y25482D01*
X57076Y25431D01*
X57250Y25414D01*
X57424Y25431D01*
X57592Y25482D01*
X57746Y25565D01*
X57882Y25676D01*
X57993Y25811D01*
X58075Y25966D01*
X58126Y26133D01*
X58143Y26307D01*
X58126Y26482D01*
X58075Y26649D01*
X57993Y26804D01*
X57882Y26939D01*
X57746Y27050D01*
X57592Y27133D01*
X57424Y27184D01*
X57250Y27201D01*
X57076Y27184D01*
X56908Y27133D01*
X56754Y27050D01*
X56618Y26939D01*
X56507Y26804D01*
X56425Y26649D01*
X56419Y26630D01*
X56050D01*
X55966Y26619D01*
X55889Y26587D01*
X55822Y26536D01*
X55406Y26120D01*
X53084D01*
X52767Y26437D01*
X52770Y26457D01*
X52753Y26582D01*
X52705Y26697D01*
X52629Y26797D01*
X52530Y26873D01*
X52414Y26921D01*
X52290Y26937D01*
X52166Y26921D01*
X52050Y26873D01*
X51951Y26797D01*
X51875Y26697D01*
X51827Y26582D01*
X51816Y26501D01*
X51665Y26449D01*
X50778Y27336D01*
X50711Y27387D01*
X50634Y27419D01*
X50550Y27430D01*
X49000D01*
X48916Y27419D01*
X48839Y27387D01*
X48772Y27336D01*
X48652Y27216D01*
X48504Y27277D01*
Y27824D01*
X48100D01*
Y27309D01*
X47950D01*
Y27159D01*
X47396D01*
Y26794D01*
X47396Y26794D01*
X47396Y26721D01*
X47396D01*
Y26529D01*
X47080D01*
Y26752D01*
Y26982D01*
X46700D01*
Y27132D01*
X46550D01*
Y27512D01*
X46320D01*
Y27142D01*
X45450D01*
Y27085D01*
X45116D01*
Y27312D01*
X44917D01*
X44913Y27340D01*
X44881Y27418D01*
X44829Y27485D01*
X44478Y27836D01*
X44411Y27887D01*
X44334Y27919D01*
X44250Y27930D01*
X41488D01*
X41427Y28078D01*
X42029Y28680D01*
X42055Y28714D01*
X42081Y28747D01*
X42113Y28825D01*
X42124Y28909D01*
Y29153D01*
X42316D01*
Y30262D01*
X41286D01*
D01*
D01*
X41286Y30262D01*
X41214D01*
Y30262D01*
X40184D01*
Y29153D01*
X40230D01*
X40267Y29063D01*
X40178Y28930D01*
X39611D01*
X39584Y28996D01*
X39555Y29082D01*
X39653Y29157D01*
X39733Y29261D01*
X39783Y29381D01*
X39800Y29511D01*
Y29557D01*
X39300D01*
Y29707D01*
X39150D01*
Y30378D01*
X39050Y30337D01*
X38947Y30258D01*
X38880Y30171D01*
X38720D01*
X38653Y30258D01*
X38550Y30337D01*
X38429Y30387D01*
X38300Y30404D01*
X38171Y30387D01*
X38050Y30337D01*
X37947Y30258D01*
X37880Y30171D01*
X37720D01*
X37653Y30258D01*
X37550Y30337D01*
X37429Y30387D01*
X37300Y30404D01*
X37171Y30387D01*
X37050Y30337D01*
X36947Y30258D01*
X36880Y30171D01*
X36720D01*
X36653Y30258D01*
X36550Y30337D01*
X36429Y30387D01*
X36300Y30404D01*
X36171Y30387D01*
X36050Y30337D01*
X35947Y30258D01*
X35880Y30171D01*
X35720D01*
X35653Y30258D01*
X35550Y30337D01*
X35429Y30387D01*
X35300Y30404D01*
X35171Y30387D01*
X35050Y30337D01*
X34947Y30258D01*
X34880Y30171D01*
X34720D01*
X34653Y30258D01*
X34550Y30337D01*
X34429Y30387D01*
X34300Y30404D01*
X34171Y30387D01*
X34050Y30337D01*
X33947Y30258D01*
X33880Y30171D01*
X33720D01*
X33653Y30258D01*
X33550Y30337D01*
X33429Y30387D01*
X33300Y30404D01*
X33171Y30387D01*
X33050Y30337D01*
X32947Y30258D01*
X32880Y30171D01*
X32720D01*
X32653Y30258D01*
X32550Y30337D01*
X32429Y30387D01*
X32300Y30404D01*
X32171Y30387D01*
X32050Y30337D01*
X31947Y30258D01*
X31880Y30171D01*
X31720D01*
X31653Y30258D01*
X31550Y30337D01*
X31429Y30387D01*
X31300Y30404D01*
X31171Y30387D01*
X31050Y30337D01*
X30947Y30258D01*
X30880Y30171D01*
X30720D01*
X30653Y30258D01*
X30550Y30337D01*
X30429Y30387D01*
X30300Y30404D01*
X30171Y30387D01*
X30050Y30337D01*
X29947Y30258D01*
X29880Y30171D01*
X29720D01*
X29653Y30258D01*
X29550Y30337D01*
X29429Y30387D01*
X29300Y30404D01*
X29171Y30387D01*
X29050Y30337D01*
X28947Y30258D01*
X28880Y30171D01*
X28720D01*
X28653Y30258D01*
X28550Y30337D01*
X28450Y30378D01*
Y29707D01*
Y29037D01*
X28550Y29078D01*
X28653Y29157D01*
X28720Y29244D01*
X28880D01*
X28947Y29157D01*
X29018Y29103D01*
Y27457D01*
X29027Y27384D01*
X29035Y27364D01*
X29055Y27316D01*
X29100Y27258D01*
X29703Y26655D01*
X29697Y26561D01*
X29630Y26474D01*
X29470D01*
X29403Y26561D01*
X29300Y26640D01*
X29179Y26690D01*
X29050Y26707D01*
X28962Y26695D01*
X27582Y28074D01*
Y29103D01*
X27653Y29157D01*
X27720Y29244D01*
X27880D01*
X27947Y29157D01*
X28050Y29078D01*
X28150Y29037D01*
Y29707D01*
Y30378D01*
X28050Y30337D01*
X27947Y30258D01*
X27880Y30171D01*
X27720D01*
X27653Y30258D01*
X27550Y30337D01*
X27429Y30387D01*
X27300Y30404D01*
X27171Y30387D01*
X27050Y30337D01*
X26947Y30258D01*
X26880Y30171D01*
X26720D01*
X26653Y30258D01*
X26612Y30289D01*
X26612Y30291D01*
X26580Y30369D01*
X26528Y30436D01*
X26228Y30736D01*
X26161Y30787D01*
X26084Y30819D01*
X26000Y30830D01*
X25654D01*
Y30941D01*
X25654D01*
Y31931D01*
X25654Y31931D01*
D01*
X25654Y31971D01*
Y31983D01*
Y32007D01*
Y32016D01*
Y32044D01*
X25654Y32073D01*
X25654Y32084D01*
X25654Y32084D01*
X25654Y32084D01*
Y32957D01*
X25798Y33028D01*
X25850Y32988D01*
X25950Y32947D01*
Y33420D01*
X26250D01*
Y32947D01*
X26350Y32988D01*
X26453Y33067D01*
X26520Y33154D01*
X26680D01*
X26747Y33067D01*
X26850Y32988D01*
X26971Y32938D01*
X27100Y32921D01*
X27229Y32938D01*
X27350Y32988D01*
X27389Y33018D01*
X29700Y30707D01*
X59269D01*
Y12112D01*
X59112Y12081D01*
X59054Y12222D01*
X58956Y12381D01*
X58835Y12522D01*
X58694Y12643D01*
X58535Y12741D01*
X58362Y12812D01*
X58181Y12856D01*
X57995Y12870D01*
X57809Y12856D01*
X57628Y12812D01*
X57456Y12741D01*
X57297Y12643D01*
X57155Y12522D01*
X57034Y12381D01*
X56937Y12222D01*
X56866Y12049D01*
X56822Y11868D01*
X56807Y11682D01*
X56822Y11496D01*
X56866Y11315D01*
X56937Y11143D01*
X57034Y10984D01*
X57155Y10842D01*
X57297Y10721D01*
X57456Y10624D01*
X57597Y10565D01*
X57566Y10408D01*
X22204D01*
X22173Y10565D01*
X22314Y10624D01*
X22473Y10721D01*
X22615Y10842D01*
X22736Y10984D01*
X22833Y11143D01*
X22905Y11315D01*
X22948Y11496D01*
X22963Y11682D01*
X22948Y11868D01*
X22905Y12049D01*
X22833Y12222D01*
X22736Y12381D01*
X22615Y12522D01*
X22473Y12643D01*
X22314Y12741D01*
X22142Y12812D01*
X21961Y12856D01*
X21775Y12870D01*
X21589Y12856D01*
X21408Y12812D01*
X21235Y12741D01*
X21077Y12643D01*
X20935Y12522D01*
X20814Y12381D01*
X20716Y12222D01*
X20658Y12081D01*
X20501Y12112D01*
Y21610D01*
X20521Y21612D01*
Y21785D01*
X20501Y21786D01*
Y23762D01*
X20655D01*
Y23762D01*
X21000D01*
Y24257D01*
Y24753D01*
X20655D01*
Y24753D01*
X20614D01*
X20501Y24866D01*
Y33907D01*
X21786D01*
X21850Y33753D01*
D02*
G37*
G36*
X24450Y29037D02*
X24550Y29078D01*
X24653Y29157D01*
X24720Y29244D01*
X24880Y29244D01*
X24897Y29223D01*
Y27425D01*
X24283Y26811D01*
X23419D01*
X23358Y26959D01*
X23778Y27379D01*
X23830Y27446D01*
X23862Y27524D01*
X23873Y27607D01*
Y29033D01*
X24016Y29104D01*
X24050Y29078D01*
X24150Y29037D01*
Y29707D01*
X24450D01*
Y29037D01*
D02*
G37*
%LPC*%
G36*
X49800Y14936D02*
X49776Y14934D01*
X49608Y14883D01*
X49454Y14800D01*
X49318Y14689D01*
X49207Y14554D01*
X49125Y14399D01*
X49074Y14232D01*
X49071Y14207D01*
X49800D01*
Y14936D01*
D02*
G37*
G36*
X50100D02*
Y14207D01*
X50828D01*
X50826Y14232D01*
X50775Y14399D01*
X50693Y14554D01*
X50582Y14689D01*
X50446Y14800D01*
X50292Y14883D01*
X50124Y14934D01*
X50100Y14936D01*
D02*
G37*
G36*
X37350D02*
X37326Y14934D01*
X37158Y14883D01*
X37004Y14800D01*
X36868Y14689D01*
X36757Y14554D01*
X36675Y14399D01*
X36624Y14232D01*
X36621Y14207D01*
X37350D01*
Y14936D01*
D02*
G37*
G36*
X23866Y14164D02*
Y13739D01*
X24291D01*
X24267Y13817D01*
X24212Y13920D01*
X24138Y14011D01*
X24047Y14085D01*
X23944Y14140D01*
X23866Y14164D01*
D02*
G37*
G36*
X45350Y14936D02*
X45326Y14934D01*
X45158Y14883D01*
X45004Y14800D01*
X44868Y14689D01*
X44757Y14554D01*
X44675Y14399D01*
X44624Y14232D01*
X44622Y14207D01*
X45350D01*
Y14936D01*
D02*
G37*
G36*
X37650D02*
Y14207D01*
X38379D01*
X38376Y14232D01*
X38325Y14399D01*
X38243Y14554D01*
X38132Y14689D01*
X37996Y14800D01*
X37842Y14883D01*
X37674Y14934D01*
X37650Y14936D01*
D02*
G37*
G36*
X57150Y15757D02*
X56421D01*
X56424Y15733D01*
X56475Y15566D01*
X56557Y15411D01*
X56668Y15276D01*
X56804Y15165D01*
X56958Y15082D01*
X57126Y15031D01*
X57150Y15029D01*
Y15757D01*
D02*
G37*
G36*
X22180Y18490D02*
X21986Y18471D01*
X21800Y18414D01*
X21629Y18322D01*
X21478Y18199D01*
X21355Y18049D01*
X21263Y17877D01*
X21207Y17691D01*
X21188Y17497D01*
X21207Y17304D01*
X21263Y17118D01*
X21355Y16946D01*
X21478Y16796D01*
X21629Y16673D01*
X21800Y16581D01*
X21986Y16524D01*
X22180Y16505D01*
X22374Y16524D01*
X22560Y16581D01*
X22731Y16673D01*
X22882Y16796D01*
X23005Y16946D01*
X23097Y17118D01*
X23153Y17304D01*
X23172Y17497D01*
X23153Y17691D01*
X23097Y17877D01*
X23005Y18049D01*
X22882Y18199D01*
X22731Y18322D01*
X22560Y18414D01*
X22374Y18471D01*
X22180Y18490D01*
D02*
G37*
G36*
X34674Y17757D02*
X34350D01*
Y17434D01*
X34450Y17475D01*
X34553Y17554D01*
X34633Y17658D01*
X34674Y17757D01*
D02*
G37*
G36*
X42744Y20257D02*
X41001D01*
Y18101D01*
X42744D01*
Y20257D01*
D02*
G37*
G36*
X58179Y15757D02*
X57450D01*
Y15029D01*
X57474Y15031D01*
X57642Y15082D01*
X57796Y15165D01*
X57932Y15276D01*
X58043Y15411D01*
X58125Y15566D01*
X58176Y15733D01*
X58179Y15757D01*
D02*
G37*
G36*
X57150Y16786D02*
X57126Y16784D01*
X56958Y16733D01*
X56804Y16650D01*
X56668Y16539D01*
X56557Y16404D01*
X56475Y16249D01*
X56424Y16082D01*
X56421Y16057D01*
X57150D01*
Y16786D01*
D02*
G37*
G36*
X57450D02*
Y16057D01*
X58179D01*
X58176Y16082D01*
X58125Y16249D01*
X58043Y16404D01*
X57932Y16539D01*
X57796Y16650D01*
X57642Y16733D01*
X57474Y16784D01*
X57450Y16786D01*
D02*
G37*
G36*
X41500Y14951D02*
X41326Y14934D01*
X41158Y14883D01*
X41004Y14800D01*
X40868Y14689D01*
X40757Y14554D01*
X40675Y14399D01*
X40624Y14232D01*
X40607Y14057D01*
X40624Y13883D01*
X40675Y13716D01*
X40757Y13561D01*
X40868Y13426D01*
X41004Y13315D01*
X41158Y13232D01*
X41326Y13181D01*
X41500Y13164D01*
X41674Y13181D01*
X41842Y13232D01*
X41996Y13315D01*
X42132Y13426D01*
X42243Y13561D01*
X42325Y13716D01*
X42376Y13883D01*
X42393Y14057D01*
X42376Y14232D01*
X42325Y14399D01*
X42243Y14554D01*
X42132Y14689D01*
X41996Y14800D01*
X41842Y14883D01*
X41674Y14934D01*
X41500Y14951D01*
D02*
G37*
G36*
X53650Y13064D02*
X53411D01*
X53436Y13004D01*
X53503Y12917D01*
X53590Y12850D01*
X53650Y12825D01*
Y13064D01*
D02*
G37*
G36*
X37350Y13907D02*
X36621D01*
X36624Y13883D01*
X36675Y13716D01*
X36757Y13561D01*
X36868Y13426D01*
X37004Y13315D01*
X37158Y13232D01*
X37326Y13181D01*
X37350Y13179D01*
Y13907D01*
D02*
G37*
G36*
X23566Y13439D02*
X23141D01*
X23165Y13361D01*
X23220Y13258D01*
X23294Y13167D01*
X23384Y13093D01*
X23487Y13038D01*
X23566Y13014D01*
Y13439D01*
D02*
G37*
G36*
X24291D02*
X23866D01*
Y13014D01*
X23944Y13038D01*
X24047Y13093D01*
X24138Y13167D01*
X24212Y13258D01*
X24267Y13361D01*
X24291Y13439D01*
D02*
G37*
G36*
X54189Y13064D02*
X53950D01*
Y12825D01*
X54010Y12850D01*
X54097Y12917D01*
X54164Y13004D01*
X54189Y13064D01*
D02*
G37*
G36*
X38379Y13907D02*
X37650D01*
Y13179D01*
X37674Y13181D01*
X37842Y13232D01*
X37996Y13315D01*
X38132Y13426D01*
X38243Y13561D01*
X38325Y13716D01*
X38376Y13883D01*
X38379Y13907D01*
D02*
G37*
G36*
X50828D02*
X50100D01*
Y13179D01*
X50124Y13181D01*
X50292Y13232D01*
X50446Y13315D01*
X50582Y13426D01*
X50693Y13561D01*
X50775Y13716D01*
X50826Y13883D01*
X50828Y13907D01*
D02*
G37*
G36*
X23566Y14164D02*
X23487Y14140D01*
X23384Y14085D01*
X23294Y14011D01*
X23220Y13920D01*
X23165Y13817D01*
X23141Y13739D01*
X23566D01*
Y14164D01*
D02*
G37*
G36*
X52000Y12364D02*
X51655D01*
Y12038D01*
X52000D01*
Y12364D01*
D02*
G37*
G36*
X45350Y13907D02*
X44622D01*
X44624Y13883D01*
X44675Y13716D01*
X44757Y13561D01*
X44868Y13426D01*
X45004Y13315D01*
X45158Y13232D01*
X45326Y13181D01*
X45350Y13179D01*
Y13907D01*
D02*
G37*
G36*
X52645Y12364D02*
X52300D01*
Y12038D01*
X52645D01*
Y12364D01*
D02*
G37*
G36*
X49800Y13907D02*
X49071D01*
X49074Y13883D01*
X49125Y13716D01*
X49207Y13561D01*
X49318Y13426D01*
X49454Y13315D01*
X49608Y13232D01*
X49776Y13181D01*
X49800Y13179D01*
Y13907D01*
D02*
G37*
G36*
X44787Y20257D02*
X43044D01*
Y18101D01*
X44787D01*
Y20257D01*
D02*
G37*
G36*
X25550Y24803D02*
Y24457D01*
X25895D01*
X25850Y24567D01*
X25767Y24675D01*
X25660Y24757D01*
X25550Y24803D01*
D02*
G37*
G36*
X38191Y27483D02*
X37904D01*
Y27157D01*
X38191D01*
Y27483D01*
D02*
G37*
G36*
X47080Y27512D02*
X46850D01*
Y27282D01*
X47080D01*
Y27512D01*
D02*
G37*
G36*
X26846Y24107D02*
X26559D01*
Y23782D01*
X26846D01*
Y24107D01*
D02*
G37*
G36*
X24350Y22557D02*
X24005D01*
X24050Y22448D01*
X24133Y22340D01*
X24240Y22258D01*
X24350Y22212D01*
Y22557D01*
D02*
G37*
G36*
X24995D02*
X24650D01*
Y22212D01*
X24760Y22258D01*
X24867Y22340D01*
X24950Y22448D01*
X24995Y22557D01*
D02*
G37*
G36*
X42050Y23707D02*
X41921Y23690D01*
X41800Y23640D01*
X41697Y23561D01*
X41630Y23474D01*
X41470D01*
X41403Y23561D01*
X41300Y23640D01*
X41179Y23690D01*
X41050Y23707D01*
X40921Y23690D01*
X40800Y23640D01*
X40697Y23561D01*
X40630Y23474D01*
X40470D01*
X40403Y23561D01*
X40300Y23640D01*
X40179Y23690D01*
X40050Y23707D01*
X39921Y23690D01*
X39800Y23640D01*
X39697Y23561D01*
X39630Y23474D01*
X39470D01*
X39403Y23561D01*
X39300Y23640D01*
X39179Y23690D01*
X39050Y23707D01*
X38921Y23690D01*
X38800Y23640D01*
X38697Y23561D01*
X38630Y23474D01*
X38470D01*
X38403Y23561D01*
X38300Y23640D01*
X38179Y23690D01*
X38050Y23707D01*
X37921Y23690D01*
X37800Y23640D01*
X37697Y23561D01*
X37630Y23474D01*
X37470D01*
X37403Y23561D01*
X37300Y23640D01*
X37179Y23690D01*
X37050Y23707D01*
X36921Y23690D01*
X36800Y23640D01*
X36697Y23561D01*
X36630Y23474D01*
X36470D01*
X36403Y23561D01*
X36300Y23640D01*
X36200Y23681D01*
Y23207D01*
Y22734D01*
X36300Y22775D01*
X36403Y22854D01*
X36470Y22941D01*
X36630D01*
X36647Y22920D01*
Y22387D01*
X36550Y22302D01*
X36417Y22285D01*
X36293Y22234D01*
X36186Y22152D01*
X36105Y22045D01*
X36053Y21921D01*
X36036Y21788D01*
Y21227D01*
X36053Y21094D01*
X36105Y20970D01*
X36147Y20915D01*
Y20820D01*
X36096Y20755D01*
X36056Y20658D01*
X36042Y20553D01*
X36042Y20553D01*
Y20233D01*
X36009D01*
Y19282D01*
X37004D01*
Y19757D01*
Y20233D01*
X36849D01*
Y20390D01*
X36899Y20456D01*
X36940Y20553D01*
X36953Y20657D01*
X36953Y20657D01*
Y20915D01*
X36995Y20970D01*
X37047Y21094D01*
X37064Y21227D01*
Y21451D01*
X37335Y21722D01*
X37335Y21722D01*
X37399Y21806D01*
X37440Y21903D01*
X37453Y22007D01*
X37453Y22007D01*
Y22920D01*
X37470Y22941D01*
X37630D01*
X37647Y22920D01*
Y22007D01*
X37647Y22007D01*
X37660Y21903D01*
X37701Y21806D01*
X37765Y21722D01*
X38036Y21451D01*
Y21227D01*
X38053Y21094D01*
X38105Y20970D01*
X38147Y20915D01*
Y20707D01*
X38147Y20707D01*
X38160Y20603D01*
X38201Y20506D01*
X38265Y20422D01*
X38301Y20386D01*
Y20233D01*
X38146D01*
Y19757D01*
Y19282D01*
X39141D01*
Y20233D01*
X39108D01*
Y20553D01*
X39108Y20553D01*
X39094Y20658D01*
X39054Y20755D01*
X38990Y20838D01*
X38990Y20838D01*
X38990D01*
X38953Y20915D01*
D01*
X38995Y20970D01*
X39047Y21094D01*
X39064Y21227D01*
Y21788D01*
X39047Y21921D01*
X38995Y22045D01*
X38914Y22152D01*
X38807Y22234D01*
X38683Y22285D01*
X38550Y22302D01*
X38453Y22387D01*
Y22920D01*
X38470Y22941D01*
X38630D01*
X38697Y22854D01*
X38800Y22775D01*
X38921Y22725D01*
X39050Y22708D01*
X39179Y22725D01*
X39300Y22775D01*
X39403Y22854D01*
X39470Y22941D01*
X39630D01*
X39697Y22854D01*
X39800Y22775D01*
X39921Y22725D01*
X40050Y22708D01*
X40179Y22725D01*
X40300Y22775D01*
X40403Y22854D01*
X40470Y22941D01*
X40630D01*
X40697Y22854D01*
X40800Y22775D01*
X40921Y22725D01*
X41001Y22714D01*
X41001Y22714D01*
X41001Y22714D01*
X41001Y22714D01*
Y20557D01*
X42744D01*
Y22714D01*
X42511D01*
X42414Y22840D01*
X42406Y22857D01*
X42483Y22958D01*
X42533Y23078D01*
X42550Y23207D01*
X42533Y23337D01*
X42483Y23457D01*
X42403Y23561D01*
X42300Y23640D01*
X42179Y23690D01*
X42050Y23707D01*
D02*
G37*
G36*
X57400Y29186D02*
Y28457D01*
X58128D01*
X58126Y28482D01*
X58075Y28649D01*
X57993Y28804D01*
X57882Y28939D01*
X57746Y29050D01*
X57592Y29133D01*
X57424Y29184D01*
X57400Y29186D01*
D02*
G37*
G36*
X39450Y30378D02*
Y29857D01*
X39800D01*
Y29904D01*
X39783Y30034D01*
X39733Y30154D01*
X39653Y30258D01*
X39550Y30337D01*
X39450Y30378D01*
D02*
G37*
G36*
X21950Y33170D02*
X21626D01*
X21667Y33071D01*
X21747Y32967D01*
X21850Y32888D01*
X21950Y32847D01*
Y33170D01*
D02*
G37*
G36*
X57100Y29186D02*
X57076Y29184D01*
X56908Y29133D01*
X56754Y29050D01*
X56618Y28939D01*
X56507Y28804D01*
X56425Y28649D01*
X56374Y28482D01*
X56371Y28457D01*
X57100D01*
Y29186D01*
D02*
G37*
G36*
Y28157D02*
X56371D01*
X56374Y28133D01*
X56425Y27966D01*
X56507Y27811D01*
X56618Y27676D01*
X56754Y27565D01*
X56908Y27482D01*
X57076Y27431D01*
X57100Y27429D01*
Y28157D01*
D02*
G37*
G36*
X58128D02*
X57400D01*
Y27429D01*
X57424Y27431D01*
X57592Y27482D01*
X57746Y27565D01*
X57882Y27676D01*
X57993Y27811D01*
X58075Y27966D01*
X58126Y28133D01*
X58128Y28157D01*
D02*
G37*
G36*
X47800Y27824D02*
X47396D01*
Y27459D01*
X47800D01*
Y27824D01*
D02*
G37*
G36*
X24995Y21157D02*
X24650D01*
Y20812D01*
X24760Y20858D01*
X24867Y20940D01*
X24950Y21048D01*
X24995Y21157D01*
D02*
G37*
G36*
X30050Y21381D02*
X29950Y21340D01*
X29847Y21261D01*
X29780Y21174D01*
X29620D01*
X29553Y21261D01*
X29450Y21340D01*
X29350Y21381D01*
Y20907D01*
Y20434D01*
X29450Y20475D01*
X29553Y20554D01*
X29620Y20641D01*
X29780D01*
X29847Y20554D01*
X29950Y20475D01*
X30050Y20434D01*
Y20907D01*
Y21381D01*
D02*
G37*
G36*
X31050D02*
X30950Y21340D01*
X30847Y21261D01*
X30780Y21174D01*
X30620D01*
X30553Y21261D01*
X30450Y21340D01*
X30350Y21381D01*
Y20907D01*
Y20434D01*
X30450Y20475D01*
X30553Y20554D01*
X30620Y20641D01*
X30780D01*
X30847Y20554D01*
X30950Y20475D01*
X31050Y20434D01*
Y20907D01*
Y21381D01*
D02*
G37*
G36*
X24350Y21157D02*
X24005D01*
X24050Y21048D01*
X24133Y20940D01*
X24240Y20858D01*
X24350Y20812D01*
Y21157D01*
D02*
G37*
G36*
X37591Y20233D02*
X37304D01*
Y19757D01*
Y19282D01*
X37559D01*
Y19282D01*
X37846D01*
Y19757D01*
Y20233D01*
X37591D01*
Y20233D01*
D02*
G37*
G36*
X28200Y21407D02*
X28071Y21390D01*
X27950Y21340D01*
X27847Y21261D01*
X27767Y21157D01*
X27717Y21037D01*
X27700Y20907D01*
X27717Y20778D01*
X27767Y20658D01*
X27847Y20554D01*
X27950Y20475D01*
X28071Y20425D01*
X28200Y20408D01*
X28329Y20425D01*
X28450Y20475D01*
X28553Y20554D01*
X28620Y20641D01*
X28780D01*
X28847Y20554D01*
X28950Y20475D01*
X29050Y20434D01*
Y20907D01*
Y21381D01*
X28950Y21340D01*
X28847Y21261D01*
X28780Y21174D01*
X28620D01*
X28553Y21261D01*
X28450Y21340D01*
X28329Y21390D01*
X28200Y21407D01*
D02*
G37*
G36*
X44787Y22714D02*
X43044D01*
Y20557D01*
X44787D01*
Y22714D01*
D02*
G37*
G36*
X24350Y21803D02*
X24240Y21757D01*
X24133Y21675D01*
X24050Y21567D01*
X24005Y21457D01*
X24350D01*
Y21803D01*
D02*
G37*
G36*
X24650D02*
Y21457D01*
X24995D01*
X24950Y21567D01*
X24867Y21675D01*
X24760Y21757D01*
X24650Y21803D01*
D02*
G37*
G36*
X21000Y22172D02*
X20900Y22131D01*
X20797Y22052D01*
X20717Y21948D01*
X20676Y21848D01*
X21000D01*
Y22172D01*
D02*
G37*
G36*
Y21548D02*
X20676D01*
X20717Y21449D01*
X20797Y21345D01*
X20900Y21266D01*
X21000Y21224D01*
Y21548D01*
D02*
G37*
G36*
X32050Y21381D02*
X31950Y21340D01*
X31847Y21261D01*
X31780Y21174D01*
X31620D01*
X31553Y21261D01*
X31450Y21340D01*
X31350Y21381D01*
Y20907D01*
Y20434D01*
X31450Y20475D01*
X31553Y20554D01*
X31620Y20641D01*
X31780D01*
X31847Y20554D01*
X31950Y20475D01*
X32050Y20434D01*
Y20907D01*
Y21381D01*
D02*
G37*
G36*
X33050D02*
X32950Y21340D01*
X32847Y21261D01*
X32780Y21174D01*
X32620D01*
X32553Y21261D01*
X32450Y21340D01*
X32350Y21381D01*
Y20907D01*
Y20434D01*
X32450Y20475D01*
X32553Y20554D01*
X32620Y20641D01*
X32780D01*
X32847Y20554D01*
X32950Y20475D01*
X33050Y20434D01*
Y20907D01*
Y21381D01*
D02*
G37*
G36*
X34050D02*
X33950Y21340D01*
X33847Y21261D01*
X33780Y21174D01*
X33620D01*
X33553Y21261D01*
X33450Y21340D01*
X33350Y21381D01*
Y20907D01*
Y20434D01*
X33450Y20475D01*
X33553Y20554D01*
X33620Y20641D01*
X33780D01*
X33847Y20554D01*
X33950Y20475D01*
X34050Y20434D01*
Y20907D01*
Y21381D01*
D02*
G37*
%LPD*%
D10*
X51849Y25007D02*
D03*
X52951D02*
D03*
Y23807D02*
D03*
X51849D02*
D03*
X44601Y26757D02*
D03*
X43499D02*
D03*
X42399Y16857D02*
D03*
X43501D02*
D03*
X41801Y29707D02*
D03*
X40699D02*
D03*
X27451Y22107D02*
D03*
X26349D02*
D03*
X44601Y24757D02*
D03*
X43499D02*
D03*
X47949Y16857D02*
D03*
X49051D02*
D03*
X51349Y19957D02*
D03*
X52451D02*
D03*
D11*
X49900Y23807D02*
D03*
X47900D02*
D03*
D12*
X47950Y26206D02*
D03*
Y27309D02*
D03*
X25100Y32559D02*
D03*
Y31456D02*
D03*
X29350Y34206D02*
D03*
Y35309D02*
D03*
D13*
X37996Y19757D02*
D03*
X38704D02*
D03*
X37154Y19757D02*
D03*
X36446D02*
D03*
X37754Y27007D02*
D03*
X37046D02*
D03*
X26996Y24257D02*
D03*
X27704D02*
D03*
D14*
X26906Y25107D02*
D03*
X27694D02*
D03*
D15*
X52150Y13301D02*
D03*
Y12514D02*
D03*
D16*
X49500Y21712D02*
D03*
Y21003D02*
D03*
Y19712D02*
D03*
Y19003D02*
D03*
X27150Y15803D02*
D03*
Y16512D02*
D03*
X23100Y31653D02*
D03*
Y32362D02*
D03*
D17*
X47933Y21407D02*
D03*
Y20407D02*
D03*
Y19407D02*
D03*
D18*
X42894Y20407D02*
D03*
D19*
X48904Y36409D02*
D03*
X46896D02*
D03*
X48904Y32906D02*
D03*
X46896D02*
D03*
D20*
X52150Y15007D02*
D03*
Y14207D02*
D03*
D21*
X45900Y24307D02*
D03*
X46650D02*
D03*
D22*
X46280Y25107D02*
D03*
D23*
X46700Y26382D02*
D03*
Y27132D02*
D03*
D24*
X45900Y26762D02*
D03*
D25*
X50550Y27107D02*
X51799Y25859D01*
X49000Y27107D02*
X50550D01*
X48099Y26206D02*
X49000Y27107D01*
Y20407D02*
X49500Y19907D01*
Y19712D02*
Y19907D01*
X49000Y20407D02*
X49500Y20907D01*
Y21003D01*
X47933Y20407D02*
X49000D01*
X37754Y27007D02*
X38050Y26712D01*
Y26207D02*
Y26712D01*
X36250Y39657D02*
Y42157D01*
X33013Y36420D02*
X36250Y39657D01*
X27100Y36420D02*
X33013D01*
X38400Y44307D02*
X40200D01*
X36250Y42157D02*
X38400Y44307D01*
X30100Y31907D02*
X48550D01*
X27250Y34757D02*
X30100Y31907D01*
X43500Y16856D02*
X43501Y16857D01*
X43500Y14057D02*
Y16856D01*
X24449Y31456D02*
X25100D01*
X23100Y30107D02*
X24449Y31456D01*
X23100Y28057D02*
Y30107D01*
X24100Y30507D02*
X26000D01*
X23550Y29957D02*
X24100Y30507D01*
X23550Y27607D02*
Y29957D01*
X22200Y27157D02*
X23100Y28057D01*
X21750Y25807D02*
X23550Y27607D01*
X44600Y17457D02*
X45350Y16707D01*
X37150Y17457D02*
X44600D01*
X35200Y19407D02*
X37150Y17457D01*
X35200Y19407D02*
Y21207D01*
X34400Y22007D02*
X35200Y21207D01*
X31500Y22007D02*
X34400D01*
X31050Y22457D02*
X31500Y22007D01*
X31050Y22457D02*
Y23207D01*
X41000Y28107D02*
X41801Y28909D01*
X37600Y28107D02*
X41000D01*
X37046Y27553D02*
X37600Y28107D01*
X48250Y25107D02*
X48900Y24457D01*
X46280Y25107D02*
X48250D01*
X52290Y26457D02*
X52950Y25797D01*
X48099Y26206D02*
X48100D01*
X47950D02*
X48099D01*
X46876D02*
X47950D01*
X49900Y23807D02*
Y24907D01*
X49300Y25507D02*
X49900Y24907D01*
X49300Y25507D02*
Y26457D01*
X46700Y26382D02*
X46876Y26206D01*
X46650Y23907D02*
Y24307D01*
X46300Y23557D02*
X46650Y23907D01*
X44550Y23557D02*
X46300D01*
X44034Y24074D02*
X44550Y23557D01*
X43499Y26059D02*
X44034Y25524D01*
X43499Y26059D02*
Y26757D01*
X44606Y26762D02*
X45900D01*
X44601Y26757D02*
X44606Y26762D01*
X44601Y26757D02*
Y27256D01*
X44250Y27607D02*
X44601Y27256D01*
X39550Y27607D02*
X44250D01*
X39050Y27107D02*
X39550Y27607D01*
X39050Y26207D02*
Y27107D01*
X45650Y24307D02*
X45900D01*
X45200Y24757D02*
X45650Y24307D01*
X44601Y24757D02*
X45200D01*
X40900D02*
X43499D01*
X40050Y25607D02*
X40900Y24757D01*
X40050Y25607D02*
Y26207D01*
X22750Y34757D02*
X27250D01*
X25100Y32559D02*
Y33420D01*
X23100Y32362D02*
X23100Y32362D01*
X23100Y32362D02*
Y33320D01*
Y31653D02*
X23100Y31653D01*
X23100Y30907D02*
Y31653D01*
X47949Y16857D02*
X47950Y16856D01*
Y14057D02*
Y16856D01*
X41801Y28909D02*
Y29707D01*
X37046Y27007D02*
Y27553D01*
X24700Y15557D02*
Y17757D01*
X21750Y20707D02*
X24700Y17757D01*
X21750Y20707D02*
Y25807D01*
X26000Y30507D02*
X26300Y30207D01*
Y29707D02*
Y30207D01*
X40699Y28956D02*
Y29707D01*
X40350Y28607D02*
X40699Y28956D01*
X38600Y28607D02*
X40350D01*
X38300Y28907D02*
X38600Y28607D01*
X38300Y28907D02*
Y29707D01*
X37050Y26207D02*
Y27003D01*
X48550Y31907D02*
X48904Y32261D01*
Y32906D01*
X22100Y35407D02*
X22750Y34757D01*
X22100Y35407D02*
Y36320D01*
X25449Y35309D02*
X29350D01*
X25100Y35657D02*
X25449Y35309D01*
X25100Y35657D02*
Y36420D01*
X49900Y23807D02*
X51849D01*
X48900Y23257D02*
Y24457D01*
Y23257D02*
X49350Y22807D01*
X52500D01*
X52951Y23259D01*
Y23807D01*
X51799Y25057D02*
Y25859D01*
Y25057D02*
X51849Y25007D01*
X52950Y25009D02*
Y25797D01*
Y25009D02*
X52951Y25007D01*
X52950Y25797D02*
X55540D01*
X56050Y26307D01*
X57250D01*
X52951Y23807D02*
X55300D01*
X55800Y24307D01*
X57250D01*
D26*
X43803Y39705D02*
Y43157D01*
X44706Y38801D02*
X46031D01*
X43803Y39705D02*
X44706Y38801D01*
X51847Y43157D02*
X53853D01*
X41797D02*
X43803D01*
X55845Y41166D02*
X57250D01*
X53853Y43157D02*
X55845Y41166D01*
X57250Y35260D02*
Y38213D01*
X57051Y38014D02*
X57250Y38213D01*
D27*
X41797Y40705D02*
Y43157D01*
X41035Y39942D02*
X41797Y40705D01*
X40068Y39942D02*
X41035D01*
X40068Y36926D02*
Y39942D01*
X39750Y36607D02*
X40068Y36926D01*
X38900Y42107D02*
X40068D01*
X37900Y41107D02*
X38900Y42107D01*
X55600Y32307D02*
X56900D01*
X53300Y34607D02*
X55600Y32307D01*
X35750Y35107D02*
Y36607D01*
X34900Y34257D02*
X35750Y35107D01*
X31997Y34257D02*
X34900D01*
X40700D02*
X41050Y34607D01*
X37903Y34257D02*
X40700D01*
X37900Y34260D02*
Y41107D01*
X41050Y34607D02*
X53300D01*
X49969Y38014D02*
X57051D01*
D28*
X36553Y32907D02*
X37903Y34257D01*
X30649Y32907D02*
X36553D01*
X29350Y34206D02*
X30649Y32907D01*
D29*
X46700Y21107D02*
X47000Y21407D01*
X46700Y18207D02*
Y21107D01*
Y18207D02*
X47100Y17807D01*
X52150Y13301D02*
Y14207D01*
X27694Y25107D02*
X27704Y25097D01*
Y24257D02*
Y25097D01*
Y24257D02*
X27704Y24257D01*
X28650D01*
X28500Y25757D02*
X29050Y25207D01*
X27013Y25757D02*
X28500D01*
X26906Y25651D02*
X27013Y25757D01*
X26906Y25107D02*
Y25801D01*
X25300Y27407D02*
X26906Y25801D01*
X25300Y27407D02*
Y29707D01*
X37050Y25607D02*
Y26207D01*
X36650Y25207D02*
X37050Y25607D01*
X29050Y25207D02*
X36650D01*
X27451Y21909D02*
Y22107D01*
X26400Y20857D02*
X27451Y21909D01*
X26400Y14257D02*
Y20857D01*
X32200Y12057D02*
X38700D01*
X31500Y12757D02*
X32200Y12057D01*
X31500Y12757D02*
Y14057D01*
X23150Y26407D02*
X24450D01*
X22250Y25507D02*
X23150Y26407D01*
X22250Y21057D02*
Y25507D01*
X24450Y26407D02*
X25300Y27257D01*
X22250Y21057D02*
X25684Y17623D01*
Y13589D02*
Y17623D01*
X26400Y14257D02*
X26800Y13857D01*
X28650Y24257D02*
X29050Y23857D01*
Y23207D02*
Y23857D01*
X25350Y23207D02*
X29050D01*
X24300Y24257D02*
X25350Y23207D01*
X22922Y24257D02*
X24300D01*
X22922D02*
X22922Y24257D01*
Y21698D02*
Y24257D01*
X38700Y12057D02*
X39500Y12857D01*
X38550Y20707D02*
Y21507D01*
Y20707D02*
X38704Y20553D01*
Y19757D02*
Y20553D01*
X36550Y20657D02*
Y21507D01*
X36446Y20553D02*
X36550Y20657D01*
X36446Y19757D02*
Y20553D01*
X38050Y22007D02*
X38550Y21507D01*
X38050Y22007D02*
Y23207D01*
X36550Y21507D02*
X37050Y22007D01*
Y23207D01*
X27750Y13857D02*
X28150Y14257D01*
X26800Y13857D02*
X27750D01*
X28150Y14357D02*
Y14707D01*
X28800Y12907D02*
X29950Y14057D01*
X26366Y12907D02*
X28800D01*
X25684Y13589D02*
X26366Y12907D01*
X27451Y22107D02*
X29700D01*
X30050Y22457D01*
Y23207D01*
X29200Y17907D02*
Y18457D01*
X29600Y18857D01*
X34650D01*
X35500Y18007D01*
Y14057D02*
Y18007D01*
X29950Y14057D02*
X31500D01*
X28200Y17907D02*
X29200D01*
X29150Y14707D02*
X29850Y15407D01*
X32550D01*
X33500Y14457D01*
Y14057D02*
Y14457D01*
X27150Y15803D02*
X27150Y15803D01*
X27150Y14707D02*
Y15803D01*
X30200Y17157D02*
Y17907D01*
X29554Y16512D02*
X30200Y17157D01*
X27150Y16512D02*
X29554D01*
X40250Y16857D02*
X42399D01*
X39500Y16107D02*
X40250Y16857D01*
X39500Y14057D02*
Y16107D01*
X46700Y13157D02*
Y17407D01*
X45600Y12057D02*
X46700Y13157D01*
X40300Y12057D02*
X45600D01*
X39500Y12857D02*
X40300Y12057D01*
X39500Y12857D02*
Y14057D01*
X46700Y17407D02*
X47100Y17807D01*
X49051Y16857D02*
Y17456D01*
X48700Y17807D02*
X49051Y17456D01*
X47100Y17807D02*
X48700D01*
X47000Y21407D02*
X47933D01*
X48238Y21712D01*
X49500D01*
X47933Y19407D02*
X48338Y19003D01*
X49500D01*
X45150Y32907D02*
X46894D01*
X56204Y19003D02*
X57300Y17907D01*
X53750Y19003D02*
X53800Y18953D01*
X49500Y19003D02*
X53750D01*
X56204D01*
X52150Y15007D02*
X53800D01*
Y14001D02*
Y15007D01*
Y18953D01*
X49500Y21712D02*
X50896D01*
X51349Y21259D01*
Y20207D02*
Y21259D01*
D30*
X44034Y24074D02*
Y25524D01*
X37046Y27007D02*
X37050Y27003D01*
X27300Y27957D02*
X29050Y26207D01*
X27300Y27957D02*
Y29707D01*
X34300Y29457D02*
Y29707D01*
X31050Y26207D02*
X34300Y29457D01*
X35300D02*
Y29707D01*
X32050Y26207D02*
X35300Y29457D01*
X36300D02*
Y29707D01*
X33050Y26207D02*
X36300Y29457D01*
X37300D02*
Y29707D01*
X34050Y26207D02*
X37300Y29457D01*
X29300Y27457D02*
Y29707D01*
Y27457D02*
X30050Y26707D01*
Y26207D02*
Y26707D01*
X46200Y23207D02*
X46950Y22457D01*
X43550Y23207D02*
X46200D01*
X42400Y24357D02*
X43550Y23207D01*
X40160Y24357D02*
X42400D01*
X46950Y22457D02*
X56750D01*
X57300Y21907D01*
X52551Y19907D02*
X57300D01*
X52451Y20007D02*
X52551Y19907D01*
D31*
X49456Y38014D02*
X49969D01*
X48904Y37461D02*
X49456Y38014D01*
X48904Y36409D02*
Y37461D01*
X46031Y38801D02*
X46896Y37937D01*
Y36409D02*
Y37937D01*
D32*
X37900Y34260D02*
X37903Y34257D01*
D33*
X20200Y10107D02*
Y45541D01*
X59570D01*
Y10107D02*
Y45541D01*
X20200Y10107D02*
X59570D01*
D34*
X31702Y42107D02*
D03*
X25797D02*
D03*
X22180Y17497D02*
D03*
X51710Y17492D02*
D03*
D35*
X40068Y42107D02*
D03*
Y39942D02*
D03*
Y44273D02*
D03*
D36*
X32300Y29707D02*
D03*
X33300D02*
D03*
X31300D02*
D03*
X30300D02*
D03*
X24300D02*
D03*
X25300D02*
D03*
X26300D02*
D03*
X27300D02*
D03*
X28300D02*
D03*
X29300D02*
D03*
X34300D02*
D03*
X35300D02*
D03*
X36300D02*
D03*
X37300D02*
D03*
X38300D02*
D03*
X39300D02*
D03*
D37*
X37903Y34257D02*
D03*
X31997D02*
D03*
D38*
X49300Y26457D02*
D03*
X52290D02*
D03*
X40160Y24357D02*
D03*
D39*
X28200Y17907D02*
D03*
D40*
X29200D02*
D03*
X30200D02*
D03*
X31200D02*
D03*
X32200D02*
D03*
X33200D02*
D03*
X34200D02*
D03*
X28200Y20907D02*
D03*
X29200D02*
D03*
X30200D02*
D03*
X31200D02*
D03*
X32200D02*
D03*
X33200D02*
D03*
X34200D02*
D03*
X21150Y21698D02*
D03*
X22922Y24257D02*
D03*
D41*
X47950Y14057D02*
D03*
X49950D02*
D03*
X33500D02*
D03*
X31500D02*
D03*
X35500D02*
D03*
X41500D02*
D03*
X37500D02*
D03*
X39500D02*
D03*
X43500D02*
D03*
X45500D02*
D03*
X57250Y26307D02*
D03*
Y24307D02*
D03*
Y28307D02*
D03*
Y41166D02*
D03*
Y38213D02*
D03*
Y32307D02*
D03*
Y35260D02*
D03*
X57300Y21907D02*
D03*
Y19907D02*
D03*
Y15907D02*
D03*
Y17907D02*
D03*
D42*
X22100Y33320D02*
D03*
X23100D02*
D03*
X22100Y36320D02*
D03*
X26100Y33420D02*
D03*
X27100D02*
D03*
X25100Y36420D02*
D03*
X26100D02*
D03*
X27100D02*
D03*
X42050Y26207D02*
D03*
X41050D02*
D03*
X40050D02*
D03*
X39050D02*
D03*
X38050D02*
D03*
X37050D02*
D03*
X36050D02*
D03*
X35050D02*
D03*
X34050D02*
D03*
X33050D02*
D03*
X32050D02*
D03*
X31050D02*
D03*
X30050D02*
D03*
X29050D02*
D03*
X42050Y23207D02*
D03*
X41050D02*
D03*
X40050D02*
D03*
X39050D02*
D03*
X38050D02*
D03*
X37050D02*
D03*
X36050D02*
D03*
X35050D02*
D03*
X34050D02*
D03*
X33050D02*
D03*
X32050D02*
D03*
X31050D02*
D03*
X30050D02*
D03*
X22922Y21698D02*
D03*
D43*
X23100Y36320D02*
D03*
X25100Y33420D02*
D03*
X29050Y23207D02*
D03*
X21150Y24257D02*
D03*
D44*
X36550Y21507D02*
D03*
X38550D02*
D03*
D45*
X25684Y13589D02*
D03*
X23716D02*
D03*
X24700Y15557D02*
D03*
X41150Y32907D02*
D03*
X45150D02*
D03*
D46*
X35750Y36607D02*
D03*
X39750D02*
D03*
X28150Y14707D02*
D03*
X27150D02*
D03*
X44100Y18907D02*
D03*
Y21907D02*
D03*
X41700Y18907D02*
D03*
Y21907D02*
D03*
X42900Y20307D02*
D03*
X25400Y24307D02*
D03*
X24500Y21307D02*
D03*
Y22707D02*
D03*
X45350Y16707D02*
D03*
X23100Y30907D02*
D03*
X49000Y20407D02*
D03*
X50400D02*
D03*
X47400Y23107D02*
D03*
Y24407D02*
D03*
D47*
X46031Y38801D02*
D03*
X49969Y38014D02*
D03*
D48*
X53800Y14001D02*
D03*
D49*
Y13214D02*
D03*
D50*
X41847Y43157D02*
D03*
X43853D02*
D03*
X51847D02*
D03*
X53853D02*
D03*
D51*
X29150Y14707D02*
D03*
D52*
X22200Y27157D02*
D03*
D53*
X21775Y11682D02*
D03*
X57995D02*
D03*
Y43966D02*
D03*
X21775D02*
D03*
M02*
