%FSLAX24Y24*%
%MOIN*%
G70*
G01*
G75*
G04 Layer_Color=65535*
%ADD10R,0.0630X0.0709*%
%ADD11R,0.1378X0.0640*%
%ADD12R,0.0709X0.0630*%
%ADD13R,0.0472X0.0551*%
%ADD14R,0.0551X0.0591*%
%ADD15R,0.0591X0.0551*%
%ADD16R,0.0551X0.0472*%
%ADD17R,0.1339X0.0394*%
%ADD18R,0.3386X0.4213*%
%ADD19R,0.0512X0.1024*%
%ADD20R,0.0591X0.0472*%
%ADD21R,0.0360X0.0360*%
%ADD22R,0.0360X0.0500*%
%ADD23R,0.0360X0.0360*%
%ADD24R,0.0500X0.0360*%
%ADD25C,0.0240*%
%ADD26C,0.1400*%
%ADD27C,0.1000*%
%ADD28C,0.0600*%
%ADD29C,0.0400*%
%ADD30C,0.0160*%
%ADD31C,0.0500*%
%ADD32C,0.0800*%
%ADD33C,0.0197*%
%ADD34C,0.1575*%
G04:AMPARAMS|DCode=35|XSize=78.7mil|YSize=118.1mil|CornerRadius=0mil|HoleSize=0mil|Usage=FLASHONLY|Rotation=90.000|XOffset=0mil|YOffset=0mil|HoleType=Round|Shape=Octagon|*
%AMOCTAGOND35*
4,1,8,-0.0591,-0.0197,-0.0591,0.0197,-0.0394,0.0394,0.0394,0.0394,0.0591,0.0197,0.0591,-0.0197,0.0394,-0.0394,-0.0394,-0.0394,-0.0591,-0.0197,0.0*
%
%ADD35OCTAGOND35*%

%ADD36O,0.0591X0.0984*%
%ADD37C,0.0984*%
%ADD38C,0.0551*%
%ADD39R,0.0591X0.0591*%
%ADD40C,0.0591*%
%ADD41C,0.1378*%
%ADD42C,0.0591*%
%ADD43R,0.0591X0.0591*%
%ADD44O,0.0620X0.1181*%
%ADD45C,0.0787*%
%ADD46C,0.0630*%
%ADD47O,0.0787X0.1181*%
%ADD48R,0.0433X0.0433*%
%ADD49C,0.0433*%
%ADD50O,0.0866X0.1260*%
%ADD51P,0.0682X8X202.5*%
%ADD52C,0.0500*%
%ADD53C,0.1969*%
%ADD54C,0.0100*%
%ADD55C,0.0079*%
%ADD56C,0.0236*%
%ADD57C,0.0098*%
%ADD58C,0.0080*%
%ADD59C,0.0120*%
%ADD60C,0.0070*%
%ADD61C,0.0050*%
D33*
X20200Y10107D02*
Y45541D01*
X59570D01*
Y10107D02*
Y45541D01*
X20200Y10107D02*
X59570D01*
D54*
X32569Y42107D02*
G03*
X32569Y42107I-866J0D01*
G01*
X49838Y24172D02*
G03*
X47980Y24216I-938J-365D01*
G01*
X47978Y23419D02*
G03*
X49819Y23414I922J388D01*
G01*
X38800Y20607D02*
G03*
X38800Y22407I0J900D01*
G01*
X36300D02*
G03*
X36300Y20607I0J-900D01*
G01*
X43866Y37817D02*
G03*
X44181Y37502I315J0D01*
G01*
X44181Y39313D02*
G03*
X43866Y38998I0J-315D01*
G01*
X51819Y37502D02*
G03*
X52134Y37817I0J315D01*
G01*
Y38998D02*
G03*
X51819Y39313I-315J0D01*
G01*
X47022Y35457D02*
G03*
X46722Y35457I-150J0D01*
G01*
X47022Y35507D02*
G03*
X47322Y35507I150J0D01*
G01*
X48900Y35407D02*
G03*
X48600Y35407I-150J0D01*
G01*
X48900Y35457D02*
G03*
X49200Y35457I150J0D01*
G01*
X38100Y39056D02*
Y45159D01*
X24222Y39056D02*
X38100D01*
X24222Y45159D02*
X38100D01*
X24222Y39056D02*
Y45159D01*
X20200Y34907D02*
X27200D01*
X31400Y30707D01*
X59570D01*
X32650Y34257D02*
X32824D01*
X37076D02*
X37300D01*
X49690Y26437D02*
X50520D01*
X51340D02*
X51910D01*
X50520Y25827D02*
Y27077D01*
Y25827D02*
X50730D01*
X51360Y26457D01*
X51380D01*
X50520Y27077D02*
X50740D01*
X51360Y26457D01*
X51380D01*
X51400Y25877D02*
Y27067D01*
X47900Y23407D02*
X47912Y23419D01*
X47978D01*
X49894Y23414D02*
X49900Y23407D01*
X49819Y23414D02*
X49894D01*
X49865Y24172D02*
X49900Y24207D01*
X49838Y24172D02*
X49865D01*
X47900Y24207D02*
X47972D01*
X49900Y22707D02*
Y23407D01*
X48250Y22707D02*
X49900D01*
X47900Y23057D02*
X48250Y22707D01*
X47900Y23057D02*
Y23407D01*
X49900Y24207D02*
Y24907D01*
X48300D02*
X49900D01*
X47900Y24507D02*
X48300Y24907D01*
X47900Y24207D02*
Y24507D01*
X50950Y12057D02*
Y16057D01*
X46950Y12157D02*
X50950D01*
X46950Y12057D02*
X50950D01*
X46950Y16057D02*
X50950D01*
X46950Y12207D02*
X50950D01*
X47700Y15057D02*
X48200D01*
X47700D02*
Y15857D01*
X48200D01*
Y15057D02*
Y15857D01*
X49700Y15057D02*
X50200D01*
X49700D02*
Y15857D01*
X50200D01*
Y15057D02*
Y15857D01*
X46950Y12207D02*
Y16057D01*
X35250Y15007D02*
X35750D01*
X35250D02*
Y15807D01*
X35750D01*
Y15007D02*
Y15807D01*
X30210Y12057D02*
Y16057D01*
X33750Y15057D02*
Y15857D01*
X33250D02*
X33750D01*
X33250Y15057D02*
Y15857D01*
Y15057D02*
X33750D01*
X31750D02*
Y15857D01*
X31250D02*
X31750D01*
X31250Y15057D02*
Y15857D01*
Y15057D02*
X31750D01*
X30210Y16057D02*
X46500D01*
X30210Y12057D02*
X46500D01*
Y16057D01*
X30230Y12157D02*
X46500D01*
X37250Y15057D02*
X37750D01*
X37250D02*
Y15857D01*
X37750D01*
Y15057D02*
Y15857D01*
X39250Y15057D02*
X39750D01*
X39250D02*
Y15857D01*
X39750D01*
Y15057D02*
Y15857D01*
X41750Y15007D02*
Y15807D01*
X41250D02*
X41750D01*
X41250Y15007D02*
Y15807D01*
Y15007D02*
X41750D01*
X43250Y15057D02*
X43750D01*
X43250D02*
Y15857D01*
X43750D01*
Y15057D02*
Y15857D01*
X45250Y15057D02*
X45750D01*
X45250D02*
Y15857D01*
X45750D01*
Y15057D02*
Y15857D01*
X36300Y22407D02*
X38800D01*
X36300Y20607D02*
X38800D01*
X44750Y18407D02*
X47650D01*
Y19007D01*
Y21807D02*
Y22407D01*
X44750D02*
X47650D01*
X44181Y37502D02*
X49378D01*
X43866Y37817D02*
Y38998D01*
X46622Y39313D02*
X51819D01*
X52134Y37817D02*
Y38998D01*
X44181Y39313D02*
X45441D01*
X50559Y37502D02*
X51819D01*
X46227Y33378D02*
Y35937D01*
X49573Y33378D02*
Y35937D01*
X46522Y33378D02*
Y35937D01*
X49300Y33378D02*
X49573D01*
X47300D02*
X48550D01*
X46227D02*
X46500D01*
X46227Y35937D02*
X46500D01*
X47300D02*
X48530D01*
X49300D02*
X49573D01*
X22922Y21698D02*
Y24257D01*
X21150Y21698D02*
X22922D01*
X21150D02*
Y24257D01*
X22922D01*
X56300Y28057D02*
Y28557D01*
X55500Y28057D02*
X56300D01*
X55500D02*
Y28557D01*
X56300D01*
X55250Y23307D02*
X59250D01*
X55450Y26557D02*
X56250D01*
X55450Y26057D02*
Y26557D01*
Y26057D02*
X56250D01*
Y26557D01*
X55450Y24557D02*
X56250D01*
X55450Y24057D02*
Y24557D01*
Y24057D02*
X56250D01*
Y24557D01*
X59100Y23307D02*
Y29457D01*
X55250Y23307D02*
Y29457D01*
X59250Y23307D02*
Y29457D01*
X59150Y23307D02*
Y29457D01*
X55250D02*
X59250D01*
X41944Y41583D02*
Y42370D01*
Y43945D02*
Y44732D01*
Y41583D02*
X43913D01*
X41944Y44732D02*
X43913D01*
Y41583D02*
Y42370D01*
Y43945D02*
Y44732D01*
X51787Y43945D02*
Y44732D01*
X53756D01*
Y43945D02*
Y44732D01*
Y41583D02*
Y42370D01*
X51787Y41583D02*
X53756D01*
X51787D02*
Y42370D01*
X55466Y32557D02*
X56266D01*
X55466Y32057D02*
Y32557D01*
Y32057D02*
X56266D01*
Y32557D01*
X55466Y41416D02*
X56266D01*
X55466Y40916D02*
Y41416D01*
Y40916D02*
X56266D01*
Y41416D01*
X55466Y38463D02*
X56266D01*
X55466Y37963D02*
Y38463D01*
Y37963D02*
X56266D01*
Y38463D01*
X55466Y35510D02*
X56266D01*
X55466Y35010D02*
Y35510D01*
Y35010D02*
X56266D01*
Y35510D01*
X55250Y30827D02*
X59250D01*
X59150D02*
Y42642D01*
X55250D02*
X59250D01*
Y30837D02*
Y42642D01*
X55250Y30827D02*
Y42642D01*
X59050Y30827D02*
Y42642D01*
X56350Y21657D02*
Y22157D01*
X55550Y21657D02*
X56350D01*
X55550D02*
Y22157D01*
X56350D01*
X59100Y14907D02*
Y22907D01*
X59200Y14907D02*
Y22907D01*
X55300D02*
X59300D01*
Y14907D02*
Y22907D01*
X55300Y14907D02*
Y22907D01*
X56300Y15657D02*
Y16157D01*
X55500Y15657D02*
X56300D01*
X55500D02*
Y16157D01*
X56300D01*
Y17657D02*
Y18157D01*
X55500Y17657D02*
X56300D01*
X55500D02*
Y18157D01*
X56300D01*
X55300Y14907D02*
X59300D01*
X55550Y20157D02*
X56350D01*
X55550Y19657D02*
Y20157D01*
Y19657D02*
X56350D01*
Y20157D01*
X30260Y17210D02*
X30460D01*
X30360D01*
Y16610D01*
X30260D01*
X30460D01*
X30760D02*
Y17010D01*
X31060D01*
X31160Y16910D01*
Y16610D01*
X31360Y16410D02*
Y17010D01*
X31660D01*
X31760Y16910D01*
Y16710D01*
X31660Y16610D01*
X31360D01*
X31959Y17010D02*
Y16710D01*
X32059Y16610D01*
X32359D01*
Y17010D01*
X32659Y17110D02*
Y17010D01*
X32559D01*
X32759D01*
X32659D01*
Y16710D01*
X32759Y16610D01*
X33059D02*
X33359D01*
X33459Y16710D01*
X33359Y16810D01*
X33159D01*
X33059Y16910D01*
X33159Y17010D01*
X33459D01*
X47550Y11507D02*
X47450Y11607D01*
X47250D01*
X47150Y11507D01*
Y11107D01*
X47250Y11007D01*
X47450D01*
X47550Y11107D01*
X47850Y11007D02*
X48050D01*
X48150Y11107D01*
Y11307D01*
X48050Y11407D01*
X47850D01*
X47750Y11307D01*
Y11107D01*
X47850Y11007D01*
X48350D02*
Y11407D01*
X48650D01*
X48749Y11307D01*
Y11007D01*
X49049Y11507D02*
Y11407D01*
X48949D01*
X49149D01*
X49049D01*
Y11107D01*
X49149Y11007D01*
X49449Y11407D02*
Y11007D01*
Y11207D01*
X49549Y11307D01*
X49649Y11407D01*
X49749D01*
X50149Y11007D02*
X50349D01*
X50449Y11107D01*
Y11307D01*
X50349Y11407D01*
X50149D01*
X50049Y11307D01*
Y11107D01*
X50149Y11007D01*
X50649D02*
X50849D01*
X50749D01*
Y11607D01*
X50649D01*
X35400Y18907D02*
Y18407D01*
X35500Y18307D01*
X35700D01*
X35800Y18407D01*
Y18907D01*
X36300Y18307D02*
Y18907D01*
X36000Y18607D01*
X36400D01*
X50350Y28007D02*
Y27407D01*
X50650D01*
X50750Y27507D01*
Y27907D01*
X50650Y28007D01*
X50350D01*
X50950Y27907D02*
X51050Y28007D01*
X51250D01*
X51350Y27907D01*
Y27807D01*
X51250Y27707D01*
X51150D01*
X51250D01*
X51350Y27607D01*
Y27507D01*
X51250Y27407D01*
X51050D01*
X50950Y27507D01*
X55450Y43057D02*
Y43457D01*
X55650Y43657D01*
X55850Y43457D01*
Y43057D01*
Y43357D01*
X55450D01*
X56450Y43557D02*
X56350Y43657D01*
X56150D01*
X56050Y43557D01*
Y43157D01*
X56150Y43057D01*
X56350D01*
X56450Y43157D01*
X53800Y12107D02*
X53700Y12207D01*
X53500D01*
X53400Y12107D01*
Y11707D01*
X53500Y11607D01*
X53700D01*
X53800Y11707D01*
X54000Y11607D02*
X54200D01*
X54100D01*
Y12207D01*
X54000Y12107D01*
X34150Y36807D02*
X34050Y36907D01*
X33850D01*
X33750Y36807D01*
Y36407D01*
X33850Y36307D01*
X34050D01*
X34150Y36407D01*
X34350D02*
X34450Y36307D01*
X34650D01*
X34750Y36407D01*
Y36807D01*
X34650Y36907D01*
X34450D01*
X34350Y36807D01*
Y36707D01*
X34450Y36607D01*
X34750D01*
X44900Y35757D02*
Y35157D01*
X45200D01*
X45300Y35257D01*
Y35657D01*
X45200Y35757D01*
X44900D01*
X45900Y35157D02*
X45500D01*
X45900Y35557D01*
Y35657D01*
X45800Y35757D01*
X45600D01*
X45500Y35657D01*
X42500Y41307D02*
X42100D01*
Y41007D01*
X42300D01*
X42100D01*
Y40707D01*
X42700D02*
X42900D01*
X42800D01*
Y41307D01*
X42700Y41207D01*
X55300Y29810D02*
Y30410D01*
X55600D01*
X55700Y30310D01*
Y30110D01*
X55600Y30010D01*
X55300D01*
X55500D02*
X55700Y29810D01*
X56300Y30310D02*
X56200Y30410D01*
X56000D01*
X55900Y30310D01*
Y30210D01*
X56000Y30110D01*
X56200D01*
X56300Y30010D01*
Y29910D01*
X56200Y29810D01*
X56000D01*
X55900Y29910D01*
X56899Y29810D02*
X56500D01*
X56899Y30210D01*
Y30310D01*
X56800Y30410D01*
X56600D01*
X56500Y30310D01*
X57099D02*
X57199Y30410D01*
X57399D01*
X57499Y30310D01*
Y30210D01*
X57399Y30110D01*
X57299D01*
X57399D01*
X57499Y30010D01*
Y29910D01*
X57399Y29810D01*
X57199D01*
X57099Y29910D01*
X58099Y29810D02*
X57699D01*
X58099Y30210D01*
Y30310D01*
X57999Y30410D01*
X57799D01*
X57699Y30310D01*
X49200Y30457D02*
Y29857D01*
X49600D01*
X50200Y30357D02*
X50100Y30457D01*
X49900D01*
X49800Y30357D01*
Y29957D01*
X49900Y29857D01*
X50100D01*
X50200Y29957D01*
X50400Y30457D02*
Y29857D01*
X50700D01*
X50799Y29957D01*
Y30357D01*
X50700Y30457D01*
X50400D01*
X28850Y15457D02*
Y16057D01*
X29150D01*
X29250Y15957D01*
Y15757D01*
X29150Y15657D01*
X28850D01*
X29450Y15457D02*
X29650D01*
X29550D01*
Y16057D01*
X29450Y15957D01*
X56500Y13907D02*
Y14507D01*
X56800D01*
X56900Y14407D01*
Y14207D01*
X56800Y14107D01*
X56500D01*
X57100Y14507D02*
Y13907D01*
X57300Y14107D01*
X57500Y13907D01*
Y14507D01*
X57700Y13907D02*
Y14507D01*
X58000D01*
X58099Y14407D01*
Y14207D01*
X58000Y14107D01*
X57700D01*
X57900D02*
X58099Y13907D01*
X37300Y39557D02*
Y39957D01*
X37200Y40057D01*
X37000D01*
X36900Y39957D01*
Y39557D01*
X37000Y39457D01*
X37200D01*
X37100Y39657D02*
X37300Y39457D01*
X37200D02*
X37300Y39557D01*
X37500Y39457D02*
X37700D01*
X37600D01*
Y40057D01*
X37500Y39957D01*
X22900Y15057D02*
X22300D01*
Y15357D01*
X22400Y15457D01*
X22600D01*
X22700Y15357D01*
Y15057D01*
Y15257D02*
X22900Y15457D01*
X22400Y15657D02*
X22300Y15757D01*
Y15957D01*
X22400Y16057D01*
X22500D01*
X22600Y15957D01*
Y15857D01*
Y15957D01*
X22700Y16057D01*
X22800D01*
X22900Y15957D01*
Y15757D01*
X22800Y15657D01*
X32900Y32307D02*
Y32907D01*
X33200D01*
X33300Y32807D01*
Y32607D01*
X33200Y32507D01*
X32900D01*
X33100D02*
X33300Y32307D01*
X33500Y32907D02*
X33900D01*
Y32807D01*
X33500Y32407D01*
Y32307D01*
X42500Y33707D02*
Y34307D01*
X42800D01*
X42900Y34207D01*
Y34007D01*
X42800Y33907D01*
X42500D01*
X42700D02*
X42900Y33707D01*
X43100Y34207D02*
X43200Y34307D01*
X43400D01*
X43500Y34207D01*
Y34107D01*
X43400Y34007D01*
X43500Y33907D01*
Y33807D01*
X43400Y33707D01*
X43200D01*
X43100Y33807D01*
Y33907D01*
X43200Y34007D01*
X43100Y34107D01*
Y34207D01*
X43200Y34007D02*
X43400D01*
X22100Y25407D02*
X22000Y25507D01*
X21800D01*
X21700Y25407D01*
Y25307D01*
X21800Y25207D01*
X22000D01*
X22100Y25107D01*
Y25007D01*
X22000Y24907D01*
X21800D01*
X21700Y25007D01*
X22300Y24907D02*
X22500D01*
X22400D01*
Y25507D01*
X22300Y25407D01*
X28480Y27440D02*
Y26940D01*
X28580Y26840D01*
X28780D01*
X28880Y26940D01*
Y27440D01*
X29080Y26840D02*
X29280D01*
X29180D01*
Y27440D01*
X29080Y27340D01*
X24350Y37507D02*
Y37007D01*
X24450Y36907D01*
X24650D01*
X24750Y37007D01*
Y37507D01*
X25350Y36907D02*
X24950D01*
X25350Y37307D01*
Y37407D01*
X25250Y37507D01*
X25050D01*
X24950Y37407D01*
X21650Y37507D02*
Y37007D01*
X21750Y36907D01*
X21950D01*
X22050Y37007D01*
Y37507D01*
X22250Y37407D02*
X22350Y37507D01*
X22550D01*
X22650Y37407D01*
Y37307D01*
X22550Y37207D01*
X22450D01*
X22550D01*
X22650Y37107D01*
Y37007D01*
X22550Y36907D01*
X22350D01*
X22250Y37007D01*
X41850Y38307D02*
Y37907D01*
X42050Y37707D01*
X42250Y37907D01*
Y38307D01*
X42550Y38107D02*
X42750D01*
X42850Y38007D01*
Y37707D01*
X42550D01*
X42450Y37807D01*
X42550Y37907D01*
X42850D01*
X43050Y38107D02*
Y37707D01*
Y37907D01*
X43150Y38007D01*
X43250Y38107D01*
X43350D01*
X44800Y18157D02*
Y17757D01*
X45000Y17557D01*
X45200Y17757D01*
Y18157D01*
X45400Y17557D02*
Y18157D01*
X45700D01*
X45800Y18057D01*
Y17857D01*
X45700Y17757D01*
X45400D01*
X45600D02*
X45800Y17557D01*
X46000D02*
X46200D01*
X46100D01*
Y18157D01*
X46000Y18057D01*
X40100Y21857D02*
Y21757D01*
X40300Y21557D01*
X40500Y21757D01*
Y21857D01*
X40300Y21557D02*
Y21257D01*
X40700D02*
X40900D01*
X40800D01*
Y21857D01*
X40700Y21757D01*
X53800Y28507D02*
X53700Y28607D01*
X53500D01*
X53400Y28507D01*
Y28107D01*
X53500Y28007D01*
X53700D01*
X53800Y28107D01*
Y28307D01*
X53600D01*
X54000Y28007D02*
Y28607D01*
X54400Y28007D01*
Y28607D01*
X54600D02*
Y28007D01*
X54900D01*
X54999Y28107D01*
Y28507D01*
X54900Y28607D01*
X54600D01*
X54000Y26007D02*
Y26607D01*
X54300D01*
X54400Y26507D01*
Y26307D01*
X54300Y26207D01*
X54000D01*
X54200D02*
X54400Y26007D01*
X54600Y26607D02*
X55000Y26007D01*
Y26607D02*
X54600Y26007D01*
X53950Y24557D02*
X54350D01*
X54150D01*
Y23957D01*
X54550Y24557D02*
X54950Y23957D01*
Y24557D02*
X54550Y23957D01*
X53800Y16107D02*
X53700Y16207D01*
X53500D01*
X53400Y16107D01*
Y15707D01*
X53500Y15607D01*
X53700D01*
X53800Y15707D01*
Y15907D01*
X53600D01*
X54000Y15607D02*
Y16207D01*
X54400Y15607D01*
Y16207D01*
X54600D02*
Y15607D01*
X54900D01*
X54999Y15707D01*
Y16107D01*
X54900Y16207D01*
X54600D01*
X53500Y17907D02*
X53900D01*
X53700Y18107D02*
Y17707D01*
X54100Y17607D02*
X54300D01*
X54200D01*
Y18207D01*
X54100Y18107D01*
X55000Y17607D02*
X54600D01*
X55000Y18007D01*
Y18107D01*
X54900Y18207D01*
X54700D01*
X54600Y18107D01*
X51500Y32457D02*
Y33057D01*
X51800D01*
X51900Y32957D01*
Y32757D01*
X51800Y32657D01*
X51500D01*
X51700D02*
X51900Y32457D01*
X52400Y33057D02*
X52200D01*
X52100Y32957D01*
Y32557D01*
X52200Y32457D01*
X52400D01*
X52500Y32557D01*
Y32957D01*
X52400Y33057D01*
X52700D02*
Y32557D01*
X52800Y32457D01*
X53000D01*
X53099Y32557D01*
Y33057D01*
X53299D02*
X53699D01*
X53499D01*
Y32457D01*
X54299Y33057D02*
X53899D01*
Y32457D01*
X54299D01*
X53899Y32757D02*
X54099D01*
X54499Y32457D02*
Y33057D01*
X54799D01*
X54899Y32957D01*
Y32757D01*
X54799Y32657D01*
X54499D01*
X54699D02*
X54899Y32457D01*
X50850Y36457D02*
Y37057D01*
X51250Y36457D01*
Y37057D01*
X51850D02*
X51450D01*
Y36457D01*
X51850D01*
X51450Y36757D02*
X51650D01*
X52050Y37057D02*
Y36557D01*
X52150Y36457D01*
X52350D01*
X52449Y36557D01*
Y37057D01*
X52649D02*
X53049D01*
X52849D01*
Y36457D01*
X53249D02*
Y37057D01*
X53549D01*
X53649Y36957D01*
Y36757D01*
X53549Y36657D01*
X53249D01*
X53449D02*
X53649Y36457D01*
X53849D02*
Y36857D01*
X54049Y37057D01*
X54249Y36857D01*
Y36457D01*
Y36757D01*
X53849D01*
X54449Y37057D02*
Y36457D01*
X54849D01*
X52750Y41257D02*
Y40657D01*
X53150D01*
X53350Y41257D02*
X53550D01*
X53450D01*
Y40657D01*
X53350D01*
X53550D01*
X53850D02*
Y41257D01*
X54250Y40657D01*
Y41257D01*
X54849D02*
X54449D01*
Y40657D01*
X54849D01*
X54449Y40957D02*
X54649D01*
X47000Y34107D02*
Y33708D01*
X47200Y33908D02*
X46800D01*
X48700Y33957D02*
X49100D01*
X52800Y22157D02*
X53200D01*
X53000D01*
Y21557D01*
X53400D02*
Y21957D01*
X53600Y22157D01*
X53800Y21957D01*
Y21557D01*
Y21857D01*
X53400D01*
X54399Y22057D02*
X54300Y22157D01*
X54100D01*
X54000Y22057D01*
Y21657D01*
X54100Y21557D01*
X54300D01*
X54399Y21657D01*
X54599Y22157D02*
Y21557D01*
Y21857D01*
X54999D01*
Y22157D01*
Y21557D01*
X53450Y19557D02*
Y20157D01*
X53750D01*
X53850Y20057D01*
Y19857D01*
X53750Y19757D01*
X53450D01*
X53650D02*
X53850Y19557D01*
X54050Y20157D02*
Y19657D01*
X54150Y19557D01*
X54350D01*
X54450Y19657D01*
Y20157D01*
X54650Y19557D02*
Y20157D01*
X55049Y19557D01*
Y20157D01*
D55*
X27224Y19157D02*
G03*
X27224Y19657I0J250D01*
G01*
X23604Y35070D02*
G03*
X23604Y34570I0J-250D01*
G01*
X24250Y34670D02*
G03*
X24250Y35170I0J250D01*
G01*
X28424Y24457D02*
G03*
X28424Y24957I0J250D01*
G01*
X32850Y33273D02*
X37050D01*
X37076D02*
Y35242D01*
X32850D02*
X37050D01*
X32824Y33273D02*
Y35242D01*
X51400Y24507D02*
Y25507D01*
X52650D02*
X53400D01*
Y24507D02*
Y25507D01*
X51400D02*
X52150D01*
X51400Y24507D02*
X52150D01*
X52650D02*
X53400D01*
Y23307D02*
Y24307D01*
X51400Y23307D02*
X52150D01*
X51400D02*
Y24307D01*
X52650Y23307D02*
X53400D01*
X52650Y24307D02*
X53400D01*
X51400D02*
X52150D01*
X45050Y26257D02*
Y27257D01*
X43050Y26257D02*
X43800D01*
X43050D02*
Y27257D01*
X44300Y26257D02*
X45050D01*
X44300Y27257D02*
X45050D01*
X43050D02*
X43800D01*
X27224Y18364D02*
Y19157D01*
Y19657D02*
Y20451D01*
X35176Y18364D02*
Y20451D01*
X27224Y18364D02*
X35176D01*
X27224Y20451D02*
X35176D01*
X41950Y16357D02*
Y17357D01*
X43200D02*
X43950D01*
Y16357D02*
Y17357D01*
X41950D02*
X42700D01*
X41950Y16357D02*
X42700D01*
X43200D02*
X43950D01*
X47450Y25757D02*
X48450D01*
X47450Y27007D02*
Y27757D01*
X48450D01*
X47450Y25757D02*
Y26507D01*
X48450Y25757D02*
Y26507D01*
Y27007D02*
Y27757D01*
X38350Y19521D02*
Y19994D01*
X36800Y19521D02*
Y19994D01*
X21596Y33777D02*
Y35864D01*
X23604Y33777D02*
Y34570D01*
Y35070D02*
Y35864D01*
X21596Y33777D02*
X23604D01*
X21596Y35864D02*
X23604D01*
X24250Y33877D02*
X27950D01*
X24250Y35964D02*
X27950D01*
X24250Y33877D02*
Y34670D01*
Y35170D02*
Y35964D01*
X27950Y33877D02*
Y35964D01*
X41500Y29207D02*
X42250D01*
X40250D02*
X41000D01*
X40250Y30207D02*
X41000D01*
X42250Y29207D02*
Y30207D01*
X41500D02*
X42250D01*
X40250Y29207D02*
Y30207D01*
X25900Y21607D02*
X27750D01*
X25900D02*
Y22607D01*
X27750D01*
X37400Y26771D02*
Y27244D01*
X27350Y24021D02*
Y24494D01*
X27300Y24852D02*
Y25363D01*
X51894Y12907D02*
X52406D01*
X49264Y21357D02*
X49736D01*
X49264Y19357D02*
X49736D01*
X26914Y16157D02*
X27386D01*
X42676Y23664D02*
Y25751D01*
X28424Y24957D02*
Y25751D01*
Y23664D02*
Y24457D01*
Y25751D02*
X42676D01*
X28424Y23664D02*
X42676D01*
X35000Y35857D02*
Y37357D01*
X40500D01*
Y35857D02*
Y37357D01*
X35000Y35857D02*
X40500D01*
X22864Y32007D02*
X23336D01*
X41950Y32447D02*
Y33357D01*
X44350D01*
Y32447D02*
Y33357D01*
X41950Y32447D02*
X44350D01*
X41640Y32907D02*
X41950D01*
X44350D02*
X44640D01*
X25600Y32257D02*
Y33007D01*
Y31007D02*
Y31757D01*
X24600Y31007D02*
Y31757D01*
Y33007D02*
X25600D01*
X24600Y32257D02*
Y33007D01*
Y31007D02*
X25600D01*
X28850Y33757D02*
Y34507D01*
Y35007D02*
Y35757D01*
X29850Y35007D02*
Y35757D01*
X28850Y33757D02*
X29850D01*
Y34507D01*
X28850Y35757D02*
X29850D01*
X45050Y24257D02*
Y25257D01*
X43050Y24257D02*
X43800D01*
X43050D02*
Y25257D01*
X44300Y24257D02*
X45050D01*
X44300Y25257D02*
X45050D01*
X43050D02*
X43800D01*
X47500Y16357D02*
Y17357D01*
X48750D02*
X49500D01*
Y16357D02*
Y17357D01*
X47500D02*
X48250D01*
X47500Y16357D02*
X48250D01*
X48750D02*
X49500D01*
X50900Y20457D02*
X51650D01*
X52150D02*
X52900D01*
X52150Y19457D02*
X52900D01*
X50900D02*
Y20457D01*
Y19457D02*
X51650D01*
X52900D02*
Y20457D01*
D56*
X23328Y35470D02*
G03*
X23328Y35470I-118J0D01*
G01*
X24761Y34271D02*
G03*
X24761Y34271I-118J0D01*
G01*
X28936Y24058D02*
G03*
X28936Y24058I-118J0D01*
G01*
D57*
X23661Y36320D02*
G03*
X23661Y36320I-49J0D01*
G01*
X24637Y33420D02*
G03*
X24637Y33420I-49J0D01*
G01*
X28587Y23207D02*
G03*
X28587Y23207I-49J0D01*
G01*
D58*
X54784Y13607D02*
G03*
X54784Y13607I-984J0D01*
G01*
X52130Y30707D02*
X52730D01*
Y30107D02*
Y30707D01*
Y16507D02*
Y17107D01*
X52130Y16507D02*
X52730D01*
X21200Y30107D02*
Y30707D01*
X21800D01*
X21200Y16507D02*
X21800D01*
X21200D02*
Y17107D01*
X52000Y14517D02*
X52300D01*
X52000Y14687D02*
X52120Y14557D01*
X52180D02*
X52300Y14687D01*
X52000Y14697D02*
X52300D01*
X53429Y13070D02*
Y13334D01*
X26650Y14207D02*
Y15207D01*
X29650D01*
X26650Y14207D02*
X29650D01*
Y15207D01*
D59*
X23200Y13107D02*
Y16057D01*
Y13107D02*
X26200D01*
Y16057D01*
X23200D02*
X26200D01*
X45700Y25157D02*
X45900D01*
X46250Y24257D02*
X46300D01*
X46650Y25157D02*
X46850D01*
X45700Y24707D02*
Y25157D01*
X46850Y24707D02*
Y25157D01*
X45850Y26182D02*
Y26382D01*
X46750Y26732D02*
Y26782D01*
X45850Y27132D02*
Y27332D01*
Y26182D02*
X46300D01*
X45850Y27332D02*
X46300D01*
D60*
X48000Y17607D02*
Y18007D01*
X48200D01*
X48267Y17941D01*
Y17807D01*
X48200Y17741D01*
X48000D01*
X48133D02*
X48267Y17607D01*
X48400D02*
X48533D01*
X48467D01*
Y18007D01*
X48400Y17941D01*
X48733Y18007D02*
X49000D01*
Y17941D01*
X48733Y17674D01*
Y17607D01*
X43550Y27557D02*
Y27957D01*
X43750D01*
X43817Y27891D01*
Y27757D01*
X43750Y27691D01*
X43550D01*
X43683D02*
X43817Y27557D01*
X43950D02*
X44083D01*
X44017D01*
Y27957D01*
X43950Y27891D01*
X44550Y27957D02*
X44416Y27891D01*
X44283Y27757D01*
Y27624D01*
X44350Y27557D01*
X44483D01*
X44550Y27624D01*
Y27691D01*
X44483Y27757D01*
X44283D01*
X43600Y23607D02*
Y24007D01*
X43800D01*
X43867Y23941D01*
Y23807D01*
X43800Y23741D01*
X43600D01*
X43733D02*
X43867Y23607D01*
X44000D02*
X44133D01*
X44067D01*
Y24007D01*
X44000Y23941D01*
X44600Y24007D02*
X44333D01*
Y23807D01*
X44466Y23874D01*
X44533D01*
X44600Y23807D01*
Y23674D01*
X44533Y23607D01*
X44400D01*
X44333Y23674D01*
X51450Y22707D02*
Y23107D01*
X51650D01*
X51717Y23041D01*
Y22907D01*
X51650Y22841D01*
X51450D01*
X51583D02*
X51717Y22707D01*
X51850D02*
X51983D01*
X51917D01*
Y23107D01*
X51850Y23041D01*
X52383Y22707D02*
Y23107D01*
X52183Y22907D01*
X52450D01*
X47480Y28070D02*
Y28470D01*
X47680D01*
X47747Y28403D01*
Y28270D01*
X47680Y28203D01*
X47480D01*
X47613D02*
X47747Y28070D01*
X47880D02*
X48013D01*
X47947D01*
Y28470D01*
X47880Y28403D01*
X48213D02*
X48280Y28470D01*
X48413D01*
X48480Y28403D01*
Y28337D01*
X48413Y28270D01*
X48346D01*
X48413D01*
X48480Y28203D01*
Y28137D01*
X48413Y28070D01*
X48280D01*
X48213Y28137D01*
X50200Y24807D02*
Y25207D01*
X50400D01*
X50467Y25141D01*
Y25007D01*
X50400Y24941D01*
X50200D01*
X50333D02*
X50467Y24807D01*
X50600D02*
X50733D01*
X50667D01*
Y25207D01*
X50600Y25141D01*
X51200Y24807D02*
X50933D01*
X51200Y25074D01*
Y25141D01*
X51133Y25207D01*
X51000D01*
X50933Y25141D01*
X48767Y25441D02*
X48700Y25507D01*
X48567D01*
X48500Y25441D01*
Y25174D01*
X48567Y25107D01*
X48700D01*
X48767Y25174D01*
X48900Y25107D02*
X49033D01*
X48967D01*
Y25507D01*
X48900Y25441D01*
X49233D02*
X49300Y25507D01*
X49433D01*
X49500Y25441D01*
Y25174D01*
X49433Y25107D01*
X49300D01*
X49233Y25174D01*
Y25441D01*
X40850Y16607D02*
Y17007D01*
X41050D01*
X41117Y16941D01*
Y16807D01*
X41050Y16741D01*
X40850D01*
X40983D02*
X41117Y16607D01*
X41250D02*
X41383D01*
X41317D01*
Y17007D01*
X41250Y16941D01*
X41583Y16607D02*
X41716D01*
X41650D01*
Y17007D01*
X41583Y16941D01*
X50317Y19541D02*
X50250Y19607D01*
X50117D01*
X50050Y19541D01*
Y19274D01*
X50117Y19207D01*
X50250D01*
X50317Y19274D01*
X50716Y19207D02*
X50450D01*
X50716Y19474D01*
Y19541D01*
X50650Y19607D01*
X50517D01*
X50450Y19541D01*
X50317Y21541D02*
X50250Y21607D01*
X50117D01*
X50050Y21541D01*
Y21274D01*
X50117Y21207D01*
X50250D01*
X50317Y21274D01*
X50450Y21541D02*
X50517Y21607D01*
X50650D01*
X50716Y21541D01*
Y21474D01*
X50650Y21407D01*
X50583D01*
X50650D01*
X50716Y21341D01*
Y21274D01*
X50650Y21207D01*
X50517D01*
X50450Y21274D01*
X37243Y27868D02*
X37176Y27934D01*
X37043D01*
X36976Y27868D01*
Y27601D01*
X37043Y27535D01*
X37176D01*
X37243Y27601D01*
X37643Y27934D02*
X37510Y27868D01*
X37376Y27735D01*
Y27601D01*
X37443Y27535D01*
X37576D01*
X37643Y27601D01*
Y27668D01*
X37576Y27735D01*
X37376D01*
X26117Y24391D02*
X26050Y24457D01*
X25917D01*
X25850Y24391D01*
Y24124D01*
X25917Y24057D01*
X26050D01*
X26117Y24124D01*
X26250Y24457D02*
X26516D01*
Y24391D01*
X26250Y24124D01*
Y24057D01*
X25317Y22191D02*
X25250Y22257D01*
X25117D01*
X25050Y22191D01*
Y21924D01*
X25117Y21857D01*
X25250D01*
X25317Y21924D01*
X25450Y22191D02*
X25517Y22257D01*
X25650D01*
X25716Y22191D01*
Y22124D01*
X25650Y22057D01*
X25716Y21991D01*
Y21924D01*
X25650Y21857D01*
X25517D01*
X25450Y21924D01*
Y21991D01*
X25517Y22057D01*
X25450Y22124D01*
Y22191D01*
X25517Y22057D02*
X25650D01*
X51900Y15807D02*
Y15407D01*
X52100D01*
X52167Y15474D01*
Y15741D01*
X52100Y15807D01*
X51900D01*
X52300Y15407D02*
X52433D01*
X52367D01*
Y15807D01*
X52300Y15741D01*
X51950Y11407D02*
Y11807D01*
X52150D01*
X52217Y11741D01*
Y11607D01*
X52150Y11541D01*
X51950D01*
X52083D02*
X52217Y11407D01*
X52350D02*
X52483D01*
X52417D01*
Y11807D01*
X52350Y11741D01*
X25700Y24938D02*
Y25338D01*
X25900D01*
X25967Y25271D01*
Y25138D01*
X25900Y25071D01*
X25700D01*
X25833D02*
X25967Y24938D01*
X26366D02*
X26100D01*
X26366Y25205D01*
Y25271D01*
X26300Y25338D01*
X26167D01*
X26100Y25271D01*
X42500Y29407D02*
Y29807D01*
X42700D01*
X42767Y29741D01*
Y29607D01*
X42700Y29541D01*
X42500D01*
X42633D02*
X42767Y29407D01*
X43100D02*
Y29807D01*
X42900Y29607D01*
X43166D01*
X29000Y36007D02*
Y36407D01*
X29200D01*
X29267Y36341D01*
Y36207D01*
X29200Y36141D01*
X29000D01*
X29133D02*
X29267Y36007D01*
X29666Y36407D02*
X29533Y36341D01*
X29400Y36207D01*
Y36074D01*
X29467Y36007D01*
X29600D01*
X29666Y36074D01*
Y36141D01*
X29600Y36207D01*
X29400D01*
X26700Y16957D02*
Y17357D01*
X26900D01*
X26967Y17291D01*
Y17157D01*
X26900Y17091D01*
X26700D01*
X26833D02*
X26967Y16957D01*
X27100D02*
X27233D01*
X27167D01*
Y17357D01*
X27100Y17291D01*
X27433D02*
X27500Y17357D01*
X27633D01*
X27700Y17291D01*
Y17024D01*
X27633Y16957D01*
X27500D01*
X27433Y17024D01*
Y17291D01*
X51150Y20807D02*
Y21207D01*
X51350D01*
X51417Y21141D01*
Y21007D01*
X51350Y20941D01*
X51150D01*
X51283D02*
X51417Y20807D01*
X51550D02*
X51683D01*
X51617D01*
Y21207D01*
X51550Y21141D01*
X51883D02*
X51950Y21207D01*
X52083D01*
X52150Y21141D01*
Y21074D01*
X52083Y21007D01*
X52150Y20941D01*
Y20874D01*
X52083Y20807D01*
X51950D01*
X51883Y20874D01*
Y20941D01*
X51950Y21007D01*
X51883Y21074D01*
Y21141D01*
X51950Y21007D02*
X52083D01*
X43650Y10757D02*
X43250D01*
Y10957D01*
X43317Y11024D01*
X43450D01*
X43517Y10957D01*
Y10757D01*
Y10891D02*
X43650Y11024D01*
Y11157D02*
X43250D01*
Y11357D01*
X43317Y11424D01*
X43450D01*
X43517Y11357D01*
Y11157D01*
X43650Y11557D02*
X43250D01*
X43383Y11691D01*
X43250Y11824D01*
X43650D01*
X41200Y10757D02*
X41600D01*
Y11024D01*
X41200Y11424D02*
Y11157D01*
X41600D01*
Y11424D01*
X41400Y11157D02*
Y11291D01*
X41200Y11557D02*
X41600D01*
Y11757D01*
X41533Y11824D01*
X41267D01*
X41200Y11757D01*
Y11557D01*
X39300Y10757D02*
X39567D01*
X39700Y10891D01*
X39567Y11024D01*
X39300D01*
X39367Y11424D02*
X39300Y11357D01*
Y11224D01*
X39367Y11157D01*
X39633D01*
X39700Y11224D01*
Y11357D01*
X39633Y11424D01*
X39367Y11824D02*
X39300Y11757D01*
Y11624D01*
X39367Y11557D01*
X39633D01*
X39700Y11624D01*
Y11757D01*
X39633Y11824D01*
X45367Y11024D02*
X45300Y10957D01*
Y10824D01*
X45367Y10757D01*
X45633D01*
X45700Y10824D01*
Y10957D01*
X45633Y11024D01*
X45500D01*
Y10891D01*
X45700Y11157D02*
X45300D01*
X45700Y11424D01*
X45300D01*
Y11557D02*
X45700D01*
Y11757D01*
X45633Y11824D01*
X45367D01*
X45300Y11757D01*
Y11557D01*
X29400Y12907D02*
X29000D01*
Y13107D01*
X29067Y13174D01*
X29200D01*
X29267Y13107D01*
Y12907D01*
X29000Y13507D02*
Y13374D01*
X29067Y13307D01*
X29333D01*
X29400Y13374D01*
Y13507D01*
X29333Y13574D01*
X29067D01*
X29000Y13507D01*
Y13707D02*
Y13974D01*
Y13841D01*
X29400D01*
X27350Y12907D02*
X26950D01*
Y13107D01*
X27017Y13174D01*
X27150D01*
X27217Y13107D01*
Y12907D01*
X26950Y13307D02*
X27350D01*
X27217Y13441D01*
X27350Y13574D01*
X26950D01*
X27350Y13707D02*
X26950D01*
X27083Y13841D01*
X26950Y13974D01*
X27350D01*
X31300Y10757D02*
X31567D01*
X31700Y10891D01*
X31567Y11024D01*
X31300D01*
X31367Y11424D02*
X31300Y11357D01*
Y11224D01*
X31367Y11157D01*
X31633D01*
X31700Y11224D01*
Y11357D01*
X31633Y11424D01*
X31367Y11824D02*
X31300Y11757D01*
Y11624D01*
X31367Y11557D01*
X31633D01*
X31700Y11624D01*
Y11757D01*
X31633Y11824D01*
X33650Y10757D02*
X33250D01*
Y10957D01*
X33317Y11024D01*
X33450D01*
X33517Y10957D01*
Y10757D01*
X33250Y11357D02*
Y11224D01*
X33317Y11157D01*
X33583D01*
X33650Y11224D01*
Y11357D01*
X33583Y11424D01*
X33317D01*
X33250Y11357D01*
Y11557D02*
Y11824D01*
Y11691D01*
X33650D01*
X35700Y10757D02*
X35300D01*
Y10957D01*
X35367Y11024D01*
X35500D01*
X35567Y10957D01*
Y10757D01*
X35300Y11157D02*
X35700D01*
X35567Y11291D01*
X35700Y11424D01*
X35300D01*
X35700Y11557D02*
X35300D01*
X35433Y11691D01*
X35300Y11824D01*
X35700D01*
X37317Y11024D02*
X37250Y10957D01*
Y10824D01*
X37317Y10757D01*
X37583D01*
X37650Y10824D01*
Y10957D01*
X37583Y11024D01*
X37450D01*
Y10891D01*
X37650Y11157D02*
X37250D01*
X37650Y11424D01*
X37250D01*
Y11557D02*
X37650D01*
Y11757D01*
X37583Y11824D01*
X37317D01*
X37250Y11757D01*
Y11557D01*
D61*
X46050Y27607D02*
Y27807D01*
X46000Y27857D01*
X45900D01*
X45850Y27807D01*
Y27607D01*
X45900Y27557D01*
X46000D01*
X45950Y27657D02*
X46050Y27557D01*
X46000D02*
X46050Y27607D01*
X46150Y27807D02*
X46200Y27857D01*
X46300D01*
X46350Y27807D01*
Y27757D01*
X46300Y27707D01*
X46250D01*
X46300D01*
X46350Y27657D01*
Y27607D01*
X46300Y27557D01*
X46200D01*
X46150Y27607D01*
X45600Y25407D02*
Y25607D01*
X45550Y25657D01*
X45450D01*
X45400Y25607D01*
Y25407D01*
X45450Y25357D01*
X45550D01*
X45500Y25457D02*
X45600Y25357D01*
X45550D02*
X45600Y25407D01*
X45900Y25357D02*
X45700D01*
X45900Y25557D01*
Y25607D01*
X45850Y25657D01*
X45750D01*
X45700Y25607D01*
X38350Y19207D02*
X38300Y19257D01*
X38200D01*
X38150Y19207D01*
Y19007D01*
X38200Y18957D01*
X38300D01*
X38350Y19007D01*
X38600Y18957D02*
Y19257D01*
X38450Y19107D01*
X38650D01*
X36800Y19207D02*
X36750Y19257D01*
X36650D01*
X36600Y19207D01*
Y19007D01*
X36650Y18957D01*
X36750D01*
X36800Y19007D01*
X37100Y19257D02*
X36900D01*
Y19107D01*
X37000Y19157D01*
X37050D01*
X37100Y19107D01*
Y19007D01*
X37050Y18957D01*
X36950D01*
X36900Y19007D01*
X25800Y31907D02*
Y32207D01*
X25950D01*
X26000Y32157D01*
Y32057D01*
X25950Y32007D01*
X25800D01*
X25900D02*
X26000Y31907D01*
X26300Y32207D02*
X26100D01*
Y32057D01*
X26200Y32107D01*
X26250D01*
X26300Y32057D01*
Y31957D01*
X26250Y31907D01*
X26150D01*
X26100Y31957D01*
X23600Y31907D02*
Y32207D01*
X23750D01*
X23800Y32157D01*
Y32057D01*
X23750Y32007D01*
X23600D01*
X23700D02*
X23800Y31907D01*
X23900Y31957D02*
X23950Y31907D01*
X24050D01*
X24100Y31957D01*
Y32157D01*
X24050Y32207D01*
X23950D01*
X23900Y32157D01*
Y32107D01*
X23950Y32057D01*
X24100D01*
M02*
